<svg xmlns="http://www.w3.org/2000/svg" viewBox="0 0 1302 404">
  <path fill="#171718" d="M0 0h1302v404H0z" />
  <g fill="#DED8CB">
    <path
      d="M80.76 110.28q-1.104 0-1.632-.528-.528-.528-.528-1.632 0-1.104.528-1.632.528-.528 1.632-.528h17.28q1.104 0 1.632.528.528.528.528 1.632 0 1.104-.528 1.632-.528.528-1.632.528H80.76Zm28.8 0q-1.104 0-1.632-.528-.528-.528-.528-1.632 0-1.104.528-1.632.528-.528 1.632-.528h17.28q1.104 0 1.632.528.528.528.528 1.632 0 1.104-.528 1.632-.528.528-1.632.528h-17.28Zm28.8 0q-1.104 0-1.632-.528-.528-.528-.528-1.632 0-1.104.528-1.632.528-.528 1.632-.528h17.28q1.104 0 1.632.528.528.528.528 1.632 0 1.104-.528 1.632-.528.528-1.632.528h-17.28Zm28.8 0q-1.104 0-1.632-.528-.528-.528-.528-1.632 0-1.104.528-1.632.528-.528 1.632-.528h17.28q1.104 0 1.632.528.528.528.528 1.632 0 1.104-.528 1.632-.528.528-1.632.528h-17.28Zm28.8 0q-1.104 0-1.632-.528-.528-.528-.528-1.632 0-1.104.528-1.632.528-.528 1.632-.528h17.28q1.104 0 1.632.528.528.528.528 1.632 0 1.104-.528 1.632-.528.528-1.632.528h-17.28Zm28.8 0q-1.104 0-1.632-.528-.528-.528-.528-1.632 0-1.104.528-1.632.528-.528 1.632-.528h17.28q1.104 0 1.632.528.528.528.528 1.632 0 1.104-.528 1.632-.528.528-1.632.528h-17.28Zm28.8 0q-1.104 0-1.632-.528-.528-.528-.528-1.632 0-1.104.528-1.632.528-.528 1.632-.528h17.28q1.104 0 1.632.528.528.528.528 1.632 0 1.104-.528 1.632-.528.528-1.632.528h-17.28Zm28.8 0q-1.104 0-1.632-.528-.528-.528-.528-1.632 0-1.104.528-1.632.528-.528 1.632-.528h17.28q1.104 0 1.632.528.528.528.528 1.632 0 1.104-.528 1.632-.528.528-1.632.528h-17.28Zm28.8 0q-1.104 0-1.632-.528-.528-.528-.528-1.632 0-1.104.528-1.632.528-.528 1.632-.528h17.28q1.104 0 1.632.528.528.528.528 1.632 0 1.104-.528 1.632-.528.528-1.632.528h-17.28Zm28.8 0q-1.104 0-1.632-.528-.528-.528-.528-1.632 0-1.104.528-1.632.528-.528 1.632-.528h17.28q1.104 0 1.632.528.528.528.528 1.632 0 1.104-.528 1.632-.528.528-1.632.528h-17.28Zm28.8 0q-1.104 0-1.632-.528-.528-.528-.528-1.632 0-1.104.528-1.632.528-.528 1.632-.528h17.28q1.104 0 1.632.528.528.528.528 1.632 0 1.104-.528 1.632-.528.528-1.632.528h-17.28Zm28.8 0q-1.104 0-1.632-.528-.528-.528-.528-1.632 0-1.104.528-1.632.528-.528 1.632-.528h17.28q1.104 0 1.632.528.528.528.528 1.632 0 1.104-.528 1.632-.528.528-1.632.528h-17.28Zm28.8 0q-1.104 0-1.632-.528-.528-.528-.528-1.632 0-1.104.528-1.632.528-.528 1.632-.528h17.28q1.104 0 1.632.528.528.528.528 1.632 0 1.104-.528 1.632-.528.528-1.632.528h-17.28Zm28.8 0q-1.104 0-1.632-.528-.528-.528-.528-1.632 0-1.104.528-1.632.528-.528 1.632-.528h17.28q1.104 0 1.632.528.528.528.528 1.632 0 1.104-.528 1.632-.528.528-1.632.528h-17.28Zm28.8 0q-1.104 0-1.632-.528-.528-.528-.528-1.632 0-1.104.528-1.632.528-.528 1.632-.528h17.28q1.104 0 1.632.528.528.528.528 1.632 0 1.104-.528 1.632-.528.528-1.632.528h-17.28Zm32.4-16.176q0-.384.168-.744t.456-.648q.288-.288.672-.456.384-.168.768-.168h15.168v-6.48q0-.384.168-.768t.456-.672q.288-.288.624-.456.336-.168.72-.168h.24q.384 0 .72.168.336.168.648.456.312.288.456.672.144.384.144.768v6.48h15.36q.384 0 .768.168t.672.456q.288.288.456.648.168.36.168.744v18.816q0 .384-.144.744t-.432.648q-.288.288-.624.48t-.768.192h-.192q-.336 0-.696-.192-.36-.192-.672-.48-.312-.288-.456-.672-.144-.384-.144-.768v-.624h-13.296v13.488q0 .432-.144.792-.144.36-.456.648-.312.288-.648.48t-.72.192h-.24q-.384 0-.72-.192-.336-.192-.624-.48t-.456-.648q-.168-.36-.168-.792v-13.488h-13.248v.864q0 .384-.144.768t-.432.672q-.288.288-.648.48-.36.192-.744.192h-.048q-.336 0-.696-.192-.36-.192-.672-.48-.312-.288-.456-.648-.144-.36-.144-.744V94.104Zm21.408 1.92v12.288h13.296v-12q0-.096-.096-.192t-.192-.096h-13.008Zm-4.176 12.288V96.024h-12.96q-.096 0-.192.096t-.096.192v12h13.248Zm38.448 4.08q0-.384.168-.72.168-.336.456-.6.288-.264.672-.432.384-.168.72-.168h2.976q-.096-.24-.096-.48v-8.688q0-.384.168-.744t.48-.648q.312-.288.696-.48.384-.192.72-.192h12.096v-3.312q0-.384.168-.768t.456-.672q.288-.288.648-.456.36-.168.744-.168h.192q.384 0 .72.168.336.168.648.48.312.312.456.672.144.36.144.744v3.312h12.816q.384 0 .768.192t.672.48q.288.288.456.648.168.36.168.744v8.688q0 .24-.048.48h2.688q.336 0 .72.168.384.168.672.432.288.264.456.6.168.336.168.72 0 .336-.168.672t-.456.6q-.288.264-.672.432-.384.168-.72.168h-15.696q2.112 3.552 5.664 5.808 4.032 2.544 9.888 3.744 1.248.24 1.656 1.104.408.864-.216 1.92-.24.432-.912.72t-1.2.192q-6.72-1.392-11.376-4.512-4.32-2.88-6.912-7.488-.72 1.584-1.92 3.072-1.44 1.728-3.672 3.336-2.232 1.608-5.448 3t-7.584 2.496q-.576.144-1.224-.12t-.936-.648q-.576-.912-.168-1.776.408-.864 1.608-1.2 5.664-1.488 9-3.336 3.336-1.848 5.064-3.912.96-1.2 1.488-2.4h-15.84q-.336 0-.72-.168-.384-.168-.672-.432-.288-.264-.456-.6-.168-.336-.168-.672Zm.576-22.752q0-.336.168-.672t.456-.576q.288-.24.672-.384.384-.144.768-.144h7.968v-2.208q0-.432.144-.792.144-.36.456-.648.312-.288.672-.48.36-.192.696-.192.384 0 .744.192t.648.48q.288.288.432.648.144.36.144.792v2.208h13.392v-2.208q0-.432.144-.792.144-.36.456-.648.312-.288.672-.48.36-.192.744-.192t.72.192q.336.192.624.48t.456.648q.168.36.168.792v2.208h8.016q.384 0 .768.144t.672.384q.288.24.456.576.168.336.168.672t-.168.672q-.168.336-.456.6-.288.264-.672.408-.384.144-.768.144h-8.016v2.832q0 .384-.168.744t-.456.672q-.288.312-.624.48-.336.168-.72.168-.384 0-.744-.168t-.672-.48q-.312-.312-.456-.672-.144-.36-.144-.744v-2.832h-13.392v2.832q0 .384-.144.744t-.432.672q-.288.312-.648.48-.36.168-.744.168-.336 0-.696-.168-.36-.168-.672-.48-.312-.312-.456-.672-.144-.36-.144-.744v-2.832h-7.968q-.384 0-.768-.144t-.672-.408q-.288-.264-.456-.6-.168-.336-.168-.672Zm33.552 20.832q-.048-.24-.048-.48v-6.912q0-.096-.096-.192t-.24-.096h-10.512v4.608q0 1.536-.144 3.072h11.04Zm-15.072-7.68h-9.936q-.144 0-.24.096t-.096.192v6.912q0 .24-.048.48h10.128q.192-1.536.192-3.12v-4.56Zm38.256-8.88q0-.432.168-.768t.48-.6q.312-.264.672-.432.36-.168.744-.168h39.408q.384 0 .744.168t.648.432q.288.264.456.6.168.336.168.768 0 .336-.168.696-.168.36-.456.648-.288.288-.648.456-.36.168-.744.168h-5.856q.048.144.048.288.048.432-.096.816-2.256 5.856-5.328 10.56-2.4 3.696-5.328 6.768 2.928 2.4 6.336 4.368 4.512 2.64 9.84 4.32 1.152.336 1.488 1.296.336.96-.336 1.968v.048q-.336.432-1.032.72t-1.272.096q-5.856-1.776-10.752-4.608-4.032-2.304-7.392-5.28-3.408 2.928-7.488 5.232-4.896 2.784-10.848 4.8-.624.192-1.392-.096-.768-.288-1.104-.864-.288-.432-.336-.912-.048-.48.12-.912.168-.432.528-.768t.888-.528q5.52-1.824 10.08-4.32 3.552-2.016 6.576-4.512-3.024-3.168-5.472-6.96-3.072-4.704-5.328-10.176-.144-.384-.096-.816 0-.288.048-.528h-5.904q-.384 0-.744-.168t-.672-.456q-.312-.288-.48-.648-.168-.36-.168-.696Zm31.44 1.968h-19.776q2.016 4.848 4.848 9.072 2.352 3.552 5.376 6.576 2.736-2.832 4.896-6.24 2.688-4.224 4.656-9.408Zm-12.576-9.216q-.144-.432-.144-.888t.168-.864q.168-.408.48-.72.312-.312.696-.408l.48-.144q.576-.192 1.296.096.72.288.96.864.672 1.008 1.248 2.088t1.056 2.04q.144.336.096.72-.048.384-.216.72-.168.336-.456.6-.288.264-.624.408l-.528.144q-.384.096-.816.048-.432-.048-.816-.264-.384-.216-.672-.552-.288-.336-.432-.768-.336-.672-.792-1.512t-.984-1.608Zm38.112 37.296q-1.392 0-2.136-.696-.744-.696-.744-2.088 0-.768.24-1.416.24-.648.768-1.176l10.656-11.04q.768-.816 1.68-1.848.912-1.032 1.68-2.184.768-1.152 1.272-2.376t.504-2.424q0-1.68-.504-2.808t-1.416-1.824q-.912-.696-2.136-1.008-1.224-.312-2.664-.312-1.92 0-3.24.456-1.32.456-2.52 1.176-.864.528-1.704.168t-1.32-1.176q-.432-.768-.168-1.584.264-.816.984-1.344 1.536-1.104 3.456-1.56 1.92-.456 4.656-.456 2.256 0 4.248.456 1.992.456 3.48 1.56t2.376 2.976q.888 1.872.888 4.752 0 1.488-.48 3t-1.272 3q-.792 1.488-1.872 2.88t-2.28 2.688l-8.496 9.024q-.24.24-.12.552.12.312.936.312h12.336q1.104 0 1.632.528.528.528.528 1.632 0 1.104-.528 1.632-.528.528-1.632.528h-17.088Zm32.592-7.44q0-.864.312-1.608.312-.744.864-1.296t1.296-.864q.744-.312 1.608-.312.864 0 1.608.312.744.312 1.296.864t.864 1.296q.312.744.312 1.608 0 .816-.312 1.56-.312.744-.864 1.296t-1.296.888q-.744.336-1.608.336-.864 0-1.608-.336-.744-.336-1.296-.888t-.864-1.296q-.312-.744-.312-1.56Zm0-16.8q0-.864.312-1.608.312-.744.864-1.296t1.296-.864q.744-.312 1.608-.312.864 0 1.608.312.744.312 1.296.864t.864 1.296q.312.744.312 1.608 0 .816-.312 1.56-.312.744-.864 1.296t-1.296.888q-.744.336-1.608.336-.864 0-1.608-.336-.744-.336-1.296-.888t-.864-1.296q-.312-.744-.312-1.56Zm24.48 24.24q-1.104 0-1.632-.528-.528-.528-.528-1.632 0-1.104.528-1.632.528-.528 1.632-.528h7.824V94.584q0-.624-.144-.912-.144-.288-.432-.288-.192 0-.408.12-.216.12-.504.36l-4.704 3.744q-.672.528-1.2.792-.528.264-.912.264-.624 0-.912-.552-.288-.552-.288-1.656 0-1.056.288-1.656.288-.6.816-1.032l5.28-4.128q.816-.672 1.68-.936t1.92-.264q1.968 0 2.904.936.936.936.936 2.904v27.36h6.096q1.104 0 1.632.528.528.528.528 1.632 0 1.104-.528 1.632-.528.528-1.632.528H743.4Zm28.56-13.68q-1.104 0-1.632-.528-.528-.528-.528-1.632 0-1.104.528-1.632.528-.528 1.632-.528h17.28q1.104 0 1.632.528.528.528.528 1.632 0 1.104-.528 1.632-.528.528-1.632.528h-17.28Zm28.8 0q-1.104 0-1.632-.528-.528-.528-.528-1.632 0-1.104.528-1.632.528-.528 1.632-.528h17.28q1.104 0 1.632.528.528.528.528 1.632 0 1.104-.528 1.632-.528.528-1.632.528h-17.28Zm28.8 0q-1.104 0-1.632-.528-.528-.528-.528-1.632 0-1.104.528-1.632.528-.528 1.632-.528h17.28q1.104 0 1.632.528.528.528.528 1.632 0 1.104-.528 1.632-.528.528-1.632.528h-17.28Zm28.8 0q-1.104 0-1.632-.528-.528-.528-.528-1.632 0-1.104.528-1.632.528-.528 1.632-.528h17.28q1.104 0 1.632.528.528.528.528 1.632 0 1.104-.528 1.632-.528.528-1.632.528h-17.28Zm28.8 0q-1.104 0-1.632-.528-.528-.528-.528-1.632 0-1.104.528-1.632.528-.528 1.632-.528h17.28q1.104 0 1.632.528.528.528.528 1.632 0 1.104-.528 1.632-.528.528-1.632.528h-17.28Zm28.8 0q-1.104 0-1.632-.528-.528-.528-.528-1.632 0-1.104.528-1.632.528-.528 1.632-.528h17.28q1.104 0 1.632.528.528.528.528 1.632 0 1.104-.528 1.632-.528.528-1.632.528h-17.28Zm28.8 0q-1.104 0-1.632-.528-.528-.528-.528-1.632 0-1.104.528-1.632.528-.528 1.632-.528h17.28q1.104 0 1.632.528.528.528.528 1.632 0 1.104-.528 1.632-.528.528-1.632.528h-17.28Zm28.8 0q-1.104 0-1.632-.528-.528-.528-.528-1.632 0-1.104.528-1.632.528-.528 1.632-.528h17.28q1.104 0 1.632.528.528.528.528 1.632 0 1.104-.528 1.632-.528.528-1.632.528h-17.28Zm28.8 0q-1.104 0-1.632-.528-.528-.528-.528-1.632 0-1.104.528-1.632.528-.528 1.632-.528h17.28q1.104 0 1.632.528.528.528.528 1.632 0 1.104-.528 1.632-.528.528-1.632.528h-17.28Zm28.8 0q-1.104 0-1.632-.528-.528-.528-.528-1.632 0-1.104.528-1.632.528-.528 1.632-.528h17.28q1.104 0 1.632.528.528.528.528 1.632 0 1.104-.528 1.632-.528.528-1.632.528h-17.28Zm28.8 0q-1.104 0-1.632-.528-.528-.528-.528-1.632 0-1.104.528-1.632.528-.528 1.632-.528h17.28q1.1 0 1.63.528.53.528.53 1.632 0 1.104-.53 1.632-.53.528-1.63.528h-17.28Zm28.8 0q-1.1 0-1.63-.528-.53-.528-.53-1.632 0-1.104.53-1.632.53-.528 1.63-.528h17.28q1.1 0 1.63.528.53.528.53 1.632 0 1.104-.53 1.632-.53.528-1.63.528h-17.28Zm28.8 0q-1.1 0-1.63-.528-.53-.528-.53-1.632 0-1.104.53-1.632.53-.528 1.63-.528h17.28q1.1 0 1.63.528.53.528.53 1.632 0 1.104-.53 1.632-.53.528-1.63.528h-17.28Zm28.8 0q-1.1 0-1.63-.528-.53-.528-.53-1.632 0-1.104.53-1.632.53-.528 1.63-.528h17.28q1.1 0 1.63.528.53.528.53 1.632 0 1.104-.53 1.632-.53.528-1.63.528h-17.28Zm28.8 0q-1.1 0-1.63-.528-.53-.528-.53-1.632 0-1.104.53-1.632.53-.528 1.63-.528h17.28q1.1 0 1.63.528.53.528.53 1.632 0 1.104-.53 1.632-.53.528-1.63.528h-17.28Zm28.8 0q-1.1 0-1.63-.528-.53-.528-.53-1.632 0-1.104.53-1.632.53-.528 1.63-.528h17.28q1.1 0 1.63.528.53.528.53 1.632 0 1.104-.53 1.632-.53.528-1.63.528h-17.28ZM87.24 191.4v-40.8q0-1.104.528-1.632.528-.528 1.632-.528 1.104 0 1.632.528.528.528.528 1.632v40.8q0 1.104-.528 1.632-.528.528-1.632.528-1.104 0-1.632-.528-.528-.528-.528-1.632Zm28.176-3.6q-1.728 0-3.24-.576-1.512-.576-2.616-1.896-1.104-1.32-1.752-3.456-.648-2.136-.648-5.304 0-3.312.672-6.264.672-2.952 2.04-5.136 1.368-2.184 3.456-3.456 2.088-1.272 4.872-1.272 2.304 0 3.6 1.152 1.056.96 1.68 2.352.096-.72.192-1.392.192-1.2.816-1.656.624-.456 1.632-.456 1.152 0 1.608.504.456.504.264 1.608-.48 2.832-.72 5.592t-.168 5.568q.072 2.808.48 5.76t1.176 6.216q.24 1.056-.144 1.584t-1.488.528q-1.104 0-1.776-.528-.672-.528-.912-1.584-.576-2.352-.96-4.56-.288.864-.672 1.68-1.056 2.208-2.856 3.6-1.8 1.392-4.536 1.392Zm.432-4.32q1.488 0 2.76-.792 1.272-.792 2.184-2.232.912-1.44 1.44-3.456.528-2.016.528-4.464 0-1.152-.072-2.52t-.456-2.52q-.384-1.152-1.224-1.944t-2.424-.792q-1.488 0-2.784.936-1.296.936-2.256 2.568-.96 1.632-1.512 3.888-.552 2.256-.552 4.848 0 3.072 1.08 4.776 1.08 1.704 3.288 1.704Zm23.232 4.32q-1.104 0-1.632-.552-.528-.552-.528-1.656V153.96q0-1.104.528-1.632.528-.528 1.632-.528 1.104 0 1.632.528.528.528.528 1.632v11.472q.432-2.16 2.184-3.576 1.752-1.416 4.392-1.416 3.024 0 4.944 1.296t2.976 3.384q1.056 2.088 1.44 4.704.384 2.616.384 5.208 0 2.208-.336 4.488-.336 2.28-1.344 4.128-1.008 1.848-2.832 3-1.824 1.152-4.752 1.152-1.392 0-2.496-.384t-1.968-1.08q-.864-.696-1.512-1.656t-1.08-2.16v3.072q0 1.104-.528 1.656-.528.552-1.632.552Zm8.784-4.32q1.584 0 2.64-.648t1.656-1.824q.6-1.176.84-2.784.24-1.608.24-3.48 0-1.824-.192-3.624t-.84-3.216q-.648-1.416-1.848-2.28-1.2-.864-3.264-.864-1.296 0-2.376.72-1.08.72-1.848 1.824t-1.2 2.4q-.432 1.296-.432 2.448v5.28q0 1.152.552 2.232.552 1.08 1.464 1.92.912.84 2.112 1.368 1.2.528 2.496.528Zm25.776 7.92v-40.8q0-1.104.528-1.632.528-.528 1.632-.528 1.104 0 1.632.528.528.528.528 1.632v40.8q0 1.104-.528 1.632-.528.528-1.632.528-1.104 0-1.632-.528-.528-.528-.528-1.632Zm20.4-17.232q0-3.696.96-6.288t2.568-4.248q1.608-1.656 3.768-2.424 2.16-.768 4.56-.768 1.824 0 3.264.312 1.44.312 2.52.84t1.848 1.2q.768.672 1.2 1.392.672 1.104.504 1.92-.168.816-.984 1.296-.864.528-1.632.384-.768-.144-1.2-.864-.528-.816-1.824-1.488t-3.408-.672q-1.728 0-3.168.576-1.44.576-2.472 1.728-1.032 1.152-1.608 2.856-.576 1.704-.576 4.008 0 2.352.6 4.152.6 1.8 1.632 3t2.472 1.8q1.44.6 3.072.6 1.248 0 2.592-.312t2.064-1.032q.576-.576 1.416-.672.84-.096 1.656.576.288.288.456.648.168.36.168.792 0 .432-.24.936t-.72 1.08q-.624.768-1.488 1.224-.864.456-1.848.696-.984.24-2.04.312-1.056.072-2.112.072-2.64 0-4.848-.816-2.208-.816-3.792-2.472-1.584-1.656-2.472-4.248-.888-2.592-.888-6.096Zm47.28 13.632q-1.104 0-1.632-.552-.528-.552-.528-1.656v-3.072q-.432 1.2-1.08 2.16-.648.96-1.512 1.656t-1.968 1.08q-1.104.384-2.496.384-2.928 0-4.752-1.152-1.824-1.152-2.832-3-1.008-1.848-1.344-4.128-.336-2.28-.336-4.488 0-2.592.384-5.208t1.44-4.704q1.056-2.088 2.976-3.384 1.92-1.296 4.944-1.296 2.64 0 4.392 1.416 1.752 1.416 2.184 3.576V153.96q0-1.104.528-1.632.528-.528 1.632-.528 1.104 0 1.632.528.528.528.528 1.632v31.632q0 1.104-.528 1.656-.528.552-1.632.552Zm-8.784-4.32q1.296 0 2.496-.528t2.112-1.368q.912-.84 1.464-1.92.552-1.08.552-2.232v-5.28q0-1.152-.432-2.448t-1.2-2.4q-.768-1.104-1.848-1.824t-2.376-.72q-2.064 0-3.264.864-1.2.864-1.848 2.28-.648 1.416-.84 3.216-.192 1.8-.192 3.624 0 1.872.24 3.48.24 1.608.84 2.784.6 1.176 1.656 1.824 1.056.648 2.64.648Zm27.504 7.92v-40.8q0-1.104.528-1.632.528-.528 1.632-.528 1.104 0 1.632.528.528.528.528 1.632v40.8q0 1.104-.528 1.632-.528.528-1.632.528-1.104 0-1.632-.528-.528-.528-.528-1.632Zm38.592-10.416q.912 0 1.512.648t.6 1.464q0 .432-.216.84t-.792.984q-.768.72-1.632 1.248-.864.528-1.848.912-.984.384-2.064.552-1.08.168-2.28.168-2.784 0-4.968-.936t-3.696-2.688q-1.512-1.752-2.328-4.272-.816-2.52-.816-5.64 0-2.736.648-5.256t2.04-4.416q1.392-1.896 3.576-3.024 2.184-1.128 5.256-1.128 2.88 0 4.752.984 1.872.984 2.976 2.76 1.104 1.776 1.536 4.152.432 2.376.432 5.208 0 .864-.624 1.56-.624.696-1.632.696H284.52q.144 1.296.432 2.304.528 1.824 1.512 3t2.376 1.776q1.392.6 3.12.6 2.16 0 3.432-.672 1.272-.672 1.992-1.248.384-.336.624-.456t.624-.12Zm-14.112-9.024h11.712q.24 0 .504-.288t.264-1.296q0-1.008-.336-2.016t-1.056-1.8q-.72-.792-1.824-1.296t-2.64-.504q-1.728 0-3 .696t-2.088 1.92q-.816 1.224-1.2 2.856-.24.816-.336 1.728Zm44.688-2.88h-9.168v16.56q0 1.104-.528 1.632-.528.528-1.632.528-1.104 0-1.632-.528-.528-.528-.528-1.632v-16.56h-6.048q-.96 0-1.536-.6-.576-.6-.576-1.56 0-.96.576-1.56.576-.6 1.536-.6h6.048v-4.8q0-1.776.648-3.192.648-1.416 1.8-2.424 1.152-1.008 2.664-1.536 1.512-.528 3.24-.528h4.56q.96 0 1.584.6.624.6.624 1.56 0 .96-.624 1.56-.624.6-1.584.6h-4.56q-.96 0-1.728.312t-1.272.816q-.504.504-.768 1.104-.264.6-.264 1.128v4.8h9.168q.96 0 1.536.6.576.6.576 1.56 0 .96-.576 1.56-.576.6-1.536.6Zm17.232 22.32v-40.8q0-1.104.528-1.632.528-.528 1.632-.528 1.104 0 1.632.528.528.528.528 1.632v40.8q0 1.104-.528 1.632-.528.528-1.632.528-1.104 0-1.632-.528-.528-.528-.528-1.632Zm36.72-9.84q-.432 1.44-1.128 2.424t-1.584 1.632q-.888.648-1.992.936-1.104.288-2.352.288-2.88 0-4.68-1.2-1.8-1.2-2.808-3.072-1.008-1.872-1.392-4.2-.384-2.328-.384-4.536 0-2.256.384-4.608t1.44-4.32q1.056-1.968 2.976-3.216 1.92-1.248 4.944-1.248 2.64 0 4.272 1.344 1.632 1.344 2.304 3.648V162.6q0-1.104.528-1.632.528-.528 1.632-.528 1.104 0 1.632.528.528.528.528 1.632v24.72q0 3.024-.816 5.208t-2.232 3.6q-1.416 1.416-3.336 2.064-1.92.648-4.08.648-3.36 0-5.472-1.176-2.112-1.176-3.456-2.856-.384-.432-.528-.864-.144-.432-.144-.864 0-.384.144-.864t.432-.888q.288-.408.72-.672.432-.264.96-.264t.912.216q.384.216.72.648.528.624 1.2 1.224.672.6 1.464 1.056.792.456 1.704.72.912.264 1.92.264.864 0 1.848-.36.984-.36 1.824-1.2.84-.84 1.368-2.208.528-1.368.528-3.432v-5.76Zm-6.624 1.2q1.296 0 2.496-.552t2.112-1.464q.912-.912 1.464-2.016.552-1.104.552-2.256v-4.32q0-1.152-.432-2.496t-1.2-2.472q-.768-1.128-1.848-1.896t-2.376-.768q-2.064 0-3.264.864-1.2.864-1.848 2.184-.648 1.32-.84 2.904-.192 1.584-.192 3.072 0 1.536.192 3.168.192 1.632.768 2.976.576 1.344 1.632 2.208 1.056.864 2.784.864Zm24.144-10.608v13.488q0 1.104-.528 1.632-.528.528-1.632.528-1.104 0-1.632-.528-.528-.528-.528-1.632v-31.68q0-1.104.528-1.632.528-.528 1.632-.528 1.104 0 1.632.528.528.528.528 1.632v11.472q.672-2.304 2.304-3.648 1.632-1.344 4.272-1.344 1.92 0 3.528.648t2.784 1.848q1.176 1.2 1.824 2.88.648 1.68.648 3.744v16.08q0 1.104-.528 1.632-.528.528-1.632.528-1.104 0-1.632-.528-.528-.528-.528-1.632v-14.832q0-1.248-.336-2.376t-.984-1.992q-.648-.864-1.608-1.392-.96-.528-2.256-.528-1.296 0-2.376.768-1.08.768-1.848 1.896t-1.2 2.472q-.432 1.344-.432 2.496Zm32.16 19.248v-40.8q0-1.104.528-1.632.528-.528 1.632-.528 1.104 0 1.632.528.528.528.528 1.632v40.8q0 1.104-.528 1.632-.528.528-1.632.528-1.104 0-1.632-.528-.528-.528-.528-1.632Zm41.136-8.4q.96 0 1.512.6t.552 1.56q0 .96-.552 1.56-.552.6-1.512.6h-18.432q-.96 0-1.512-.6t-.552-1.56q0-.96.552-1.56.552-.6 1.512-.6h7.296v-14.88q0-.96-.48-1.44t-1.44-.48h-4.368q-.96 0-1.536-.6-.576-.6-.576-1.56 0-.96.576-1.56.576-.6 1.536-.6h6.768q1.968 0 2.904.936.936.936.936 2.904V183h6.816Zm-9.216-25.872q-1.584 0-2.496-.816-.912-.816-.912-2.208 0-1.44.912-2.28.912-.84 2.496-.84t2.496.84q.912.84.912 2.28 0 1.392-.912 2.208-.912.816-2.496.816ZM495 168.12q0-.96-.48-1.44t-1.44-.48h-6.48q-.96 0-1.56-.6-.6-.6-.6-1.56 0-.912.6-1.536t1.56-.624h8.88q1.968 0 2.904.936.936.936.936 2.904v23.184q0 2.256-.744 4.08-.744 1.824-2.04 3.12t-3.048 2.016q-1.752.72-3.768.72-1.392 0-2.616-.336-1.224-.336-2.28-.936-1.056-.6-1.968-1.416-.912-.816-1.728-1.728-.288-.288-.408-.648-.12-.36-.12-.696 0-.768.552-1.632.552-.864 1.656-.864.672 0 1.176.408.504.408 1.032.984.816.96 1.92 1.752t2.784.792q1.008 0 1.968-.336t1.68-.96q.72-.624 1.176-1.536.456-.912.456-2.112V168.12Zm1.44-10.992q-1.584 0-2.496-.816-.912-.816-.912-2.208 0-1.44.912-2.28.912-.84 2.496-.84t2.496.84q.912.84.912 2.28 0 1.392-.912 2.208-.912.816-2.496.816Zm22.8 34.272v-40.8q0-1.104.528-1.632.528-.528 1.632-.528 1.104 0 1.632.528.528.528.528 1.632v40.8q0 1.104-.528 1.632-.528.528-1.632.528-1.104 0-1.632-.528-.528-.528-.528-1.632Zm25.68-5.76q0 1.104-.528 1.632-.528.528-1.632.528-1.104 0-1.632-.528-.528-.528-.528-1.632v-31.68q0-1.104.528-1.632.528-.528 1.632-.528 1.104 0 1.632.528.528.528.528 1.632v18.336l10.8-10.848q.528-.528 1.08-.768t1.176-.24q.672 0 1.152.288.48.288.696.744.216.456.12.984t-.576 1.008l-7.2 7.344 8.496 14.304q.336.528.336 1.032t-.216.864q-.216.36-.6.576-.384.216-.816.216-.816 0-1.584-.168-.768-.168-1.344-1.176l-7.344-12.48-4.176 4.224v7.44Zm34.512-9.072q0 3.456 1.032 5.184 1.032 1.728 3.048 1.728.96 0 1.872-.144.912-.144 2.016-.672.96-.528 1.704-.264t1.272 1.176q.576.96.36 1.752-.216.792-1.128 1.272-1.44.768-3.12.984-1.68.216-3.696.216-1.728 0-3.144-.624-1.416-.624-2.424-1.896-1.008-1.272-1.56-3.24-.552-1.968-.552-4.656l.048-19.248q0-.96-.48-1.44t-1.44-.48h-3.552q-.96 0-1.464-.504t-.504-1.464q0-.96.504-1.464t1.464-.504h5.952q1.968 0 2.904.936.936.936.936 2.904l-.048 20.448ZM605.64 191.4v-40.8q0-1.104.528-1.632.528-.528 1.632-.528 1.104 0 1.632.528.528.528.528 1.632v40.8q0 1.104-.528 1.632-.528.528-1.632.528-1.104 0-1.632-.528-.528-.528-.528-1.632Zm21.504-4.08q-.96 0-1.632-.48-.672-.48-.672-1.536V162.36q0-.912.624-1.416.624-.504 1.536-.504.96 0 1.56.504.6.504.6 1.416v1.68q.528-1.68 1.416-2.64.888-.96 2.856-.96 2.064 0 3.264 1.08 1.2 1.08 1.44 2.52.384-1.536 1.44-2.568t3.216-1.032q1.488 0 2.544.528t1.728 1.464q.672.936.984 2.16.312 1.224.312 2.664v18.048q0 1.056-.648 1.536t-1.608.48q-.96 0-1.608-.48-.648-.48-.648-1.536v-17.616q0-1.296-.552-2.376-.552-1.08-2.088-1.08-1.488 0-2.04 1.056t-.552 2.352v17.904q0 .96-.576 1.368-.576.408-1.44.408t-1.44-.408q-.576-.408-.576-1.368v-17.856q0-1.248-.528-2.352-.528-1.104-2.064-1.104-1.488 0-2.064 1.032-.576 1.032-.576 2.376v17.664q0 1.056-.624 1.536t-1.584.48Zm32.736-15.168v13.488q0 1.104-.528 1.632-.528.528-1.632.528-1.104 0-1.632-.528-.528-.528-.528-1.632V162.6q0-1.104.528-1.632.528-.528 1.632-.528 1.104 0 1.632.528.528.528.528 1.632v2.832q.672-2.304 2.304-3.648 1.632-1.344 4.272-1.344 1.92 0 3.528.648t2.784 1.848q1.176 1.2 1.824 2.88.648 1.68.648 3.744v16.08q0 1.104-.528 1.632-.528.528-1.632.528-1.104 0-1.632-.528-.528-.528-.528-1.632v-14.832q0-1.248-.336-2.376t-.984-1.992q-.648-.864-1.608-1.392-.96-.528-2.256-.528-1.296 0-2.376.768-1.08.768-1.848 1.896t-1.2 2.472q-.432 1.344-.432 2.496Zm32.16 19.248v-40.8q0-1.104.528-1.632.528-.528 1.632-.528 1.104 0 1.632.528.528.528.528 1.632v40.8q0 1.104-.528 1.632-.528.528-1.632.528-1.104 0-1.632-.528-.528-.528-.528-1.632Zm30.96-3.6q-2.784 0-4.8-1.032t-3.36-2.856q-1.344-1.824-1.992-4.344-.648-2.52-.648-5.496 0-2.976.624-5.472.624-2.496 1.968-4.296 1.344-1.8 3.384-2.832 2.04-1.032 4.824-1.032 2.832 0 4.872 1.032t3.36 2.832q1.32 1.8 1.944 4.296.624 2.496.624 5.472 0 2.976-.648 5.496-.648 2.52-1.968 4.344-1.32 1.824-3.36 2.856-2.04 1.032-4.824 1.032Zm0-4.32q1.68 0 2.904-.696t2.016-1.92q.792-1.224 1.176-2.976.384-1.752.384-3.816t-.36-3.768q-.36-1.704-1.152-2.928-.792-1.224-2.016-1.92T723 164.76q-1.728 0-2.952.696t-2.016 1.92q-.792 1.224-1.152 2.952-.36 1.728-.36 3.792t.384 3.792q.384 1.728 1.176 2.952.792 1.224 2.016 1.92t2.904.696Zm20.88-23.04q1.104 0 1.632.552.528.552.528 1.656v3.072q.432-1.2 1.08-2.16.648-.96 1.512-1.656t1.968-1.08q1.104-.384 2.496-.384 2.928 0 4.752 1.152 1.824 1.152 2.832 3 1.008 1.848 1.344 4.104.336 2.256.336 4.512 0 2.592-.384 5.184t-1.44 4.68q-1.056 2.088-2.976 3.408-1.92 1.32-4.944 1.32-2.64 0-4.392-1.416-1.752-1.416-2.184-3.576v11.472q0 1.104-.528 1.632-.528.528-1.632.528-1.104 0-1.632-.528-.528-.528-.528-1.632v-31.632q0-1.104.528-1.656.528-.552 1.632-.552Zm8.784 4.32q-1.296 0-2.496.528t-2.112 1.368q-.912.84-1.464 1.92-.552 1.08-.552 2.232v5.28q0 1.152.432 2.448t1.2 2.4q.768 1.104 1.848 1.824t2.376.72q2.064 0 3.264-.864 1.2-.864 1.848-2.28.648-1.416.84-3.216.192-1.8.192-3.624 0-1.872-.24-3.48-.24-1.608-.84-2.784-.6-1.176-1.656-1.824-1.056-.648-2.64-.648Zm25.776 26.64v-40.8q0-1.104.528-1.632.528-.528 1.632-.528 1.104 0 1.632.528.528.528.528 1.632v40.8q0 1.104-.528 1.632-.528.528-1.632.528-1.104 0-1.632-.528-.528-.528-.528-1.632Zm38.88-30.96q1.104 0 1.632.552.528.552.528 1.656v31.632q0 1.104-.528 1.632-.528.528-1.632.528-1.104 0-1.632-.528-.528-.528-.528-1.632v-11.472q-.432 2.16-2.184 3.576-1.752 1.416-4.392 1.416-3.024 0-4.944-1.32t-2.976-3.408q-1.056-2.088-1.44-4.68-.384-2.592-.384-5.184 0-2.256.336-4.512t1.344-4.104q1.008-1.848 2.832-3 1.824-1.152 4.752-1.152 1.392 0 2.496.384t1.968 1.08q.864.696 1.512 1.656t1.08 2.16v-3.072q0-1.104.528-1.656.528-.552 1.632-.552Zm-8.784 4.32q-1.584 0-2.64.648t-1.656 1.824q-.6 1.176-.84 2.784-.24 1.608-.24 3.48 0 1.824.192 3.624t.84 3.216q.648 1.416 1.848 2.28 1.2.864 3.264.864 1.296 0 2.376-.72 1.08-.72 1.848-1.824t1.2-2.4q.432-1.296.432-2.448v-5.28q0-1.152-.552-2.232-.552-1.08-1.464-1.92-.912-.84-2.112-1.368-1.2-.528-2.496-.528Zm22.704 23.04q-1.104 0-1.632-.528-.528-.528-.528-1.632V162.6q0-1.104.528-1.632.528-.528 1.632-.528 1.104 0 1.632.528.528.528.528 1.632v2.832q.816-2.304 3.048-3.648 2.232-1.344 5.784-1.344 2.16 0 3.528.768 1.368.768 2.136 2.064t1.056 3.024q.288 1.728.288 3.648v.576q0 1.104-.528 1.632-.528.528-1.632.528-1.104 0-1.632-.528-.528-.528-.528-1.632v-.576q0-1.104-.144-2.136t-.576-1.848q-.432-.816-1.248-1.296-.816-.48-2.208-.48-1.248 0-2.544.432t-2.376 1.248q-1.08.816-1.752 1.992-.672 1.176-.672 2.664v15.12q0 1.104-.528 1.632-.528.528-1.632.528Zm33.6 3.6v-40.8q0-1.104.528-1.632.528-.528 1.632-.528 1.104 0 1.632.528.528.528.528 1.632v40.8q0 1.104-.528 1.632-.528.528-1.632.528-1.104 0-1.632-.528-.528-.528-.528-1.632Zm31.008-3.6q-1.44 0-2.784-.192-1.344-.192-2.52-.648t-2.256-1.2q-1.08-.744-2.04-1.848-.48-.528-.72-1.2-.24-.672-.24-1.344 0-1.056.576-1.44.576-.384 1.248-.384.528 0 .96.192.432.192.96.672.816.768 1.536 1.344.72.576 1.488.96t1.68.576q.912.192 2.064.192.816 0 1.896-.096t2.04-.456q.96-.36 1.632-1.032.672-.672.672-1.776 0-1.44-.936-2.208-.936-.768-2.328-1.248l-7.152-2.304q-1.008-.336-1.944-.816-.936-.48-1.704-1.248-.768-.768-1.224-1.848-.456-1.08-.456-2.616 0-2.016.792-3.408t2.112-2.28q1.32-.888 3.048-1.296 1.728-.408 3.552-.408 3.12 0 5.664 1.032 2.544 1.032 3.792 3.048.336.528.456.96.12.432.12.768 0 .768-.48 1.344-.48.576-1.44.576-.432 0-1.008-.168-.576-.168-1.104-.696-1.152-1.152-2.472-1.848-1.32-.696-3.528-.696-1.056 0-1.992.168-.936.168-1.656.552-.72.384-1.128.936-.408.552-.408 1.368 0 .912.528 1.56t1.44.984l7.152 2.448q1.344.432 2.544 1.032 1.2.6 2.112 1.44.912.84 1.44 2.04.528 1.2.528 2.88 0 2.112-.864 3.576t-2.304 2.352q-1.44.888-3.336 1.296-1.896.408-4.008.408Zm37.344-25.92q.96 0 1.464.6t.504 1.56q0 .96-.504 1.56-.504.6-1.464.6h-8.832v10.368q0 3.456 1.032 5.184 1.032 1.728 3.048 1.728.96 0 1.872-.144.912-.144 2.016-.672.96-.528 1.704-.264t1.272 1.176q.576.96.36 1.752-.216.792-1.128 1.272-1.44.768-3.12.984-1.68.216-3.696.216-1.728 0-3.144-.624-1.416-.624-2.424-1.896-1.008-1.272-1.56-3.24-.552-1.968-.552-4.656V166.2h-5.616q-.96 0-1.464-.6t-.504-1.56q0-.96.504-1.56.504-.6 1.464-.6h5.616v-6.24q0-1.104.528-1.632.528-.528 1.632-.528 1.104 0 1.632.528.528.528.528 1.632v6.24h8.832Zm18.048 29.52v-40.8q0-1.104.528-1.632.528-.528 1.632-.528 1.104 0 1.632.528.528.528.528 1.632v40.8q0 1.104-.528 1.632-.528.528-1.632.528-1.104 0-1.632-.528-.528-.528-.528-1.632Zm36.48-15.312V162.6q0-1.104.528-1.632.528-.528 1.632-.528 1.104 0 1.632.528.528.528.528 1.632v23.04q0 1.104-.528 1.632-.528.528-1.632.528-1.104 0-1.632-.528-.528-.528-.528-1.632v-2.832q-.672 2.304-2.304 3.648-1.632 1.344-4.272 1.344-1.92 0-3.528-.648t-2.784-1.848q-1.176-1.2-1.824-2.88-.648-1.68-.648-3.744V162.6q0-1.104.528-1.632.528-.528 1.632-.528 1.104 0 1.632.528.528.528.528 1.632v14.832q0 1.248.336 2.376T978 181.8q.648.864 1.608 1.392.96.528 2.256.528 1.296 0 2.376-.768 1.08-.768 1.848-1.896t1.2-2.472q.432-1.344.432-2.496Zm20.256 9.408-7.824-22.56q-.144-.48-.072-.912.072-.432.336-.792.264-.36.72-.576.456-.216 1.032-.216.816 0 1.416.432t.888 1.248l5.808 16.8q.24.72.72.72t.72-.72l5.808-16.8q.288-.816.888-1.248.6-.432 1.416-.432.576 0 1.032.216.456.216.72.576.264.36.336.792.072.432-.072.912l-7.824 22.56q-.384 1.152-1.08 1.728-.696.576-1.944.576-1.2 0-1.92-.576t-1.104-1.728Zm29.664 5.904v-40.8q0-1.104.528-1.632.528-.528 1.632-.528 1.104 0 1.632.528.528.528.528 1.632v40.8q0 1.104-.528 1.632-.528.528-1.632.528-1.104 0-1.632-.528-.528-.528-.528-1.632Zm25.104-4.08q-1.392 0-2.184-.672-.792-.672-1.032-2.064l-3.504-21.312q-.192-1.2.288-1.776.48-.576 1.632-.576 1.056 0 1.608.48t.696 1.44l2.448 17.76q.096.48.168.48.072 0 .168-.48l2.64-12.048q.24-1.2.96-1.776.72-.576 1.968-.576t1.968.576q.72.576.96 1.776l2.64 12.048q.096.48.168.48.072 0 .168-.48l2.446-17.76q.15-.96.7-1.44.55-.48 1.61-.48 1.15 0 1.63.576t.29 1.776l-3.51 21.312q-.24 1.392-1.01 2.064-.76.672-2.156.672-1.392 0-2.232-.648-.84-.648-1.128-2.04l-2.352-11.232q-.096-.48-.192-.48t-.192.48l-2.352 11.232q-.288 1.392-1.104 2.04-.816.648-2.208.648Zm44.256-24-7.06 10.416 7.59 11.232q.48.672.48 1.2 0 .528-.31.888-.32.36-.82.552-.5.192-1.03.192-.77 0-1.37-.36-.6-.36-1.08-1.08l-6-8.88-6 8.88q-.48.672-1.08 1.056-.6.384-1.37.384-.53 0-1.03-.192t-.82-.552q-.31-.36-.31-.888t.48-1.2l7.59-11.232-7.06-10.416q-.48-.72-.48-1.272t.31-.912q.31-.36.82-.528.5-.168 1.03-.168.82 0 1.42.384t1.08 1.056l5.42 8.064 5.42-8.064q.48-.72 1.11-1.08.62-.36 1.44-.36.53 0 1.03.168t.79.528q.29.36.29.912t-.48 1.272Zm17.04 28.08v-40.8q0-1.104.53-1.632.53-.528 1.63-.528 1.1 0 1.63.528.53.528.53 1.632v40.8q0 1.104-.53 1.632-.53.528-1.63.528-1.1 0-1.63-.528-.53-.528-.53-1.632Zm28.7-3.552.34-.96-8.4-22.752q-.14-.384-.24-.768-.1-.384-.1-.768 0-.864.56-1.272.55-.408 1.65-.408.82 0 1.25.264.43.264.62.792l6.92 18.72 6.72-18.72q.19-.528.62-.792t1.25-.264q1.1 0 1.65.432.56.432.56 1.296 0 .336-.08.696-.07.36-.21.792l-8.26 23.664q-.33 1.008-.93 2.28-.6 1.272-1.32 2.544-.72 1.272-1.56 2.376-.84 1.104-1.76 1.728-1.1.816-2.54 1.2t-2.64.384q-1.25 0-1.82-.504-.58-.504-.58-1.608v-.048q0-1.056.55-1.608t1.71-.552q.76 0 1.56-.264.79-.264 1.46-.84.67-.576 1.13-1.128.45-.552.79-1.152.34-.6.58-1.272.24-.672.52-1.488Zm23.86-.528q-1.44 0-2.16-.72-.72-.72-.72-2.112 0-.768.22-1.392.21-.624.69-1.2l12.67-15.168q.24-.288.36-.504.12-.216.12-.408 0-.288-.28-.432-.29-.144-.92-.144h-10.36q-.96 0-1.54-.6-.58-.6-.58-1.56 0-.96.58-1.56.58-.6 1.54-.6h14.25q1.44 0 2.16.72.72.72.72 2.112 0 .768-.21 1.416-.22.648-.7 1.176l-12.91 15.168q-.24.288-.36.528-.12.24-.12.432 0 .24.29.384.28.144.86.144h11.57q.96 0 1.53.6.58.6.58 1.56 0 .96-.58 1.56-.57.6-1.53.6h-15.17Zm33.84 4.08v-40.8q0-1.104.53-1.632.53-.528 1.63-.528 1.1 0 1.63.528.53.528.53 1.632v40.8q0 1.104-.53 1.632-.53.528-1.63.528-1.1 0-1.63-.528-.53-.528-.53-1.632ZM87.24 254.76v-40.8q0-1.104.528-1.632.528-.528 1.632-.528 1.104 0 1.632.528.528.528.528 1.632v40.8q0 1.104-.528 1.632-.528.528-1.632.528-1.104 0-1.632-.528-.528-.528-.528-1.632Zm35.472-35.232q0-.336.192-.672t.48-.6q.288-.264.672-.432.384-.168.768-.168h13.296q-.432-.048-.816-.264-.384-.216-.672-.552-.288-.336-.432-.72-.288-.624-.72-1.368-.432-.744-.864-1.368-.192-.432-.192-.888t.168-.864q.168-.408.48-.72.312-.312.744-.456h.048q.576-.192 1.296.096.72.288 1.008.816.576.864 1.128 1.848.552.984.984 1.848.096.336.072.72-.024.384-.168.72-.144.336-.408.6-.264.264-.6.36l-.192.096q-.288.096-.576.096h13.488q.384 0 .768.168t.672.432q.288.264.456.6.168.336.168.672 0 .384-.168.72-.168.336-.456.6-.288.264-.672.432-.384.168-.768.168h-3.984q-1.344 4.416-3.312 8.064-1.344 2.592-3.072 4.8 2.256 1.728 4.32 3.456 2.736 2.16 4.8 4.032.336.288.504.672.168.384.168.792 0 .408-.144.816t-.432.696l-.048.048q-.288.288-.672.408-.384.12-.792.12-.408 0-.792-.12-.384-.12-.672-.408-1.92-1.824-4.464-3.984-2.064-1.728-4.32-3.552-2.256 2.304-4.944 4.224-3.264 2.352-7.296 4.08-.672.336-1.488.096-.816-.24-1.152-.768-.576-.816-.216-1.728t1.368-1.392q6.288-2.64 10.656-6.96-1.872-1.44-3.792-2.928-3.024-2.208-5.856-4.224-.336-.288-.576-.672-.24-.384-.288-.792-.048-.408.072-.816t.456-.696q.384-.336 1.104-.336.72 0 1.2.288 2.832 1.968 5.952 4.176 2.112 1.536 4.224 3.12 3.408-4.416 5.328-10.512h-18.912q-.384 0-.768-.168t-.672-.432q-.288-.264-.48-.6-.192-.336-.192-.72Zm-3.936 8.784q.384 0 .768.168t.672.456q.288.288.456.672.168.384.168.768v14.64q0 .192-.048.384.384.192.72.432 1.152.768 3.072 1.776 2.304 1.296 5.472 1.632 3.168.336 7.056.336 1.632 0 3.504-.024t3.768-.096q1.896-.072 3.768-.192 1.872-.12 3.6-.264 1.2-.144 1.824.624.624.768.336 1.872-.144.624-.768 1.152-.624.528-1.344.624-1.488.096-3.312.144-1.824.048-3.768.12-1.944.072-3.936.096-1.992.024-3.816.024-4.32 0-7.488-.48t-5.664-1.776q-1.536-.864-2.688-1.656-1.152-.792-1.968-.792-.864 0-2.04.864-1.176.864-2.472 2.256-.336.384-.768.576-.432.192-.864.216-.432.024-.864-.168t-.72-.672l-.192-.24q-.192-.288-.288-.648-.096-.36-.048-.744t.192-.72q.144-.336.432-.528 2.064-1.824 3.936-2.928.768-.48 1.584-.768-.096-.24-.096-.432v-12.672q0-.096-.096-.192t-.192-.096h-3.696q-.336 0-.72-.168-.384-.168-.696-.432-.312-.264-.48-.6-.168-.336-.168-.72 0-.336.168-.672t.48-.6q.312-.264.696-.408.384-.144.72-.144h5.808Zm-5.664-12.048q-.336-.384-.48-.792-.144-.408-.12-.864.024-.456.216-.84.192-.384.528-.624.432-.288 1.2-.216.768.072 1.152.456 1.296 1.104 2.544 2.352 1.248 1.248 2.112 2.4.24.288.336.672.096.384.048.744t-.216.696q-.168.336-.456.576h-.048q-.336.24-.768.312-.432.072-.888-.024t-.84-.312q-.384-.216-.624-.552-.72-.96-1.704-1.992t-1.992-1.992Zm60.528 38.496v-40.8q0-1.104.528-1.632.528-.528 1.632-.528 1.104 0 1.632.528.528.528.528 1.632v40.8q0 1.104-.528 1.632-.528.528-1.632.528-1.104 0-1.632-.528-.528-.528-.528-1.632Zm27.024-36.384q0-.384.168-.744t.456-.648q.288-.288.648-.48.36-.192.744-.192h.096q.384 0 .72.192.144.048.24.144.144-.096.336-.144.384-.192.768-.192h15.12q-.24-.288-.336-.576-.288-.624-.624-1.296t-.768-1.344q-.144-.432-.12-.864.024-.432.192-.84t.48-.696q.312-.288.744-.384l.24-.048q.576-.192 1.272.168.696.36.936.936.48.816.912 1.656.432.84.768 1.56.192.384.144.792-.048.408-.24.744l-.096.192h14.784q.384 0 .744.168t.672.432q.312.264.48.6.168.336.168.696 0 .36-.168.72t-.48.624q-.312.264-.672.432-.36.168-.744.168h-33.504v9.264q0 2.448-.12 5.376-.12 2.928-.504 6t-1.056 6.072q-.672 3-1.776 5.688-.192.48-.528.792-.336.312-.768.432t-.864.12q-.432 0-.768-.24-.624-.384-.864-1.296t.096-1.728q1.056-2.496 1.656-5.16.6-2.664.936-5.376.336-2.712.408-5.424.072-2.712.072-5.256v-11.04Zm32.928 7.008q.096-.384.36-.744t.648-.552q.384-.192.84-.264.456-.072.84.12l.24.048q.336.144.6.408.264.264.432.624.168.36.24.744.072.384-.072.768-1.728 5.808-4.32 11.712-2.352 5.424-5.184 10.368h10.656q.384 0 .744.144t.672.432q.312.288.48.624.168.336.168.696 0 .36-.168.696-.168.336-.48.6-.312.264-.672.456-.36.192-.744.192h-31.728q-.384 0-.744-.192t-.672-.456q-.312-.264-.48-.6-.168-.336-.168-.696 0-.36.168-.696.168-.336.48-.624.312-.288.672-.432.36-.144.744-.144h17.136q.048-.576.336-1.008 1.488-2.496 2.784-5.256 1.296-2.76 2.448-5.592t2.088-5.712q.936-2.88 1.656-5.664Zm-25.296 3.648q-.144-.336-.12-.744.024-.408.168-.768.144-.36.408-.648.264-.288.576-.432.312-.144.696-.096.384.048.768.216.384.168.672.48.288.312.384.696.624 1.536 1.224 3.216.6 1.68 1.176 3.312t1.056 3.216q.48 1.584.816 2.976.096.288.048.648-.048.36-.192.696-.144.336-.408.6-.264.264-.552.36v.048q-.432.144-.864.12-.432-.024-.816-.264-.384-.24-.696-.576-.312-.336-.408-.816-.336-1.344-.792-2.88-.456-1.536-.984-3.12t-1.08-3.168q-.552-1.584-1.08-3.072Zm10.176-2.592q-.144-.384-.096-.792.048-.408.24-.768.192-.36.48-.624t.672-.36q.336-.096.696-.024.36.072.672.264.312.192.576.504.264.312.408.648.48 1.584.936 3.24.456 1.656.888 3.312t.768 3.216q.336 1.56.624 3 .096.288 0 .672-.096.384-.288.672-.192.288-.48.528-.288.24-.576.336-.432.144-.84.048-.408-.096-.768-.336-.36-.24-.624-.576-.264-.336-.312-.816-.24-1.344-.6-2.856-.36-1.512-.744-3.072t-.816-3.144q-.432-1.584-.816-3.072Zm41.568 28.32v-40.8q0-1.104.528-1.632.528-.528 1.632-.528 1.104 0 1.632.528.528.528.528 1.632v40.8q0 1.104-.528 1.632-.528.528-1.632.528-1.104 0-1.632-.528-.528-.528-.528-1.632Zm38.688-36.576q0-.336.168-.672t.456-.6q.288-.264.672-.408.384-.144.768-.144h11.328q-.24-.288-.384-.672-.192-.576-.528-1.272-.336-.696-.72-1.368-.144-.384-.096-.816.048-.432.216-.792.168-.36.504-.624.336-.264.768-.36l.24-.096q.576-.144 1.248.168t.912.888q.48.768.912 1.704.432.936.672 1.656.144.336.096.72-.048.384-.24.72-.048.048-.096.144h9.024q.432 0 .792.144.36.144.648.408.288.264.48.6.192.336.192.672t-.192.672q-.192.336-.48.624t-.648.432q-.36.144-.792.144h-11.424q-.048.48-.336.96-.768 1.056-1.632 2.304-.864 1.248-1.776 2.472t-1.728 2.328q-.192.192-.336.384l6.912-.384q.576-.048 1.008.144.24.096.432.24 1.296-1.632 2.304-3.264.336-.576 1.104-.888.768-.312 1.392-.072.432.144.72.456.288.312.408.744t.096.864q-.024.432-.312.816-1.632 2.4-3.672 4.704t-4.392 4.368q-2.352 2.064-5.04 3.888-2.688 1.824-5.568 3.264-.624.288-1.416.12-.792-.168-1.128-.648-.528-.768-.168-1.656.36-.888 1.32-1.368 2.64-1.344 5.064-3t4.584-3.528q.96-.816 1.824-1.68-1.296.096-2.4.192-1.776.144-3.096.24t-2.208.168q-.888.072-1.512.168-.48.096-.984 0t-.888-.336q-.096 0-.192-.048-.048-.048-.096-.048-.384-.144-.696-.408-.312-.264-.456-.6-.24-.72.288-1.464t1.344-1.176q.144-.096.24-.096t.192-.024q.096-.024.264-.168.168-.144.504-.48.432-.384 1.248-1.416.816-1.032 1.728-2.28l1.824-2.496.864-1.296h-8.064q-.384 0-.768-.144t-.672-.432q-.288-.288-.456-.624-.168-.336-.168-.672Zm16.56 28.32q-.144-.096-.24-.192-.144.096-.24.192-3.12 2.304-6.624 4.248-3.504 1.944-7.344 3.432-.576.24-1.344 0-.768-.24-1.056-.72-.288-.432-.336-.864-.048-.432.12-.864.168-.432.552-.768t.864-.528q3.504-1.392 6.744-3.192 3.24-1.8 6.048-3.912t5.112-4.488q2.304-2.376 4.032-4.92.384-.576 1.152-.864.768-.288 1.392-.048l.288.144q.384.144.696.48.312.336.432.744t.048.84q-.072.432-.312.816-2.064 2.928-4.752 5.52-1.2 1.248-2.544 2.4.72.576 1.488 1.152 1.056.864 2.088 1.704t1.968 1.632q.936.792 1.752 1.512.336.288.48.648.144.36.144.792 0 .432-.144.816-.144.384-.48.624-.288.24-.648.312-.36.072-.792.048-.432-.024-.792-.168-.36-.144-.648-.432-.72-.672-1.56-1.44-.84-.768-1.776-1.536t-1.896-1.56q-.96-.792-1.872-1.56Zm-21.888 5.328q-.528.384-1.056.528-.144.048-.288.048-.048.048-.096.048-.432.288-.864.36-.432.072-.816-.024-.384-.096-.624-.432-.192-.192-.216-.552-.024-.36.024-.792.048-.432.192-.864.144-.432.336-.816.192-.288.384-.456.192-.168.336-.432.144-.264.24-.72.096-.456.096-1.368v-17.328h-5.424q-.384 0-.768-.168t-.672-.432q-.288-.264-.456-.624-.168-.36-.168-.72t.168-.696q.168-.336.456-.624.288-.288.672-.456.384-.168.768-.168h7.392q.336 0 .72.192.336.144.576.48.288.24.432.576.192.336.192.72v19.056l2.064-1.44q.432-.288.888-.384.456-.096.888-.024.432.072.768.336t.432.696q.192.432-.048 1.128t-.768 1.08q-2.256 1.584-3.6 2.592-1.344 1.008-2.16 1.68Zm-5.424-37.152q-.48-.672-.408-1.536.072-.864.648-1.296.288-.192.648-.264.36-.072.72 0t.72.24q.36.168.6.456 1.2 1.248 2.448 2.592t2.112 2.496q.384.528.264 1.296t-.552 1.152q-.384.288-.816.36-.432.072-.864-.024t-.84-.36q-.408-.264-.696-.648-.768-1.056-1.848-2.232-1.08-1.176-2.136-2.232Zm58.464 40.08v-40.8q0-1.104.528-1.632.528-.528 1.632-.528 1.104 0 1.632.528.528.528.528 1.632v40.8q0 1.104-.528 1.632-.528.528-1.632.528-1.104 0-1.632-.528-.528-.528-.528-1.632Zm29.088-40.512q0-.384.168-.744t.48-.672q.312-.312.696-.48.384-.168.72-.168h28.272q.384 0 .768.168t.672.48q.288.312.456.672.168.36.168.744v11.904q0 .384-.168.768t-.456.672q-.288.288-.672.456-.384.168-.768.168h-28.272q-.336 0-.72-.168-.384-.168-.696-.456-.312-.288-.48-.672-.168-.384-.168-.768v-11.904Zm-4.896 18.816q0-.336.168-.648t.456-.552q.288-.24.672-.408.384-.168.768-.168H411q.384 0 .768.168t.672.408q.288.24.456.552.168.312.168.672 0 .36-.168.672-.168.312-.456.576-.288.264-.672.408-.384.144-.768.144h-16.752v4.992h13.632q.384 0 .768.168t.672.408q.288.24.456.552.168.312.168.648t-.168.648q-.168.312-.456.576-.288.264-.672.408-.384.144-.768.144h-13.632V249q0 .336-.096.672 2.4.24 5.376.24h4.848q1.632 0 3.36-.024t3.072-.024q1.248 0 1.872.744.624.744.336 1.752-.144.48-.768.912-.624.432-1.296.432h-11.568q-3.936 0-7.104-.408t-5.712-1.488q-2.544-1.08-4.464-3-1.248-1.248-2.304-2.976-.384.768-.816 1.488-2.064 3.6-5.04 6.144-.288.24-.648.36-.36.12-.72.12t-.696-.12q-.336-.12-.576-.36-.72-.624-.576-1.632.144-1.008.912-1.824 2.496-2.112 4.128-5.04 1.632-2.928 2.496-6.672.096-.336.336-.672.24-.336.576-.576.336-.24.696-.36.36-.12.744-.072t.72.288q.336.24.552.576.216.336.312.768t0 .816q-.336 1.44-.768 2.784.384.288.672.72 1.152 2.304 2.76 3.72 1.608 1.416 3.72 2.232.768.288 1.632.528v-14.16h-17.52q-.384 0-.768-.144t-.672-.408q-.288-.264-.456-.576-.168-.312-.168-.696Zm9.12-11.472q-.144 0-.24.096t-.096.192v3.072q0 .096.096.192t.24.096h23.76q.144 0 .24-.096t.096-.192v-3.072q0-.096-.096-.192t-.24-.096h-23.76Zm0-6.384q-.144 0-.24.072t-.096.168v3.072q0 .096.096.168.096.072.24.072h23.76q.144 0 .24-.072t.096-.168v-3.072q0-.096-.096-.168-.096-.072-.24-.072h-23.76Zm53.088 39.552v-40.8q0-1.104.528-1.632.528-.528 1.632-.528 1.104 0 1.632.528.528.528.528 1.632v40.8q0 1.104-.528 1.632-.528.528-1.632.528-1.104 0-1.632-.528-.528-.528-.528-1.632Zm25.92-33.936q0-.384.168-.744t.456-.648q.288-.288.672-.456.384-.168.768-.168h15.168v-6.48q0-.384.168-.768t.456-.672q.288-.288.624-.456.336-.168.72-.168h.24q.384 0 .72.168.336.168.648.456.312.288.456.672.144.384.144.768v6.48h15.36q.384 0 .768.168t.672.456q.288.288.456.648.168.36.168.744v18.816q0 .384-.144.744t-.432.648q-.288.288-.624.48t-.768.192h-.192q-.336 0-.696-.192-.36-.192-.672-.48-.312-.288-.456-.672-.144-.384-.144-.768v-.624h-13.296v13.488q0 .432-.144.792-.144.36-.456.648-.312.288-.648.48t-.72.192h-.24q-.384 0-.72-.192-.336-.192-.624-.48t-.456-.648q-.168-.36-.168-.792v-13.488h-13.248v.864q0 .384-.144.768t-.432.672q-.288.288-.648.48-.36.192-.744.192h-.048q-.336 0-.696-.192-.36-.192-.672-.48-.312-.288-.456-.648-.144-.36-.144-.744v-19.056Zm21.408 1.92v12.288h13.296v-12q0-.096-.096-.192t-.192-.096h-13.008Zm-4.176 12.288v-12.288h-12.96q-.096 0-.192.096t-.096.192v12h13.248Zm43.248 19.728v-40.8q0-1.104.528-1.632.528-.528 1.632-.528 1.104 0 1.632.528.528.528.528 1.632v40.8q0 1.104-.528 1.632-.528.528-1.632.528-1.104 0-1.632-.528-.528-.528-.528-1.632Zm24-15.648q0-.384.168-.72.168-.336.456-.6.288-.264.672-.432.384-.168.72-.168h2.976q-.096-.24-.096-.48v-8.688q0-.384.168-.744t.48-.648q.312-.288.696-.48.384-.192.72-.192h12.096v-3.312q0-.384.168-.768t.456-.672q.288-.288.648-.456.36-.168.744-.168h.192q.384 0 .72.168.336.168.648.48.312.312.456.672.144.36.144.744v3.312h12.816q.384 0 .768.192t.672.48q.288.288.456.648.168.36.168.744v8.688q0 .24-.048.48h2.688q.336 0 .72.168.384.168.672.432.288.264.456.6.168.336.168.72 0 .336-.168.672t-.456.6q-.288.264-.672.432-.384.168-.72.168h-15.696q2.112 3.552 5.664 5.808 4.032 2.544 9.888 3.744 1.248.24 1.656 1.104.408.864-.216 1.92-.24.432-.912.72t-1.2.192q-6.72-1.392-11.376-4.512-4.32-2.88-6.912-7.488-.72 1.584-1.92 3.072-1.44 1.728-3.672 3.336-2.232 1.608-5.448 3t-7.584 2.496q-.576.144-1.224-.12t-.936-.648q-.576-.912-.168-1.776.408-.864 1.608-1.2 5.664-1.488 9-3.336 3.336-1.848 5.064-3.912.96-1.2 1.488-2.4h-15.84q-.336 0-.72-.168-.384-.168-.672-.432-.288-.264-.456-.6-.168-.336-.168-.672Zm.576-22.752q0-.336.168-.672t.456-.576q.288-.24.672-.384.384-.144.768-.144h7.968v-2.208q0-.432.144-.792.144-.36.456-.648.312-.288.672-.48.36-.192.696-.192.384 0 .744.192t.648.48q.288.288.432.648.144.36.144.792v2.208h13.392v-2.208q0-.432.144-.792.144-.36.456-.648.312-.288.672-.48.36-.192.744-.192t.72.192q.336.192.624.48t.456.648q.168.36.168.792v2.208h8.016q.384 0 .768.144t.672.384q.288.24.456.576.168.336.168.672t-.168.672q-.168.336-.456.6-.288.264-.672.408-.384.144-.768.144h-8.016v2.832q0 .384-.168.744t-.456.672q-.288.312-.624.48-.336.168-.72.168-.384 0-.744-.168t-.672-.48q-.312-.312-.456-.672-.144-.36-.144-.744v-2.832h-13.392v2.832q0 .384-.144.744t-.432.672q-.288.312-.648.48-.36.168-.744.168-.336 0-.696-.168-.36-.168-.672-.48-.312-.312-.456-.672-.144-.36-.144-.744v-2.832h-7.968q-.384 0-.768-.144t-.672-.408q-.288-.264-.456-.6-.168-.336-.168-.672Zm33.552 20.832q-.048-.24-.048-.48V229.8q0-.096-.096-.192t-.24-.096h-10.512v4.608q0 1.536-.144 3.072h11.04Zm-15.072-7.68h-9.936q-.144 0-.24.096t-.096.192v6.912q0 .24-.048.48h10.128q.192-1.536.192-3.12v-4.56Zm43.344 25.248v-40.8q0-1.104.528-1.632.528-.528 1.632-.528 1.104 0 1.632.528.528.528.528 1.632v40.8q0 1.104-.528 1.632-.528.528-1.632.528-1.104 0-1.632-.528-.528-.528-.528-1.632Zm23.712-34.128q0-.432.168-.768t.48-.6q.312-.264.672-.432.36-.168.744-.168h39.408q.384 0 .744.168t.648.432q.288.264.456.6.168.336.168.768 0 .336-.168.696-.168.36-.456.648-.288.288-.648.456-.36.168-.744.168h-5.856q.048.144.048.288.048.432-.096.816-2.256 5.856-5.328 10.56-2.4 3.696-5.328 6.768 2.928 2.4 6.336 4.368 4.512 2.64 9.84 4.32 1.152.336 1.488 1.296.336.96-.336 1.968v.048q-.336.432-1.032.72t-1.272.096q-5.856-1.776-10.752-4.608-4.032-2.304-7.392-5.28-3.408 2.928-7.488 5.232-4.896 2.784-10.848 4.8-.624.192-1.392-.096-.768-.288-1.104-.864-.288-.432-.336-.912-.048-.48.12-.912.168-.432.528-.768t.888-.528q5.52-1.824 10.08-4.32 3.552-2.016 6.576-4.512-3.024-3.168-5.472-6.96-3.072-4.704-5.328-10.176-.144-.384-.096-.816 0-.288.048-.528h-5.904q-.384 0-.744-.168t-.672-.456q-.312-.288-.48-.648-.168-.36-.168-.696Zm31.44 1.968h-19.776q2.016 4.848 4.848 9.072 2.352 3.552 5.376 6.576 2.736-2.832 4.896-6.24 2.688-4.224 4.656-9.408Zm-12.576-9.216q-.144-.432-.144-.888t.168-.864q.168-.408.48-.72.312-.312.696-.408l.48-.144q.576-.192 1.296.096.72.288.96.864.672 1.008 1.248 2.088t1.056 2.04q.144.336.096.72-.048.384-.216.72-.168.336-.456.6-.288.264-.624.408l-.528.144q-.384.096-.816.048-.432-.048-.816-.264-.384-.216-.672-.552-.288-.336-.432-.768-.336-.672-.792-1.512t-.984-1.608Zm43.824 41.376v-40.8q0-1.104.528-1.632.528-.528 1.632-.528 1.104 0 1.632.528.528.528.528 1.632v40.8q0 1.104-.528 1.632-.528.528-1.632.528-1.104 0-1.632-.528-.528-.528-.528-1.632Zm24-19.632q0-.384.192-.72.192-.336.48-.6.288-.264.648-.408.36-.144.744-.144h38.544q.432 0 .768.144t.648.408q.312.264.48.6.168.336.168.72 0 .384-.168.696-.168.312-.48.6-.312.288-.648.456-.336.168-.768.168h-11.712q.048.24.048.528v10.944q0 1.056.408 1.344.408.288 1.848.288h6.336q.432 0 .72-.096t.504-.432q.216-.336.312-.936.096-.6.144-1.608.432-.384.744-.816.312-.432.624-.768t.672-.48q.36-.144.792.048.528.192.888.864.36.672.216 1.296-.192 1.968-.48 3.24-.288 1.272-.864 2.04-.576.768-1.512 1.08-.936.312-2.424.312h-7.152q-1.728 0-2.856-.264t-1.8-.888q-.672-.624-.912-1.632t-.24-2.592v-10.992q0-.24.048-.48h-8.304q0 .048.048.096.144.384.096.768-.288 3.36-1.008 5.976t-2.232 4.608q-1.512 1.992-3.984 3.408t-6.264 2.376q-.672.144-1.416-.144-.744-.288-.984-.768-.48-.864 0-1.656.48-.792 1.68-1.128 2.88-.768 4.728-1.896 1.848-1.128 2.976-2.664 1.128-1.536 1.656-3.6t.768-4.704q0-.336.192-.672h-10.848q-.384 0-.744-.168t-.648-.456q-.288-.288-.48-.6t-.192-.696Zm1.152-17.376q0-.384.192-.768t.48-.672q.288-.288.648-.48.36-.192.744-.192h16.56q-.288-.528-.624-1.104-.384-.72-.768-1.392-.144-.384-.144-.84 0-.456.192-.84.192-.384.504-.696.312-.312.696-.456l.384-.096q.288-.048.6 0t.624.168q.312.12.576.336.264.216.408.456.528.864 1.032 1.824.504.96.84 1.776.144.336.144.72-.048.096-.048.144h15.216q.384 0 .744.192t.648.48q.288.288.456.672.168.384.168.768v6.72q0 .384-.168.768t-.456.696q-.288.312-.624.48-.336.168-.72.168h-.24q-.336 0-.696-.168-.36-.168-.648-.456-.288-.288-.456-.672-.168-.384-.168-.768v-4.704q0-.096-.096-.192t-.192-.096h-31.44q-.144 0-.24.096t-.096.192v4.704q0 .384-.168.768t-.456.672q-.288.288-.624.456-.336.168-.744.168t-.744-.168q-.336-.168-.624-.48-.288-.312-.48-.696-.192-.384-.192-.768v-6.72Zm7.2 8.4q0-.336.168-.672t.456-.6q.288-.264.672-.408.384-.144.72-.144H748.2q.384 0 .768.144t.672.408q.288.264.456.6.168.336.168.672 0 .384-.168.72-.168.336-.456.6-.288.264-.672.432-.384.168-.768.168h-21.792q-.336 0-.72-.168-.384-.168-.672-.432-.288-.264-.456-.6-.168-.336-.168-.72Zm54.048 28.608v-40.8q0-1.104.528-1.632.528-.528 1.632-.528 1.104 0 1.632.528.528.528.528 1.632v40.8q0 1.104-.528 1.632-.528.528-1.632.528-1.104 0-1.632-.528-.528-.528-.528-1.632Zm26.016-36.144q0-.384.168-.696.168-.312.48-.552.312-.24.672-.384.36-.144.792-.144h8.112q-.672-.288-.96-.864-.336-.576-.84-1.296-.504-.72-1.032-1.392-.48-.672-.168-1.512.312-.84 1.224-1.224.48-.192 1.128 0 .648.192.984.624.624.72 1.248 1.56.624.84 1.056 1.56.192.336.192.72 0 .384-.12.744t-.312.648q-.24.288-.528.432h13.056q-.144-.384-.096-.816.048-.432.24-.864.576-.72 1.2-1.68t1.104-1.776q.336-.624 1.08-.984t1.368-.168l.144.048q.48.096.792.432.312.336.432.744t.072.864q-.048.456-.336.84-.672 1.008-1.392 2.064-.48.672-.912 1.296h7.776q.432 0 .792.144.36.144.648.384.288.24.48.552.192.312.192.672 0 .36-.192.672-.192.312-.48.576-.288.264-.648.408-.36.144-.792.144h-15.408q.096.288.096.576v3.072h13.2q.432 0 .816.144.384.144.672.384.288.24.456.552.168.312.168.648 0 .672-.648 1.2-.648.528-1.464.528h-13.2v3.792h17.712q.384 0 .744.144t.648.384q.288.24.456.552.168.312.168.672 0 .36-.168.672-.168.312-.456.576-.288.264-.648.408-.36.144-.744.144H825l.192.384q.144.384.048.864-.144 1.152-.384 2.208h17.856q.384 0 .768.144t.672.408q.288.264.456.576.168.312.168.672 0 .36-.168.696-.168.336-.456.6-.288.264-.672.408-.384.144-.768.144h-14.976q2.064 3.072 5.424 5.088 3.936 2.304 9.504 3.36 1.248.24 1.704 1.056.456.816-.168 1.872-.24.432-.912.768t-1.2.192q-6.576-1.248-11.184-4.128t-7.152-7.68q-.048 0-.048-.048-.048.048-.048.144-1.104 2.88-3.336 5.112-2.232 2.232-5.832 3.84-3.6 1.608-9.072 2.664-.624.144-1.344-.216-.72-.36-.96-.84-.48-.864 0-1.68t1.68-1.056q4.56-.864 7.512-2.16 2.952-1.296 4.776-3.12 1.392-1.44 2.256-3.168H805.8q-.384 0-.768-.144t-.672-.408q-.288-.264-.456-.6-.168-.336-.168-.696 0-.36.168-.672.168-.312.456-.576.288-.264.672-.408.384-.144.768-.144h14.736q.288-1.248.48-2.64.096-.432.384-.816h-16.896q-.384 0-.744-.144t-.672-.408q-.312-.264-.48-.576-.168-.312-.168-.672 0-.36.168-.672.168-.312.48-.552.312-.24.672-.384.36-.144.744-.144h17.136v-3.792h-12.768q-.768 0-1.416-.528-.648-.528-.648-1.2 0-.336.168-.648t.456-.552q.288-.24.672-.384.384-.144.768-.144h12.768v-3.072q0-.288.096-.576h-15.168q-.432 0-.792-.144-.36-.144-.672-.408-.312-.264-.48-.576-.168-.312-.168-.648Zm60.384 36.144v-40.8q0-1.104.528-1.632.528-.528 1.632-.528 1.104 0 1.632.528.528.528.528 1.632v40.8q0 1.104-.528 1.632-.528.528-1.632.528-1.104 0-1.632-.528-.528-.528-.528-1.632Zm25.392-34.704q0-.384.168-.744t.432-.672q.264-.312.6-.48.336-.168.672-.168t.672.192q.24.144.48.336.288-.24.672-.384.384-.144.768-.144h1.392q-.096-.24-.144-.576-.048-.432 0-.768.336-.96.672-2.088.336-1.128.576-2.136.048-.432.288-.792.24-.36.6-.648.36-.288.744-.408t.768-.024q.432.048.744.312t.552.624q.24.36.264.816.024.456-.072.888-.432 1.2-.888 2.424t-.84 2.28l-.096.096h5.856q.432 0 .816.168.384.168.672.48.288.312.456.672.168.36.168.744v27.456q0 .384-.168.744t-.456.672q-.288.312-.672.48-.384.168-.816.168h-10.416q-.384 0-.768-.144v1.824q0 .384-.144.768t-.408.672q-.264.288-.6.456-.336.168-.672.168t-.672-.168q-.336-.168-.6-.456-.264-.288-.432-.672-.168-.384-.168-.768v-31.2Zm24.048-7.968q.096-.384.36-.696.264-.312.6-.528.336-.216.72-.312.384-.096.768 0 .336.048.648.312t.504.624q.192.36.264.792.072.432-.072.768-.672 2.448-1.44 4.752h12.192q.432 0 .792.144.36.144.648.432h.048q.24.24.432.528.096.24.144.432.048.192.048.336 0 .096-.048.24-.24 8.16-.528 13.824-.288 5.664-.672 9.336-.384 3.672-.864 5.664-.48 1.992-1.248 2.904-.816 1.104-1.752 1.536-.936.432-2.232.576-.96.096-2.4.096t-3.024-.096q-.72 0-1.32-.456-.6-.456-.792-.984-.24-1.008.408-1.68.648-.672 1.944-.624.624 0 1.128.024.504.024.96.048.456.024.84.024h.816q.72 0 1.176-.144.456-.144.888-.624.624-.672 1.056-2.592.432-1.92.792-5.568.36-3.648.6-9.168.24-4.464.384-10.464h-10.992q-.384 0-.768-.192h-.048q-1.488 3.648-3.312 6.528-.192.384-.552.624-.36.24-.744.36t-.816.048q-.432-.072-.72-.264-.336-.24-.504-.6-.168-.36-.216-.792-.048-.432.024-.888.072-.456.312-.84 1.776-2.736 3.168-6.216 1.392-3.48 2.4-7.224Zm-20.352 34.032q.384-.144.768-.144h8.544q.096 0 .192-.096t.096-.24v-10.848h-9.024q-.288 0-.576-.096v11.424Zm9.6-14.88v-9.36q0-.144-.096-.24t-.192-.096h-8.544q-.384 0-.768-.144v9.936q.288-.096.576-.096h9.024Zm10.224 1.152q-.24-.384-.288-.792-.048-.408.024-.792.072-.384.24-.72.168-.336.456-.48.576-.336 1.368-.12.792.216 1.224.792.72.912 1.488 1.92t1.464 2.016q.696 1.008 1.344 1.968.648.96 1.176 1.776.144.288.192.696.048.408-.024.744-.072.336-.288.648-.216.312-.504.504-.336.24-.768.264-.432.024-.84-.096t-.768-.408q-.36-.288-.6-.672-.912-1.632-2.256-3.576-1.344-1.944-2.64-3.672Zm37.488 22.368v-40.8q0-1.104.528-1.632.528-.528 1.632-.528 1.104 0 1.632.528.528.528.528 1.632v40.8q0 1.104-.528 1.632-.528.528-1.632.528-1.104 0-1.632-.528-.528-.528-.528-1.632Zm23.088-4.08q-1.392 0-2.136-.696-.744-.696-.744-2.088 0-.768.24-1.416.24-.648.768-1.176l10.656-11.04q.768-.816 1.68-1.848.912-1.032 1.68-2.184.768-1.152 1.272-2.376t.504-2.424q0-1.68-.504-2.808t-1.416-1.824q-.912-.696-2.136-1.008-1.224-.312-2.664-.312-1.92 0-3.24.456-1.32.456-2.52 1.176-.864.528-1.704.168t-1.32-1.176q-.432-.768-.168-1.584.264-.816.984-1.344 1.536-1.104 3.456-1.56 1.92-.456 4.656-.456 2.256 0 4.248.456 1.992.456 3.48 1.56t2.376 2.976q.888 1.872.888 4.752 0 1.488-.48 3t-1.272 3q-.792 1.488-1.872 2.88t-2.28 2.688l-8.496 9.024q-.24.24-.12.552.12.312.936.312h12.336q1.104 0 1.632.528.528.528.528 1.632 0 1.104-.528 1.632-.528.528-1.632.528h-17.088Zm32.592-3.6q0-.864.312-1.608.312-.744.864-1.296t1.296-.864q.744-.312 1.608-.312.864 0 1.608.312.744.312 1.296.864t.864 1.296q.312.744.312 1.608 0 .816-.312 1.56-.312.744-.864 1.296t-1.296.888q-.744.336-1.608.336-.864 0-1.608-.336-.744-.336-1.296-.888t-.864-1.296q-.312-.744-.312-1.56Zm0-17.76q0-.864.312-1.608.312-.744.864-1.296t1.296-.864q.744-.312 1.608-.312.864 0 1.608.312.744.312 1.296.864t.864 1.296q.312.744.312 1.608 0 .816-.312 1.56-.312.744-.864 1.296t-1.296.888q-.744.336-1.608.336-.864 0-1.608-.336-.744-.336-1.296-.888t-.864-1.296q-.312-.744-.312-1.56Zm30.72 25.44v-40.8q0-1.104.528-1.632.528-.528 1.632-.528 1.104 0 1.632.528.528.528.528 1.632v40.8q0 1.104-.528 1.632-.528.528-1.632.528-1.104 0-1.632-.528-.528-.528-.528-1.632Zm22.56-4.08q-1.104 0-1.632-.528-.528-.528-.528-1.632 0-1.104.528-1.632.528-.528 1.632-.528h7.824v-25.056q0-.624-.144-.912-.144-.288-.432-.288-.192 0-.408.12-.216.12-.504.36l-4.704 3.744q-.672.528-1.2.792-.528.264-.912.264-.624 0-.912-.552-.288-.552-.288-1.656 0-1.056.288-1.656.288-.6.816-1.032l5.28-4.128q.816-.672 1.68-.936t1.92-.264q1.968 0 2.904.936.936.936.936 2.904v27.36h6.096q1.1 0 1.63.528.53.528.53 1.632 0 1.104-.53 1.632-.53.528-1.63.528h-18.24Zm49.49-27.264q0-.384.17-.744.16-.36.45-.696.15-.144.34-.288-.72-.576-.72-1.536-.05-.96.62-1.776 1.35-1.344 2.45-3.072t1.87-3.6q.34-.624 1.06-1.032.72-.408 1.34-.216.43.048.75.336.31.288.5.648.19.36.22.792.02.432-.17.864-.24.576-.53 1.104h13.2q.34 0 .72.144.38.144.67.36.29.216.46.528.17.312.17.648t-.17.624q-.17.288-.46.552-.29.264-.67.384-.38.12-.72.12h-7.78q.24.336.44.672.57.912.96 1.632.24.336.28.72.05.384-.04.744-.1.36-.34.672-.24.312-.58.456-.62.24-1.41-.048-.79-.288-1.13-.912-.29-.624-.72-1.32-.43-.696-.96-1.368-.38-.576-.38-1.248h-3.41q-1.35 2.112-2.93 3.744-.14.24-.43.384l.38.288q.29.336.46.696.17.36.17.744v1.056h13.24q.82 0 1.47.504t.65 1.176q0 .288-.2.6-.19.312-.48.552-.28.24-.64.384-.36.144-.8.144h-13.24v3.984h17.8q.77 0 1.42.552.65.552.65 1.224 0 .336-.17.648t-.46.552q-.28.24-.67.384-.38.144-.77.144h-8.68q.28.288.43.672.19.384.19.72v2.592h6.72q.82 0 1.46.528.65.528.65 1.2 0 .336-.17.648-.16.312-.48.552-.31.24-.67.408-.36.168-.79.168h-6.72v7.2q0 1.728-.48 2.592-.48.864-1.78 1.344-1 .336-2.64.456-1.63.12-3.98.168-.62 0-1.22-.408t-.8-.936q-.38-.96.22-1.68t1.8-.672h2.21q.81 0 1.49-.048.62 0 .84-.192.21-.192.21-.672v-7.152h-25.68q-.43 0-.79-.168-.36-.168-.67-.408-.31-.24-.48-.552-.17-.312-.17-.648 0-.672.65-1.2.65-.528 1.46-.528h25.68v-2.544q0-.384.15-.744.14-.36.43-.696h-27.89q-.38 0-.74-.144t-.68-.384q-.31-.24-.48-.552-.16-.312-.16-.648 0-.672.64-1.224.65-.552 1.42-.552h17.57v-3.984h-12.82q-.33 0-.72-.144-.38-.144-.69-.384-.32-.24-.48-.552-.17-.312-.17-.6 0-.672.65-1.176.64-.504 1.41-.504h12.82v-1.056Zm-13.83-11.76q.34-.576 1.08-.984.75-.408 1.37-.216.43.096.75.384.31.288.45.672.15.384.17.84.02.456-.22.84-.24.48-.48 1.008h10.18q.82 0 1.44.504t.62 1.176q0 .336-.16.624-.17.288-.46.552-.29.264-.67.384-.39.12-.77.12h-6.34q.2.432.34.816.34.768.48 1.44.19.288.19.696t-.12.744q-.12.336-.36.6-.24.264-.57.36-.68.336-1.47-.048-.79-.384-1.13-1.104-.09-.528-.28-1.152-.2-.624-.48-1.2-.15-.384-.2-.768 0-.192.05-.384h-1.49q-.33 0-.62-.048l-.29.48q-1.49 2.304-3.02 4.128-.48.528-1.25.624-.77.096-1.25-.24-.77-.528-.77-1.536t.68-1.824q1.39-1.584 2.56-3.504 1.18-1.92 2.04-3.984Zm4.56 34.848q-.33-.336-.55-.744-.21-.408-.21-.864t.14-.84q.14-.384.53-.672.38-.288 1.08-.264.69.024 1.13.312 1.63 1.056 3.16 2.328 1.54 1.272 2.6 2.472.24.24.33.6.1.36.07.72-.02.36-.16.696-.15.336-.39.576-.33.24-.77.336-.43.096-.86.024-.43-.072-.86-.264-.44-.192-.72-.528-.87-.96-2.04-1.992-1.18-1.032-2.48-1.896Zm88.18-33.792q.38 0 .77.144.38.144.69.432.32.288.48.648.17.36.17.72t-.17.72q-.16.36-.48.624-.31.264-.67.432-.36.168-.74.168h-16.13q-.1 0-.19.096-.1.096-.1.24v6.768h13.83q.43 0 .79.168.36.168.65.48.28.312.48.672.19.36.19.744v12.816q0 .384-.19.744-.2.36-.48.672-.29.312-.65.48-.36.168-.79.168h-13.83v7.824q0 .144.1.24.09.096.24.096h16.94q.43 0 .77.144t.65.432q.31.288.48.648.17.36.17.696 0 .384-.17.744t-.48.624q-.31.264-.67.432-.36.168-.75.168h-19.25q-.33 0-.72-.168-.38-.168-.69-.456-.31-.288-.48-.672-.17-.384-.17-.768v-35.856q0-.384.17-.768t.48-.672q.31-.288.69-.456.39-.168.77-.168h18.29Zm-39.22 1.632q0-.384.17-.744t.46-.672q.29-.312.67-.48.38-.168.82-.168h11.8q.39 0 .77.168.39.168.67.48.29.312.46.672.17.36.17.744v10.752q0 .432-.17.792-.17.36-.46.672-.28.312-.67.48-.38.168-.77.168h-3.6q.05.048.05.096.19.384.19.768v5.76h3.94q.43 0 .82.144.38.144.67.384.29.24.45.552.17.312.17.648 0 .72-.65 1.272-.64.552-1.46.552h-3.94v8.064q1.83-.48 3.75-1.008.43-.144.86-.048.43.096.79.264.36.168.6.48.24.312.29.696.1.576-.38 1.176t-1.11.84q-3.93 1.056-7.77 2.136-3.84 1.08-7.01 1.992-.38.096-.77.048-.38-.048-.74-.24t-.63-.48q-.26-.288-.36-.648-.09-.36-.02-.744.07-.384.31-.72.24-.336.58-.6.33-.264.72-.36.24-.048.53-.096-.05-.048-.05-.144-.15-.384-.15-.72v-13.344q0-.336.12-.72.12-.384.39-.672.26-.288.57-.456.32-.168.63-.168t.62.168q.31.168.55.456.24.288.39.672.14.384.14.72v13.392q1.49-.384 3.07-.816.2-.048.44-.096-.15-.336-.15-.624v-17.712q0-.384.19-.768 0-.048.05-.096h-4.89q-.44 0-.82-.168-.38-.168-.67-.48-.29-.312-.46-.672-.17-.36-.17-.792v-10.752Zm22.85 22.512h11.86q.09 0 .19-.096t.1-.192v-8.784q0-.096-.1-.192t-.19-.096h-11.86v9.36Zm-19.05-21.072q-.1 0-.2.096-.09.096-.09.192v7.392q0 .096.09.192.1.096.2.096h8.25q.1 0 .19-.096.1-.096.1-.192v-7.392q0-.096-.1-.192-.09-.096-.19-.096h-8.25Zm57.26 38.976v-40.8q0-1.104.53-1.632.53-.528 1.63-.528 1.1 0 1.63.528.53.528.53 1.632v40.8q0 1.104-.53 1.632-.53.528-1.63.528-1.1 0-1.63-.528-.53-.528-.53-1.632ZM87.24 318.12v-40.8q0-1.104.528-1.632.528-.528 1.632-.528 1.104 0 1.632.528.528.528.528 1.632v40.8q0 1.104-.528 1.632-.528.528-1.632.528-1.104 0-1.632-.528-.528-.528-.528-1.632Zm38.784-4.992-2.304-8.4h-11.04l-2.304 8.4q-.192.672-.648 1.032t-1.368.36q-1.248 0-1.776-.696t-.144-2.088l8.16-29.904q.384-1.392 1.248-2.112.864-.72 2.352-.72t2.352.72q.864.72 1.248 2.112l8.16 29.904q.384 1.392-.144 2.088-.528.696-1.776.696-.912 0-1.368-.36-.456-.36-.648-1.032Zm-3.264-12.048-4.32-15.888q-.096-.288-.24-.288t-.24.288l-4.32 15.888h9.12ZM147 314.52q-3.6 0-5.832-1.752-2.232-1.752-3.456-4.416-1.224-2.664-1.656-5.832-.432-3.168-.432-6t.432-6q.432-3.168 1.68-5.832 1.248-2.664 3.48-4.416 2.232-1.752 5.88-1.752 3.6 0 5.832 1.728 2.232 1.728 3.432 4.368 1.2 2.64 1.608 5.76.408 3.12.408 5.904 0 2.928-.432 6.144t-1.68 5.904q-1.248 2.688-3.456 4.44-2.208 1.752-5.808 1.752Zm0-4.32q2.304 0 3.696-1.512 1.392-1.512 2.136-3.648.744-2.136.984-4.512.24-2.376.24-4.104 0-1.248-.144-2.832l-12.816 11.28q.048.096.096.144.72 2.16 2.112 3.672 1.392 1.512 3.696 1.512Zm5.856-22.128v-.144q-.768-2.112-2.16-3.6-1.392-1.488-3.696-1.488-2.304 0-3.696 1.512-1.392 1.512-2.136 3.648-.744 2.136-.984 4.464-.24 2.328-.24 4.008 0 1.296.144 2.88l12.768-11.28Zm20.784 30.048v-40.8q0-1.104.528-1.632.528-.528 1.632-.528 1.104 0 1.632.528.528.528.528 1.632v40.8q0 1.104-.528 1.632-.528.528-1.632.528-1.104 0-1.632-.528-.528-.528-.528-1.632Zm22.56-4.08q-1.104 0-1.632-.528-.528-.528-.528-1.632 0-1.104.528-1.632.528-.528 1.632-.528h7.824v-25.056q0-.624-.144-.912-.144-.288-.432-.288-.192 0-.408.12-.216.12-.504.36l-4.704 3.744q-.672.528-1.2.792-.528.264-.912.264-.624 0-.912-.552-.288-.552-.288-1.656 0-1.056.288-1.656.288-.6.816-1.032l5.28-4.128q.816-.672 1.68-.936t1.92-.264q1.968 0 2.904.936.936.936.936 2.904v27.36h6.096q1.104 0 1.632.528.528.528.528 1.632 0 1.104-.528 1.632-.528.528-1.632.528H196.2Zm34.944-12.24-.768-20.16q-.096-1.584.672-2.352.768-.768 2.352-.768 1.584 0 2.352.768.768.768.672 2.352l-.768 20.16q-.048 1.104-.6 1.632-.552.528-1.656.528-1.104 0-1.656-.528-.552-.528-.6-1.632Zm-.624 9.84q0-1.2.84-2.04.84-.84 2.04-.84 1.2 0 2.04.84.84.84.84 2.04 0 1.248-.84 2.064-.84.816-2.04.816-1.2 0-2.04-.816-.84-.816-.84-2.064Zm29.52 6.48v-40.8q0-1.104.528-1.632.528-.528 1.632-.528 1.104 0 1.632.528.528.528.528 1.632v40.8q0 1.104-.528 1.632-.528.528-1.632.528-1.104 0-1.632-.528-.528-.528-.528-1.632Zm23.088-4.08q-1.392 0-2.136-.696-.744-.696-.744-2.088 0-.768.24-1.416.24-.648.768-1.176l10.656-11.04q.768-.816 1.68-1.848.912-1.032 1.68-2.184.768-1.152 1.272-2.376t.504-2.424q0-1.68-.504-2.808t-1.416-1.824q-.912-.696-2.136-1.008-1.224-.312-2.664-.312-1.92 0-3.24.456-1.32.456-2.52 1.176-.864.528-1.704.168t-1.32-1.176q-.432-.768-.168-1.584.264-.816.984-1.344 1.536-1.104 3.456-1.56 1.92-.456 4.656-.456 2.256 0 4.248.456 1.992.456 3.48 1.56t2.376 2.976q.888 1.872.888 4.752 0 1.488-.48 3t-1.272 3q-.792 1.488-1.872 2.88t-2.28 2.688l-8.496 9.024q-.24.24-.12.552.12.312.936.312h12.336q1.104 0 1.632.528.528.528.528 1.632 0 1.104-.528 1.632-.528.528-1.632.528h-17.088Zm47.376-10.08q-1.104 0-1.656-.528-.552-.528-.552-1.632 0-3.84-.552-6.912t-1.824-5.208q-1.272-2.136-3.288-3.288-2.016-1.152-4.944-1.152-2.16 0-4.032.672-1.872.672-3.648 2.256-.864.768-1.824.648-.96-.12-1.632-.888-.336-.384-.504-.816-.168-.432-.144-.864.024-.432.24-.84t.6-.744q2.304-2.016 4.896-2.88 2.592-.864 5.616-.864 4.176 0 7.08 1.44t4.752 4.128q1.848 2.688 2.688 6.576.84 3.888.84 8.736 0 1.104-.504 1.632-.504.528-1.608.528Zm-.048 10.56q-2.496 0-4.656-.168-2.16-.168-3.768-1.104-1.608-.936-2.544-2.976-.936-2.04-.936-5.832 0-1.68-.072-3.144-.072-1.464-.36-2.592-.288-1.128-.816-1.776-.528-.648-1.44-.648-.912 0-1.608.648-.696.648-1.176 1.752t-.72 2.64q-.24 1.536-.24 3.36 0 1.104.12 2.112t.36 1.752q.24.744.648 1.2.408.456 1.032.456.816 0 1.32.504.504.504.504 1.56 0 1.2-.672 1.728t-2.208.528q-1.056 0-2.04-.384t-1.752-1.392q-.768-1.008-1.2-2.784-.432-1.776-.432-4.56 0-3.408.504-5.928t1.56-4.176q1.056-1.656 2.616-2.496 1.56-.84 3.624-.84 2.544 0 3.912 1.104 1.368 1.104 2.016 2.88.648 1.776.744 4.008.096 2.232.096 4.488 0 2.16.696 3.336.696 1.176 1.776 1.704t2.424.624q1.344.096 2.688.096 1.104 0 1.632.528.528.528.528 1.632 0 1.104-.528 1.632-.528.528-1.632.528Zm15.984 3.6v-40.8q0-1.104.528-1.632.528-.528 1.632-.528 1.104 0 1.632.528.528.528.528 1.632v40.8q0 1.104-.528 1.632-.528.528-1.632.528-1.104 0-1.632-.528-.528-.528-.528-1.632Zm21.408-5.088q-.96-.384-1.32-1.224-.36-.84.072-1.8.384-.864 1.224-1.224t2.088.168q1.296.528 2.952.888t3.192.36q3.456 0 5.52-1.752 2.064-1.752 2.064-5.256 0-1.872-1.128-2.976-1.128-1.104-2.76-1.656-1.632-.552-3.504-.672t-3.408-.024q-.432.048-.816-.072-.384-.12-.696-.384-.312-.264-.48-.696-.168-.432-.168-1.056 0-1.104.648-1.608t2.088-.504q1.248 0 2.736-.264 1.488-.264 2.808-.936 1.32-.672 2.208-1.8.888-1.128.888-2.856 0-1.44-.648-2.376-.648-.936-1.656-1.488-1.008-.552-2.208-.768-1.2-.216-2.352-.216-1.344 0-2.496.264t-2.256.888q-.72.384-1.536.096-.816-.288-1.248-1.152-.384-.72-.168-1.56.216-.84 1.128-1.464.96-.672 2.784-1.032 1.824-.36 3.84-.36 2.112 0 4.104.432t3.552 1.464q1.56 1.032 2.52 2.712.96 1.68.96 4.128 0 1.392-.312 2.712-.312 1.32-.96 2.376-.648 1.056-1.656 1.8t-2.4.984q1.824.144 3.144.888t2.16 1.968q.84 1.224 1.224 2.832.384 1.608.384 3.432 0 2.304-.792 4.176-.792 1.872-2.304 3.24-1.512 1.368-3.72 2.112t-5.088.744q-2.064 0-4.32-.384-2.256-.384-3.888-1.104ZM395.4 287.88h4.128l.672-7.2q.096-1.104.576-1.632.48-.528 1.584-.528t1.68.528q.576.528.48 1.632l-.672 7.2h6.24l.672-7.2q.096-1.104.576-1.632.48-.528 1.584-.528t1.68.528q.576.528.48 1.632l-.672 7.2H417q1.104 0 1.632.528.528.528.528 1.632 0 1.104-.528 1.632-.528.528-1.632.528h-2.976l-.768 8.64H417q1.104 0 1.632.528.528.528.528 1.632 0 1.104-.528 1.632-.528.528-1.632.528h-4.128l-.672 7.2q-.096 1.104-.576 1.632-.48.528-1.584.528t-1.68-.528q-.576-.528-.48-1.632l.672-7.2h-6.24l-.672 7.2q-.096 1.104-.576 1.632-.48.528-1.584.528t-1.68-.528q-.576-.528-.48-1.632l.672-7.2H395.4q-1.104 0-1.632-.528-.528-.528-.528-1.632 0-1.104.528-1.632.528-.528 1.632-.528h2.976l.768-8.64H395.4q-1.104 0-1.632-.528-.528-.528-.528-1.632 0-1.104.528-1.632.528-.528 1.632-.528Zm7.296 12.96h6.24l.768-8.64h-6.24l-.768 8.64Zm30.144 17.28v-40.8q0-1.104.528-1.632.528-.528 1.632-.528 1.104 0 1.632.528.528.528.528 1.632v40.8q0 1.104-.528 1.632-.528.528-1.632.528-1.104 0-1.632-.528-.528-.528-.528-1.632Zm33.84-16.32v-13.584q0-.528-.072-.72-.072-.192-.216-.192-.096 0-.288.12-.192.12-.432.504l-7.344 12.24q-.192.288-.264.528-.072.24-.072.432 0 .384.312.528.312.144.936.144h7.44Zm0 10.56v-6.24h-11.136q-1.632 0-2.448-.792-.816-.792-.816-2.328 0-.672.144-1.152.144-.48.432-.96l13.056-21.12q.384-.624.96-.936.576-.312 1.44-.312 1.296 0 1.992.72t.696 2.16v20.4h2.88q1.104 0 1.632.528.528.528.528 1.632 0 1.104-.528 1.632-.528.528-1.632.528H471v6.24q0 1.104-.528 1.632-.528.528-1.632.528-1.104 0-1.632-.528-.528-.528-.528-1.632Zm37.68-7.68q0 2.064-.552 3.696-.552 1.632-1.536 2.784t-2.28 1.872q-1.296.72-2.784 1.008v-4.32q.528-.384 1.032-.816.504-.432.888-1.008.384-.576.648-1.344.264-.768.264-1.728 0-1.344-.456-2.376-.456-1.032-1.2-1.8t-1.68-1.272q-.936-.504-1.944-.792l-4.32-1.2q-1.824-.528-3.432-1.248-1.608-.72-2.832-1.824-1.224-1.104-1.92-2.712t-.696-3.864q0-1.92.552-3.456t1.44-2.64q.888-1.104 2.064-1.776 1.176-.672 2.424-.864v4.8q-.384.192-.768.504t-.696.816q-.312.504-.504 1.176-.192.672-.192 1.536 0 1.296.408 2.16.408.864 1.056 1.44.648.576 1.464.912.816.336 1.632.576l4.32 1.2q2.112.576 3.888 1.416 1.776.84 3.048 2.088 1.272 1.248 1.968 2.976t.696 4.08Zm-9.6-3.456v16.416q0 1.104-.528 1.632-.528.528-1.632.528-1.104 0-1.632-.528-.528-.528-.528-1.632v-17.616l4.32 1.2Zm0-9.744-4.32-1.2v-14.4q0-1.104.528-1.632.528-.528 1.632-.528 1.104 0 1.632.528.528.528.528 1.632v15.6Zm-6.72 18.24v4.32q-1.296-.24-2.544-.96t-2.256-1.728q-1.008-1.008-1.632-2.256-.624-1.248-.624-2.496t.576-1.704q.576-.456 1.392-.456.672 0 1.176.24.504.24.696.672.24.528.576 1.176.336.648.768 1.248t.912 1.128q.48.528.96.816Zm9.168-30.72q1.152.192 2.304.84 1.152.648 2.088 1.56.936.912 1.512 2.04.576 1.128.576 2.28 0 1.248-.6 1.656-.6.408-1.416.408-.768 0-1.296-.336t-.912-1.152q-.144-.288-.36-.624T498.6 285q-.288-.336-.648-.672-.36-.336-.744-.528V279Zm22.032 39.12v-40.8q0-1.104.528-1.632.528-.528 1.632-.528 1.104 0 1.632.528.528.528.528 1.632v40.8q0 1.104-.528 1.632-.528.528-1.632.528-1.104 0-1.632-.528-.528-.528-.528-1.632Zm41.52-13.872q0 2.304-.792 4.176-.792 1.872-2.304 3.24-1.512 1.368-3.72 2.112t-5.088.744q-2.064 0-4.32-.384-2.256-.384-3.888-1.104-.96-.384-1.32-1.224-.36-.84.072-1.8.384-.864 1.224-1.224t2.088.168q1.296.528 2.952.888t3.192.36q3.456 0 5.52-1.752 2.064-1.752 2.064-5.256 0-1.776-.816-2.928t-2.232-1.848q-1.416-.696-3.336-.96t-4.176-.264h-.96q-1.968 0-2.904-.936-.936-.936-.936-2.952V282.84q0-1.968.936-2.904.936-.936 2.904-.936h13.008q1.104 0 1.632.528.528.528.528 1.632 0 1.104-.528 1.632-.528.528-1.632.528H547.32q-.96 0-1.44.48t-.48 1.44v5.712q0 .96.48 1.44t1.44.48q2.4 0 4.776.312t4.32 1.488q1.944 1.176 3.144 3.432 1.2 2.256 1.2 6.144Zm24 10.272q-1.776 0-3.096-.696t-2.232-1.92q-.912-1.224-1.368-2.832-.456-1.608-.456-3.432 0-1.824.456-3.456t1.368-2.832q.912-1.2 2.28-1.896 1.368-.696 3.144-.696t3.12.696q1.344.696 2.232 1.872.888 1.176 1.32 2.784.432 1.608.432 3.432 0 1.872-.456 3.504t-1.368 2.856q-.912 1.224-2.256 1.92-1.344.696-3.12.696Zm0-4.32q1.536 0 2.376-1.32.84-1.32.84-3.288 0-1.872-.84-3.192t-2.376-1.32q-1.536 0-2.352 1.32-.816 1.32-.816 3.24 0 1.872.816 3.216t2.352 1.344Zm-11.568-13.92q-1.776 0-3.096-.696t-2.232-1.92q-.912-1.224-1.368-2.856-.456-1.632-.456-3.456t.456-3.432q.456-1.608 1.344-2.808.888-1.2 2.256-1.896 1.368-.696 3.144-.696t3.096.696q1.32.696 2.208 1.872.888 1.176 1.344 2.784.456 1.608.456 3.432 0 1.872-.456 3.504t-1.344 2.856q-.888 1.224-2.232 1.92-1.344.696-3.12.696Zm0-4.32q1.536 0 2.352-1.32.816-1.32.816-3.192 0-1.968-.816-3.288-.816-1.32-2.352-1.32t-2.352 1.32q-.816 1.32-.816 3.24 0 1.872.816 3.216t2.352 1.344Zm-.864 7.872q.384-.576.768-.864.384-.288.912-.288.384 0 .816.168.432.168.792.456.36.288.6.672.24.384.24.816 0 .288-.096.6t-.336.648l-5.808 9.168q-.384.576-.792.864-.408.288-.936.288-.384 0-.84-.168-.456-.168-.816-.456-.36-.288-.6-.648-.24-.36-.24-.792 0-.288.096-.6t.336-.648l5.904-9.216Zm15.552-18.048q.384-.576.792-.864.408-.288.936-.288.384 0 .816.168.432.168.792.456.36.288.6.672.24.384.24.816 0 .288-.096.6t-.336.648l-5.856 9.168q-.384.576-.792.864-.408.288-.936.288-.384 0-.816-.168-.432-.168-.792-.456-.36-.288-.6-.648-.24-.36-.24-.792 0-.288.096-.6t.336-.648l5.856-9.216Zm17.76 36.336v-40.8q0-1.104.528-1.632.528-.528 1.632-.528 1.104 0 1.632.528.528.528.528 1.632v40.8q0 1.104-.528 1.632-.528.528-1.632.528-1.104 0-1.632-.528-.528-.528-.528-1.632Zm30.96-7.92q1.536 0 2.784-.408 1.248-.408 2.16-1.296.912-.888 1.416-2.256.504-1.368.504-3.24 0-1.44-.48-2.712-.48-1.272-1.368-2.232-.888-.96-2.16-1.512-1.272-.552-2.856-.552-1.632 0-2.928.6t-2.16 1.608q-.864 1.008-1.32 2.352-.456 1.344-.456 2.88 0 1.968.552 3.288.552 1.32 1.488 2.088.936.768 2.184 1.08 1.248.312 2.64.312Zm3.456-31.344q1.008-.384 1.752-.264t1.272 1.08q.48.864.264 1.68-.216.816-1.272 1.2-2.304.768-4.392 2.136-2.088 1.368-3.744 3.168-1.656 1.8-2.736 4.008-1.08 2.208-1.464 4.656 1.296-2.256 3.288-3.552 1.992-1.296 4.968-1.296 2.064 0 3.864.84 1.8.84 3.12 2.352t2.064 3.552q.744 2.04.744 4.44 0 2.88-.864 5.064t-2.376 3.648q-1.512 1.464-3.552 2.208-2.04.744-4.344.744-2.496 0-4.584-.648-2.088-.648-3.552-2.184t-2.28-4.152q-.816-2.616-.816-6.552 0-4.368 1.152-7.968 1.152-3.6 3.12-6.384 1.968-2.784 4.632-4.752 2.664-1.968 5.736-3.024Zm17.712 19.824q-.576 0-1.056-.144-.48-.144-.744-.432-.264-.288-.288-.744-.024-.456.264-1.032l6.72-12.72q.48-.864 1.128-1.296.648-.432 1.608-.432.96 0 1.608.432.648.432 1.128 1.296l6.72 12.72q.288.576.264 1.032-.024.456-.288.744-.264.288-.744.432-.48.144-1.056.144-.768 0-1.416-.312-.648-.312-1.176-1.368l-4.272-8.304q-.48-.912-.768-.912-.288 0-.768.912L660.36 297q-.528 1.056-1.176 1.368-.648.312-1.416.312Zm34.272 19.44v-40.8q0-1.104.528-1.632.528-.528 1.632-.528 1.104 0 1.632.528.528.528.528 1.632v40.8q0 1.104-.528 1.632-.528.528-1.632.528-1.104 0-1.632-.528-.528-.528-.528-1.632Zm25.872-6.528 10.608-26.496q.096-.24.144-.456.048-.216.048-.408 0-.48-.336-.696-.336-.216-1.056-.216h-13.584q-1.104 0-1.632-.528-.528-.528-.528-1.632 0-1.104.528-1.632.528-.528 1.632-.528h16.656q1.728 0 2.592.84.864.84.864 2.424 0 .576-.096 1.032-.096.456-.24.84L722.04 313.08q-.288.72-.864 1.08-.576.36-1.536.36-1.008 0-1.536-.36t-.528-1.128q0-.288.096-.672.096-.384.24-.768Zm44.88-2.448 1.632 2.064q.384.48.528.864.144.384.144.72 0 .864-.816 1.296-.816.432-1.632.432-.624 0-1.128-.24-.504-.24-.984-.864l-.576-.72q.864-.672 1.584-1.584.72-.912 1.248-1.968Zm-9.12-4.512-10.32-13.2q-.72-.96-1.176-2.088-.456-1.128-.456-2.808 0-1.824.6-3.312.6-1.488 1.704-2.544t2.664-1.608q1.56-.552 3.528-.552 1.68 0 2.976.432t2.28 1.176q.984.744 1.752 1.824t1.44 2.376q.144.288.216.576.072.288.072.528 0 .432-.24.768t-.6.6q-.36.264-.792.408-.432.144-.816.144-.528 0-1.008-.384t-.96-1.344q-.528-1.104-1.488-1.944-.96-.84-2.688-.84-1.92 0-3.072 1.104-1.152 1.104-1.152 2.784 0 .96.384 1.584.384.624.96 1.344l8.928 11.28q-.288 1.2-1.08 2.184-.792.984-1.656 1.512Zm-7.584-5.088q-.816 1.248-1.152 2.376-.336 1.128-.336 2.616 0 1.248.288 2.28.288 1.032.864 1.8.576.768 1.464 1.176.888.408 2.088.408 2.064 0 3.912-1.032 1.848-1.032 3.24-2.688 1.392-1.656 2.208-3.744.816-2.088.816-4.152 0-1.392.576-1.92t1.488-.528q1.056 0 1.656.576.6.576.6 1.728 0 2.592-.984 5.448-.984 2.856-2.856 5.208-1.872 2.352-4.56 3.888-2.688 1.536-6.096 1.536-2.448 0-4.176-.768-1.728-.768-2.808-2.112-1.08-1.344-1.56-3.216t-.48-4.032q0-2.592.576-4.632.576-2.04 2.112-4.152l3.12 3.936Zm32.352 18.576v-40.8q0-1.104.528-1.632.528-.528 1.632-.528 1.104 0 1.632.528.528.528.528 1.632v40.8q0 1.104-.528 1.632-.528.528-1.632.528-1.104 0-1.632-.528-.528-.528-.528-1.632Zm30.96-3.6q-2.496 0-4.56-.744-2.064-.744-3.552-2.088t-2.304-3.192q-.816-1.848-.816-4.056 0-1.728.504-3.216.504-1.488 1.392-2.64.888-1.152 2.184-1.92 1.296-.768 2.88-1.056v-.144q-2.736-.624-4.368-2.76-1.632-2.136-1.632-5.112 0-1.968.744-3.648.744-1.68 2.112-2.88t3.24-1.872q1.872-.672 4.176-.672 2.304 0 4.176.672 1.872.672 3.24 1.872 1.368 1.2 2.112 2.88t.744 3.648q0 2.976-1.632 5.112t-4.368 2.76v.144q1.584.288 2.88 1.056 1.296.768 2.184 1.92.888 1.152 1.392 2.64.504 1.488.504 3.216 0 2.208-.816 4.056-.816 1.848-2.304 3.192t-3.552 2.088q-2.064.744-4.56.744Zm0-4.32q1.536 0 2.808-.432 1.272-.432 2.184-1.248.912-.816 1.416-1.968.504-1.152.504-2.544 0-1.392-.504-2.568-.504-1.176-1.416-1.992-.912-.816-2.184-1.272-1.272-.456-2.808-.456-1.536 0-2.808.456-1.272.456-2.184 1.272-.912.816-1.416 1.992-.504 1.176-.504 2.568 0 1.392.504 2.544.504 1.152 1.416 1.968.912.816 2.184 1.248 1.272.432 2.808.432Zm0-16.8q2.688 0 4.32-1.392 1.632-1.392 1.632-3.84 0-2.496-1.632-3.912t-4.32-1.416q-2.688 0-4.32 1.416-1.632 1.416-1.632 3.912 0 2.448 1.632 3.84t4.32 1.392Zm28.8 17.28q-1.104 0-1.632-.528-.528-.528-.528-1.632v-6.576l-5.712 3.312q-.336.192-.648.288-.312.096-.6.096-.432 0-.792-.24-.36-.24-.648-.6-.288-.36-.456-.816-.168-.456-.168-.84 0-.528.288-.912t.864-.72l5.712-3.312-5.712-3.312q-.576-.336-.864-.72-.288-.384-.288-.912 0-.384.168-.84.168-.456.456-.816.288-.36.648-.6.36-.24.792-.24.288 0 .6.096t.648.288l5.712 3.312v-6.576q0-1.104.528-1.632.528-.528 1.632-.528 1.104 0 1.632.528.528.528.528 1.632v6.576l5.712-3.312q.336-.192.648-.288.312-.096.6-.096.432 0 .792.24.36.24.648.6.288.36.456.816.168.456.168.84 0 .528-.288.912t-.864.72l-5.712 3.312 5.712 3.312q.576.336.864.72.288.384.288.912 0 .384-.168.84-.168.456-.456.816-.288.36-.648.6-.36.24-.792.24-.288 0-.6-.096t-.648-.288l-5.712-3.312v6.576q0 1.104-.528 1.632-.528.528-1.632.528Zm26.64 7.44v-40.8q0-1.104.528-1.632.528-.528 1.632-.528 1.104 0 1.632.528.528.528.528 1.632v40.8q0 1.104-.528 1.632-.528.528-1.632.528-1.104 0-1.632-.528-.528-.528-.528-1.632Zm30.96-35.232q-1.488 0-2.76.408-1.272.408-2.184 1.296-.912.888-1.416 2.256-.504 1.368-.504 3.24 0 1.44.48 2.712.48 1.272 1.368 2.232.888.96 2.16 1.512 1.272.552 2.856.552 1.68 0 2.952-.6t2.136-1.608q.864-1.008 1.32-2.376.456-1.368.456-2.856 0-1.968-.552-3.288-.552-1.32-1.488-2.088-.936-.768-2.184-1.08-1.248-.312-2.64-.312Zm-3.456 31.344q-1.008.384-1.752.264t-1.272-1.08q-.48-.864-.264-1.68.216-.816 1.272-1.2 2.304-.768 4.392-2.136 2.088-1.368 3.744-3.168 1.656-1.8 2.76-4.008 1.104-2.208 1.44-4.656-1.296 2.256-3.288 3.552-1.992 1.296-4.968 1.296-2.064 0-3.864-.84-1.8-.84-3.12-2.352t-2.064-3.552q-.744-2.04-.744-4.44 0-2.88.888-5.064t2.4-3.648q1.512-1.464 3.528-2.208 2.016-.744 4.32-.744 2.544 0 4.608.648 2.064.648 3.528 2.184t2.28 4.152q.816 2.616.816 6.552 0 4.368-1.128 7.968-1.128 3.6-3.12 6.384-1.992 2.784-4.656 4.752-2.664 1.968-5.736 3.024ZM931.8 319.8q0 .384-.072.744t-.24.696q-.168.336-.48.528-.312.192-.792.192-.288 0-.624-.072t-.864-.312q-3.216-1.344-5.472-3.84Q921 315.24 919.584 312q-1.416-3.24-2.04-7.032-.624-3.792-.624-7.728 0-3.984.624-7.752t2.04-7.008q1.416-3.24 3.672-5.736 2.256-2.496 5.472-3.84.528-.24.864-.312.336-.072.624-.072.48 0 .792.192.312.192.48.528.168.336.24.696.072.36.072.744 0 .816-.36 1.248-.36.432-1.224.768-2.16.816-3.84 2.832-1.68 2.016-2.832 4.824t-1.728 6.144q-.576 3.336-.576 6.744t.6 6.624q.6 3.216 1.752 5.928 1.152 2.712 2.88 4.824 1.728 2.112 4.032 3.312.576.288.936.672.36.384.36 1.2Zm19.44-1.68v-40.8q0-1.104.528-1.632.528-.528 1.632-.528 1.104 0 1.632.528.528.528.528 1.632v40.8q0 1.104-.528 1.632-.528.528-1.632.528-1.104 0-1.632-.528-.528-.528-.528-1.632Zm30.96-3.6q-3.6 0-5.832-1.752-2.232-1.752-3.456-4.416-1.224-2.664-1.656-5.832-.432-3.168-.432-6t.432-6q.432-3.168 1.68-5.832 1.248-2.664 3.48-4.416 2.232-1.752 5.88-1.752 3.6 0 5.832 1.728 2.232 1.728 3.432 4.368 1.2 2.64 1.608 5.76.408 3.12.408 5.904 0 2.928-.432 6.144t-1.68 5.904q-1.248 2.688-3.456 4.44-2.208 1.752-5.808 1.752Zm0-4.32q2.304 0 3.696-1.512 1.392-1.512 2.136-3.648.744-2.136.984-4.512.24-2.376.24-4.104 0-1.248-.144-2.832l-12.816 11.28q.048.096.096.144.72 2.16 2.112 3.672 1.392 1.512 3.696 1.512Zm5.856-22.128v-.144q-.768-2.112-2.16-3.6-1.392-1.488-3.696-1.488-2.304 0-3.696 1.512-1.392 1.512-2.136 3.648-.744 2.136-.984 4.464-.24 2.328-.24 4.008 0 1.296.144 2.88l12.768-11.28ZM1003.8 319.8q0-.816.36-1.2t.936-.672q2.304-1.2 4.032-3.312 1.728-2.112 2.88-4.824 1.152-2.712 1.752-5.928.6-3.216.6-6.624 0-3.408-.576-6.744t-1.728-6.144q-1.152-2.808-2.832-4.824t-3.84-2.832q-.864-.336-1.224-.768t-.36-1.248q0-.384.072-.744t.264-.696q.192-.336.48-.528t.768-.192q.288 0 .624.072t.864.312q3.264 1.344 5.496 3.84 2.232 2.496 3.648 5.736 1.416 3.24 2.04 7.008.624 3.768.624 7.752 0 3.936-.624 7.728t-2.04 7.032q-1.416 3.24-3.648 5.736-2.232 2.496-5.496 3.84-.528.24-.864.312-.336.072-.624.072-.48 0-.768-.192-.288-.192-.48-.528t-.264-.696q-.072-.36-.072-.744Zm33.84-2.16v-38.88q0-1.104.528-1.632.528-.528 1.632-.528 1.104 0 1.632.528.528.528.528 1.632v38.88q0 1.104-.528 1.632-.528.528-1.632.528-1.104 0-1.632-.528-.528-.528-.528-1.632Zm22.32-11.52q-1.104 0-1.632-.528-.528-.528-.528-1.632 0-1.104.528-1.632.528-.528 1.632-.528h17.28q1.1 0 1.63.528.53.528.53 1.632 0 1.104-.53 1.632-.53.528-1.63.528h-17.28Zm0-11.52q-1.104 0-1.632-.528-.528-.528-.528-1.632 0-1.104.528-1.632.528-.528 1.632-.528h17.28q1.1 0 1.63.528.53.528.53 1.632 0 1.104-.53 1.632-.53.528-1.63.528h-17.28Zm37.44 14.88q-1.1 0-1.63-.528-.53-.528-.53-1.632v-6.96h-6.96q-1.1 0-1.63-.528-.53-.528-.53-1.632 0-1.104.53-1.632.53-.528 1.63-.528h6.96v-6.96q0-1.104.53-1.632.53-.528 1.63-.528 1.1 0 1.63.528.53.528.53 1.632v6.96h6.96q1.1 0 1.63.528.53.528.53 1.632 0 1.104-.53 1.632-.53.528-1.63.528h-6.96v6.96q0 1.104-.53 1.632-.53.528-1.63.528Zm26.64 8.64v-40.8q0-1.104.53-1.632.53-.528 1.63-.528 1.1 0 1.63.528.53.528.53 1.632v40.8q0 1.104-.53 1.632-.53.528-1.63.528-1.1 0-1.63-.528-.53-.528-.53-1.632Zm27.6 3.84q-1.97 0-2.9-.936-.94-.936-.94-2.904v-41.76q0-1.968.94-2.904.93-.936 2.9-.936h8.64q.91 0 1.42.6.5.6.5 1.56 0 .96-.5 1.56-.51.6-1.42.6h-6.24q-.96 0-1.44.48t-.48 1.44v36.96q0 .96.48 1.44t1.44.48h6.24q.91 0 1.42.6.5.6.5 1.56 0 .96-.5 1.56-.51.6-1.42.6h-8.64Zm35.52 0h-8.64q-.91 0-1.42-.6-.5-.6-.5-1.56 0-.96.5-1.56.51-.6 1.42-.6h6.24q.96 0 1.44-.48t.48-1.44v-36.96q0-.96-.48-1.44t-1.44-.48h-6.24q-.91 0-1.42-.6-.5-.6-.5-1.56 0-.96.5-1.56.51-.6 1.42-.6h8.64q1.97 0 2.9.936.94.936.94 2.904v41.76q0 1.968-.94 2.904-.93.936-2.9.936Zm23.28-3.84v-40.8q0-1.104.53-1.632.53-.528 1.63-.528 1.1 0 1.63.528.53.528.53 1.632v40.8q0 1.104-.53 1.632-.53.528-1.63.528-1.1 0-1.63-.528-.53-.528-.53-1.632Z" />
  </g>
</svg>