<svg xmlns="http://www.w3.org/2000/svg" fill="none" viewBox="0 0 1355 715">
  <defs>
    <radialGradient id="a" cx="0" cy="0" r="1" gradientTransform="matrix(-664 459 -459 -664 664 181)"
      gradientUnits="userSpaceOnUse">
      <stop offset="0" stop-color="#293A41" />
      <stop offset="1" stop-color="#171718" />
    </radialGradient>
    <linearGradient id="b" x1="-24" x2="645" y1="-47" y2="154" gradientUnits="userSpaceOnUse">
      <stop offset=".129" stop-color="#C8E2C6" />
      <stop offset=".46" stop-color="#ADE7F9" />
      <stop offset=".916" stop-color="#6F9AF8" />
    </linearGradient>
    <filter id="c" width="497" height="48" x="-495" y="-46" color-interpolation-filters="sRGB">
      <feFlood flood-opacity="0" result="BackgroundImageFix_1" />
      <feColorMatrix in="SourceAlpha" values="0 0 0 0 0 0 0 0 0 0 0 0 0 0 0 0 0 0 1 0" />
      <feOffset dy="4" />
      <feGaussianBlur stdDeviation="2" />
      <feColorMatrix values="0 0 0 0 0 0 0 0 0 0 0 0 0 0 0 0 0 0 0.251 0" />
      <feBlend in2="BackgroundImageFix_1" result="Shadow_2" />
      <feBlend in="SourceGraphic" in2="Shadow_2" result="Shape_3" />
    </filter>
  </defs>
  <path fill="url(#a)" fill-rule="evenodd" d="M0 0h1280v640H0z" transform="translate(37.5 37.5)" />
  <path fill="url(#b)"
    d="M51.696 97.392q1.488-1.488 1.488-4.56V37.824q0-5.472-2.352-8.208-2.352-2.736-7.248-2.736-3.84 0-6.288 1.728-2.448 1.728-3.12 5.376L29.856 55.2q-.288 1.44-1.056 1.44t-.96-1.44l-4.416-21.216q-.672-3.648-2.832-5.376-2.16-1.728-6.192-1.728-5.184 0-7.584 2.832-2.4 2.832-2.4 8.496v54.624q0 3.072 1.488 4.56 1.488 1.488 4.56 1.488 2.976 0 4.464-1.488 1.488-1.488 1.488-4.56V46.656q0-.576.432-.576t.528.576l5.088 22.656q.48 2.496 2.112 3.744 1.632 1.248 4.224 1.248 2.592 0 4.224-1.248 1.632-1.248 2.112-3.744l5.088-22.656q.096-.576.528-.576.432 0 .432.576v46.176q0 3.072 1.488 4.56 1.488 1.488 4.464 1.488 3.072 0 4.56-1.488Zm345.6 0q1.488-1.488 1.488-4.56V37.824q0-5.472-2.352-8.208-2.352-2.736-7.248-2.736-3.84 0-6.288 1.728-2.448 1.728-3.12 5.376l-4.32 21.216q-.288 1.44-1.056 1.44t-.96-1.44l-4.416-21.216q-.672-3.648-2.832-5.376-2.16-1.728-6.192-1.728-5.184 0-7.584 2.832-2.4 2.832-2.4 8.496v54.624q0 3.072 1.488 4.56 1.488 1.488 4.56 1.488 2.976 0 4.464-1.488 1.488-1.488 1.488-4.56V46.656q0-.576.432-.576t.528.576l5.088 22.656q.48 2.496 2.112 3.744 1.632 1.248 4.224 1.248 2.592 0 4.224-1.248 1.632-1.248 2.112-3.744l5.088-22.656q.096-.576.528-.576.432 0 .432.576v46.176q0 3.072 1.488 4.56 1.488 1.488 4.464 1.488 3.072 0 4.56-1.488Zm-190.32-13.536q-1.728-3.312-1.728-10.512V38.208q0-5.184-2.592-7.776-2.592-2.592-7.776-2.592h-11.616q-2.88 0-4.272 1.392-1.392 1.392-1.392 4.272 0 2.88 1.392 4.272 1.392 1.392 4.272 1.392h4.128q2.592 0 3.888 1.296 1.296 1.296 1.296 3.888V74.88q0 6.24 1.104 10.8 1.104 4.56 3.36 7.488 2.256 2.928 5.472 4.32 3.216 1.392 7.44 1.392 3.84 0 7.296-.48a20.542 20.542 0 0 0 6.624-2.112q2.304-1.152 2.928-3.168.624-2.016-.912-4.608-1.248-2.304-3.12-3.024-1.872-.72-4.656.528-1.536.672-3.024.912t-3.024.24q-3.36 0-5.088-3.312ZM73.392 97.584q3.216 1.296 6.672 1.296 4.992 0 8.544-2.256 3.552-2.256 5.76-6.288.576-.96 1.056-1.92.384 2.4.96 4.896.576 2.88 2.592 4.224 2.016 1.344 4.992 1.344t3.888-1.344q.912-1.344.24-4.224-1.344-6.24-1.92-11.808-.576-5.568-.624-10.8-.048-5.232.432-10.416t1.248-10.464q.384-2.88-.768-4.272-1.152-1.392-4.128-1.392-2.88 0-4.656 1.392-1.776 1.392-2.256 4.272 0 .384-.096.768-1.44-2.496-3.648-4.224-2.784-2.208-7.296-2.208-5.472 0-9.6 2.448-4.128 2.448-6.912 6.672t-4.176 9.984q-1.392 5.76-1.392 12.192 0 6.336 1.488 10.8t3.936 7.248q2.448 2.784 5.664 4.08Zm59.472-51.888q-1.632-1.536-4.8-1.536-3.264 0-4.752 1.536t-1.488 4.704v59.424q0 3.168 1.536 4.752 1.536 1.584 4.8 1.584t4.8-1.584q1.536-1.584 1.536-4.752V89.088q.768 4.512 4.224 7.152 3.456 2.64 8.256 2.64 6.24 0 10.224-2.544t6.24-6.576q2.256-4.032 3.168-9.024.912-4.992.912-9.792 0-5.568-.816-10.464-.816-4.896-2.832-8.496-2.016-3.6-5.616-5.712-3.6-2.112-9.072-2.112-3.264 0-5.664.864t-4.128 2.352q-1.728 1.488-2.928 3.552t-1.968 4.368V50.4q0-3.168-1.632-4.704Zm145.488 38.64q-1.392-1.872-3.792-1.872-.96 0-1.776.336-.816.336-1.776 1.104-1.248 1.056-4.08 2.16t-6.288 1.104q-2.496 0-4.752-.864t-3.936-2.784q-1.68-1.92-2.736-5.088-.384-1.344-.576-2.88h26.976q2.688 0 4.08-1.488t1.392-4.272q0-4.992-1.104-9.648t-3.6-8.208q-2.496-3.552-6.528-5.664-4.032-2.112-9.888-2.112-6.144 0-10.56 2.304t-7.248 6.192q-2.832 3.888-4.176 8.928-1.344 5.04-1.344 10.32 0 5.76 1.488 10.704 1.488 4.944 4.416 8.544 2.928 3.6 7.296 5.664 4.368 2.064 10.224 2.064 2.88 0 5.328-.336 2.448-.336 4.56-1.008 2.112-.672 3.84-1.632 1.728-.96 3.168-2.208 1.632-1.44 2.208-2.592.576-1.152.576-2.496 0-2.4-1.392-4.272Zm143.52 12.384q4.272 2.16 10.128 2.16t10.176-2.16q4.32-2.16 7.152-5.904 2.832-3.744 4.224-8.736 1.392-4.992 1.392-10.56 0-5.664-1.392-10.656-1.392-4.992-4.224-8.688-2.832-3.696-7.152-5.856-4.32-2.16-10.176-2.16t-10.176 2.16q-4.32 2.16-7.152 5.904-2.832 3.744-4.224 8.688-1.392 4.944-1.392 10.608 0 5.568 1.392 10.56 1.392 4.992 4.272 8.736 2.88 3.744 7.152 5.904Zm58.512-4.176V67.68q0-2.208.72-4.272t2.064-3.744q1.344-1.68 3.264-2.64 1.92-.96 4.224-.96 2.208 0 3.744.864t2.496 2.304q.96 1.44 1.44 3.264.48 1.824.48 3.648v26.4q0 3.168 1.584 4.752 1.584 1.584 4.752 1.584 3.264 0 4.8-1.584t1.536-4.752V63.456q0-4.128-1.248-7.68-1.248-3.552-3.696-6.096-2.448-2.544-5.856-4.032t-7.824-1.488q-4.8 0-8.064 2.736-3.264 2.736-4.8 7.632V50.4q0-3.168-1.728-4.704-1.728-1.536-4.608-1.536-2.976 0-4.464 1.536-1.488 1.536-1.488 4.704v42.144q0 3.168 1.536 4.752 1.536 1.584 4.8 1.584 3.168 0 4.752-1.584 1.584-1.584 1.584-4.752Zm56.688 4.176q4.272 2.16 10.128 2.16t10.176-2.16q4.32-2.16 7.152-5.904 2.832-3.744 4.224-8.736 1.392-4.992 1.392-10.56 0-5.664-1.392-10.656-1.392-4.992-4.224-8.688-2.832-3.696-7.152-5.856-4.32-2.16-10.176-2.16t-10.176 2.16q-4.32 2.16-7.152 5.904-2.832 3.744-4.224 8.688-1.392 4.944-1.392 10.608 0 5.568 1.392 10.56 1.392 4.992 4.272 8.736 2.88 3.744 7.152 5.904ZM436.56 86.592q-1.968 1.248-4.56 1.248-2.592 0-4.56-1.248-1.968-1.248-3.216-3.504-1.248-2.256-1.872-5.232-.624-2.976-.624-6.336 0-3.36.576-6.336.576-2.976 1.872-5.232 1.296-2.256 3.216-3.504Q429.312 55.2 432 55.2q2.688 0 4.608 1.248 1.92 1.248 3.216 3.456 1.296 2.208 1.872 5.184.576 2.976.576 6.432 0 3.36-.624 6.336-.624 2.976-1.872 5.232-1.248 2.256-3.216 3.504Zm115.2 0q-1.968 1.248-4.56 1.248-2.592 0-4.56-1.248-1.968-1.248-3.216-3.504-1.248-2.256-1.872-5.232-.624-2.976-.624-6.336 0-3.36.576-6.336.576-2.976 1.872-5.232 1.296-2.256 3.216-3.504 1.92-1.248 4.608-1.248 2.688 0 4.608 1.248 1.92 1.248 3.216 3.456 1.296 2.208 1.872 5.184.576 2.976.576 6.432 0 3.36-.624 6.336-.624 2.976-1.872 5.232-1.248 2.256-3.216 3.504Zm-465.12-.528q-2.064 1.104-4.176 1.104-3.84 0-5.664-3.216-1.824-3.216-1.824-8.496 0-4.032.816-7.584.816-3.552 2.4-6.24t3.744-4.224q2.16-1.536 4.944-1.536 2.208 0 3.552 1.104 1.344 1.104 2.112 2.928.768 1.824 1.008 4.272.24 2.448.24 5.04 0 4.512-.96 7.872-.96 3.36-2.544 5.616t-3.648 3.36Zm54.72-29.28q2.064-.912 4.272-.912 2.784 0 4.608 1.296 1.824 1.296 2.832 3.456 1.008 2.16 1.344 4.896.336 2.736.336 5.52 0 2.784-.336 5.664t-1.392 5.232q-1.056 2.352-3.024 3.792t-5.232 1.44q-2.304 0-4.224-1.104-1.92-1.104-3.264-2.976-1.344-1.872-2.064-4.224-.72-2.352-.72-4.848V68.16q0-2.688.912-4.944t2.4-3.888q1.488-1.632 3.552-2.544Zm127.344 9.072h-19.968q.096-.672.288-1.248.672-2.688 2.064-4.656 1.392-1.968 3.504-3.024t4.8-1.056q2.688 0 4.656.624 1.968.624 3.312 1.728 1.344 1.104 1.968 2.592.624 1.488.624 3.12 0 1.152-.336 1.536-.336.384-.912.384ZM0 0Zm576 126.72Z"
    transform="translate(389.5 148.5)" />
  <g fill="#323232" fill-opacity=".6">
    <path
      d="M1153.5 291.5c11.047 0 20 8.953 20 20v216c0 11.047-8.953 20-20 20h-952c-11.047 0-20-8.953-20-20v-216c0-11.047 8.953-20 20-20h952Z" />
    <path fill="#A09E9E" fill-rule="evenodd"
      d="M1173.5 311.5c0-11.047-8.953-20-20-20h-952c-11.047 0-20 8.953-20 20v216c0 11.047 8.953 20 20 20h952c11.047 0 20-8.953 20-20v-216Zm-972-14h952q5.8 0 9.9 4.1 4.1 4.1 4.1 9.9v216q0 5.8-4.1 9.9-4.1 4.1-9.9 4.1h-952q-5.8 0-9.9-4.1-4.1-4.1-4.1-9.9v-216q0-5.8 4.1-9.9 4.1-4.1 9.9-4.1Z" />
  </g>
  <path fill="#EECFA0"
    d="M229.384 363.58q-1.116 0-2.106-.144-.99-.144-1.818-.468-.828-.324-1.53-.864-.702-.54-1.242-1.368-.324-.396-.432-.918-.108-.522-.036-1.062.18-.864.702-1.242t1.098-.378q.396 0 .702.144.306.144.63.504.504.54.99.954.486.414 1.008.702t1.17.432q.648.144 1.476.144.612 0 1.386-.072.774-.072 1.494-.306.72-.234 1.242-.684.522-.45.666-1.17.18-.936-.342-1.458-.522-.522-1.422-.846l-5.256-1.836q-.72-.252-1.368-.63-.648-.378-1.08-.972-.432-.594-.63-1.404-.198-.81.018-1.962.252-1.548 1.026-2.61.774-1.062 1.89-1.728 1.116-.666 2.502-.972 1.386-.306 2.862-.306 2.304 0 4.086.738 1.782.738 2.466 2.178.216.36.27.72.054.36-.018.72-.108.72-.612 1.188-.504.468-1.26.468-.36 0-.792-.144-.432-.144-.72-.54-.648-.756-1.548-1.26t-2.52-.504q-1.476 0-2.61.504t-1.314 1.584q-.144.612.162 1.026.306.414.882.666l5.04 1.872q.972.36 1.782.792.81.432 1.368 1.062.558.63.792 1.512.234.882.018 2.142-.288 1.656-1.152 2.772-.864 1.116-2.088 1.782-1.224.666-2.736.954-1.512.288-3.096.288Zm28.476 0q-.972 0-1.458-.45t-.702-1.386q-.144-.468-.162-.972-.018-.504.054-.972-.864 1.764-2.268 2.772-1.404 1.008-3.312 1.008-1.512 0-2.646-.504t-1.854-1.422q-.72-.918-.972-2.196t0-2.826l2.052-11.7q.18-.972.72-1.422.54-.45 1.476-.45.936 0 1.314.45t.234 1.422l-1.908 10.728q-.144.864-.072 1.656.072.792.414 1.404.342.612.954.99.612.378 1.548.378t1.8-.522q.864-.522 1.566-1.296.702-.774 1.17-1.71.468-.936.612-1.764l1.764-9.864q.144-.972.684-1.422.54-.45 1.476-.45.972 0 1.35.45.378.45.198 1.422l-2.628 14.832q-.072.504-.054.99.018.486.162.99.18.936-.198 1.386-.378.45-1.314.45Zm8.748 0q-.972 0-1.332-.468-.36-.468-.216-1.404l4.14-23.256q.18-.972.702-1.422.522-.45 1.458-.45.936 0 1.332.45t.216 1.422l-1.476 8.316q.9-1.62 2.25-2.664t3.258-1.044q2.304 0 3.582.972t1.818 2.52q.54 1.548.504 3.474-.036 1.926-.36 3.834-.324 1.8-.9 3.546-.576 1.746-1.584 3.114-1.008 1.368-2.52 2.214-1.512.846-3.636.846-1.116 0-1.908-.306-.792-.306-1.35-.828t-.882-1.26q-.324-.738-.504-1.638l-.396 2.16q-.18.936-.72 1.404-.54.468-1.476.468Zm7.236-3.6q1.116 0 1.962-.486.846-.486 1.422-1.35.576-.864.954-2.016.378-1.152.594-2.412.216-1.296.306-2.556t-.18-2.268q-.27-1.008-1.026-1.62-.756-.612-2.196-.612-.936 0-1.8.504t-1.566 1.296q-.702.792-1.17 1.728-.468.936-.612 1.836l-.612 3.384q-.144.9.09 1.728.234.828.756 1.458t1.332 1.008q.81.378 1.746.378Zm31.068-13.716q.828 0 1.206.486t.234 1.314q-.144.828-.684 1.314-.54.486-1.368.486h-14.472q-.828 0-1.224-.486t-.252-1.314q.144-.828.72-1.314.576-.486 1.404-.486h14.436Zm-9.144 17.604q-.288 1.62-.936 2.934-.648 1.314-1.674 2.232-1.026.918-2.412 1.44-1.386.522-3.114.522h-1.692q-.792 0-1.206-.486-.414-.486-.27-1.314.144-.828.72-1.296.576-.468 1.404-.468h1.656q1.332 0 2.412-.918 1.08-.918 1.368-2.646l3.708-20.952q.504-2.988 2.412-4.482 1.908-1.494 5.184-1.494h2.124q.828 0 1.224.486t.288 1.278q-.18.828-.738 1.314-.558.486-1.386.486h-2.16q-1.08 0-2.052.594t-1.188 1.818l-3.672 20.952Zm14.832-.288q-.936 0-1.314-.45t-.234-1.422l2.664-14.832q.108-.504.072-.99-.036-.486-.144-.99-.18-.936.198-1.386.378-.45 1.314-.45t1.422.45q.486.45.702 1.386.144.468.162.972.018.504-.054.972.936-1.764 2.754-2.772 1.818-1.008 4.41-1.008 1.62 0 2.556.558.936.558 1.368 1.53.432.972.432 2.268 0 1.296-.252 2.772l-.072.432q-.216.936-.738 1.404-.522.468-1.458.468-.936 0-1.332-.468t-.18-1.368l.036-.396q.144-.756.18-1.476.036-.72-.18-1.278t-.72-.882q-.504-.324-1.44-.324-.9 0-1.89.306-.99.306-1.836.882-.846.576-1.494 1.422t-.828 1.89l-1.944 10.908q-.18.972-.702 1.422-.522.45-1.458.45Zm24.552 0q-1.296 0-2.358-.45t-1.746-1.458q-.684-1.008-.9-2.628-.216-1.62.18-3.996.432-2.484 1.332-4.68.9-2.196 2.232-3.816 1.332-1.62 3.06-2.556 1.728-.936 3.78-.936 1.728 0 2.556.864.828.864 1.098 2.196.27 1.332.108 2.97-.162 1.638-.45 3.114-.36 2.124-1.026 4.158-.666 2.034-1.746 3.654t-2.592 2.592q-1.512.972-3.528.972Zm1.152-3.6q1.044 0 2.034-.54.99-.54 1.818-1.548.828-1.008 1.458-2.43.63-1.422.954-3.222.18-.9.288-1.89.108-.99-.036-1.8t-.648-1.35q-.504-.54-1.584-.54t-2.124.666q-1.044.666-1.926 1.818-.882 1.152-1.548 2.736-.666 1.584-.954 3.384-.396 2.196.144 3.456.54 1.26 2.124 1.26Zm8.244-15.156q.288-.972.9-1.368.612-.396 1.476-.396.972 0 1.26.414.288.414-.036 1.35-.684 2.088-1.224 4.104-.54 2.016-.864 4.086-.324 2.07-.432 4.248-.108 2.178.036 4.59.072.864-.324 1.296-.396.432-1.332.432t-1.422-.432q-.486-.432-.522-1.296-.18-2.412-.072-4.59t.45-4.248q.342-2.07.882-4.086.54-2.016 1.224-4.104Zm7.344 18.468q-.828 0-1.296-.396-.468-.396-.288-1.296l2.808-15.804q.072-.288.036-.558-.036-.27-.18-.558-.288-.792.198-1.206.486-.414 1.242-.414.828 0 1.35.414.522.414.81 1.206.144.288.18.558.036.27-.036.558.504-1.404 1.368-2.07.864-.666 2.304-.666 1.548 0 2.322.828t.774 1.908q.432-1.152 1.368-1.944.936-.792 2.556-.792 1.08 0 1.8.378t1.098 1.044q.378.666.468 1.566.09.9-.09 1.944l-2.412 13.608q-.18.9-.756 1.296-.576.396-1.368.396-.828 0-1.296-.396-.468-.396-.288-1.296l2.268-12.96q.072-.468.072-.882t-.144-.756q-.144-.342-.45-.54-.306-.198-.81-.198-1.008 0-1.512.72t-.684 1.62L361 361.78q-.144.828-.702 1.17-.558.342-1.278.342-.756 0-1.188-.342-.432-.342-.252-1.17l2.304-13.14q.072-.468.054-.882-.018-.414-.162-.738-.144-.324-.432-.54-.288-.216-.792-.216-1.044 0-1.566.702t-.666 1.638l-2.304 12.996q-.18.9-.738 1.296t-1.386.396Zm36.648-4.428q.54.756.414 1.476-.126.72-.846 1.224-1.584 1.224-3.33 1.62-1.746.396-3.978.396-1.44 0-2.646-.486t-2.106-1.386q-.9-.9-1.404-2.142-.504-1.242-.576-2.754-.144-3.564.72-6.138t2.376-4.284q1.512-1.71 3.546-2.52t4.266-.81q2.988 0 4.572 1.422t1.8 3.942q.144 2.016-.666 3.276-.81 1.26-2.214 1.962t-3.222.972q-1.818.27-3.726.306-1.908.036-3.69-.072-1.782-.108-3.114-.144l.108-3.168q1.188.072 2.61.144t2.88.09q1.458.018 2.844-.09t2.43-.432q1.044-.324 1.62-.954.576-.63.504-1.674-.036-.504-.288-.882t-.612-.63q-.36-.252-.9-.396-.54-.144-1.188-.144-1.26 0-2.556.54t-2.322 1.728q-1.026 1.188-1.656 3.078-.63 1.89-.594 4.59.036.828.342 1.476.306.648.792 1.098.486.45 1.152.684.666.234 1.386.234.828 0 1.476-.072t1.224-.234q.576-.162 1.116-.414.54-.252 1.08-.612.72-.504 1.332-.486.612.018 1.044.666Zm9.972 2.196 11.16-19.08q.18-.216.234-.396.054-.18.054-.324.072-.396-.162-.558-.234-.162-.846-.162h-9.684q-.9 0-1.278-.45t-.198-1.35q.144-.9.666-1.35.522-.45 1.458-.45h12.42q1.44 0 2.016.684.576.684.36 2.016-.072.468-.216.846-.144.378-.324.702l-12.312 21.168q-.396.612-.954.918-.558.306-1.386.306-.864 0-1.26-.306t-.252-.954q.036-.252.162-.576.126-.324.342-.684Zm34.704-5.328q-.324 1.764-1.188 3.204-.864 1.44-2.196 2.484-1.332 1.044-3.114 1.602-1.782.558-3.942.558-1.584 0-3.204-.306t-2.772-.882q-.684-.288-.864-.99-.18-.702.36-1.458.432-.684 1.17-.972.738-.288 1.674.108.864.396 2.016.648 1.152.252 2.304.252 2.412 0 4.05-1.224t2.106-3.672q.18-1.26-.234-2.088-.414-.828-1.314-1.35-.9-.522-2.232-.72-1.332-.198-2.952-.198h-.72q-1.584 0-2.196-.756-.612-.756-.324-2.34l1.368-7.668q.252-1.548 1.134-2.286.882-.738 2.43-.738h9.648q.9 0 1.278.45t.198 1.35q-.18.9-.684 1.35-.504.45-1.404.45h-7.452q-.792 0-1.224.378-.432.378-.576 1.134l-.648 3.6q-.144.792.18 1.17.324.378 1.08.378 1.728 0 3.42.27t2.934 1.152q1.242.882 1.8 2.574.558 1.692.09 4.536Zm5.184 6.66q-.684-.288-.864-.99-.18-.702.36-1.458.432-.684 1.17-.972.738-.288 1.674.108.864.396 2.016.648 1.152.252 2.304.252 2.412 0 4.05-1.224t2.106-3.672q.216-1.332-.432-2.124t-1.728-1.17q-1.08-.378-2.394-.468-1.314-.09-2.466-.054-.36.036-.666-.054-.306-.09-.522-.306-.216-.216-.288-.576-.072-.36 0-.9.18-.936.756-1.35.576-.414 1.728-.414.936 0 2.034-.18 1.098-.18 2.106-.648 1.008-.468 1.764-1.26t.936-1.98q.18-1.008-.162-1.656-.342-.648-.954-1.044-.612-.396-1.422-.558-.81-.162-1.638-.162-.9 0-1.764.18t-1.764.648q-.72.36-1.35.108-.63-.252-.846-.972-.216-.684.108-1.368t1.152-1.152q.9-.504 2.286-.774 1.386-.27 2.862-.27 1.584 0 3.042.324 1.458.324 2.52 1.116t1.548 2.07q.486 1.278.162 3.114-.18 1.008-.558 1.998-.378.99-1.008 1.782t-1.494 1.368q-.864.576-1.944.756 1.296.108 2.178.648.882.54 1.35 1.422.468.882.576 2.034.108 1.152-.108 2.52-.324 1.764-1.188 3.204-.864 1.44-2.196 2.484-1.332 1.044-3.114 1.602-1.782.558-3.942.558-1.584 0-3.204-.306t-2.772-.882Zm29.196-2.412q1.116 0 2.052-.324.936-.324 1.674-.972.738-.648 1.242-1.62.504-.972.756-2.232.144-.972-.018-1.872-.162-.9-.666-1.566t-1.332-1.044q-.828-.378-1.944-.378-1.188 0-2.16.414-.972.414-1.71 1.134t-1.188 1.674q-.45.954-.666 2.034-.216 1.296-.018 2.214.198.918.738 1.476.54.558 1.386.81.846.252 1.854.252Zm6.588-23.184q.864-.288 1.44-.144t.864.936q.252.756-.054 1.404-.306.648-1.278 1.008-1.764.576-3.42 1.512t-3.042 2.178q-1.386 1.242-2.43 2.772-1.044 1.53-1.62 3.222 1.188-1.62 2.79-2.466 1.602-.846 3.726-.846 1.548 0 2.79.63t2.034 1.746q.792 1.116 1.08 2.646.288 1.53-.036 3.33-.36 2.16-1.314 3.816-.954 1.656-2.286 2.772-1.332 1.116-2.988 1.692-1.656.576-3.456.576-1.98 0-3.492-.54t-2.394-1.746q-.882-1.206-1.116-3.168-.234-1.962.27-4.77.576-3.276 1.872-5.958 1.296-2.682 3.114-4.752 1.818-2.07 4.104-3.546t4.842-2.304Z" />
  <path fill="#C9DDE8"
    d="M521.932 359.98q.72 0 1.134.45.414.45.414 1.17t-.414 1.17c-.276.3-.654.45-1.134.45h-13.824c-.48 0-.858-.15-1.134-.45q-.414-.45-.414-1.17t.414-1.17q.414-.45 1.134-.45h13.824Zm-8.352 1.8v-12.96q0-.72-.36-1.08-.36-.36-1.08-.36h-3.276q-.72 0-1.152-.45-.432-.45-.432-1.17t.432-1.17q.432-.45 1.152-.45h5.076q1.476 0 2.178.702t.702 2.178v14.76h-3.24Zm1.44-21.204q-1.188 0-1.872-.612-.684-.612-.684-1.656 0-1.08.684-1.71.684-.63 1.872-.63 1.188 0 1.872.63.684.63.684 1.71 0 1.044-.684 1.656-.684.612-1.872.612Zm16.74 11.268v10.116q0 .828-.396 1.224t-1.224.396q-.828 0-1.224-.396t-.396-1.224v-17.28q0-.828.396-1.224t1.224-.396q.828 0 1.224.396t.396 1.224v2.124q.504-1.728 1.728-2.736 1.224-1.008 3.204-1.008 1.44 0 2.646.486t2.088 1.386q.882.9 1.368 2.16.486 1.26.486 2.808v12.06q0 .828-.396 1.224t-1.224.396q-.828 0-1.224-.396t-.396-1.224v-11.124q0-.936-.252-1.782t-.738-1.494q-.486-.648-1.206-1.044t-1.692-.396q-.972 0-1.782.576t-1.386 1.422q-.576.846-.9 1.854-.324 1.008-.324 1.872Z" />
  <path fill="#A4DFAE"
    d="M585.34 348.64q0-.828.396-1.224t1.224-.396q.828 0 1.224.396t.396 1.224v1.62q0 .9-.252 1.728t-.81 1.44q-.558.612-1.44.972-.882.36-2.178.36-1.692 0-2.718-.702t-1.764-1.548q-.738-.846-1.332-1.548-.594-.702-1.386-.702-.72 0-1.08.432-.36.432-.36 1.116v1.332q0 .828-.396 1.224t-1.224.396q-.828 0-1.224-.396t-.396-1.224v-1.692q0-.936.252-1.746.252-.81.81-1.404.558-.594 1.44-.936.882-.342 2.178-.342 1.62 0 2.646.702 1.026.702 1.764 1.548l1.35 1.548q.612.702 1.44.702.756 0 1.098-.414.342-.414.342-1.206v-1.26Zm9.252 17.136 11.592-31.356q.18-.54.594-.81t1.134-.27q.72 0 1.116.27.396.27.396.846 0 .216-.054.468t-.162.54l-11.592 31.356q-.18.54-.594.81t-1.134.27q-.72 0-1.116-.27-.396-.27-.396-.846 0-.216.054-.468t.162-.54Zm21.816-2.556c-.48 0-.888-.12-1.224-.36q-.504-.36-.504-1.152V344.5q0-.684.468-1.062t1.152-.378q.72 0 1.17.378.45.378.45 1.062v1.26q.396-1.26 1.062-1.98t2.142-.72q1.548 0 2.448.81.9.81 1.08 1.89.288-1.152 1.08-1.926t2.412-.774q1.116 0 1.908.396.792.396 1.296 1.098.504.702.738 1.62.234.918.234 1.998v13.536q0 .792-.486 1.152c-.324.24-.726.36-1.206.36s-.882-.12-1.206-.36q-.486-.36-.486-1.152v-13.212q0-.972-.414-1.782t-1.566-.81q-1.116 0-1.53.792-.414.792-.414 1.764v13.428q0 .72-.432 1.026-.432.306-1.08.306-.648 0-1.08-.306-.432-.306-.432-1.026v-13.392q0-.936-.396-1.764t-1.548-.828q-1.116 0-1.548.774-.432.774-.432 1.782v13.248q0 .792-.468 1.152c-.312.24-.708.36-1.188.36Zm26.604.36q-1.296 0-2.43-.432-1.134-.432-1.962-1.422-.828-.99-1.314-2.592-.486-1.602-.486-3.978 0-2.484.504-4.698.504-2.214 1.53-3.852t2.592-2.592q1.566-.954 3.654-.954 1.728 0 2.7.882.972.882 1.458 2.232t.594 2.952q.108 1.602.108 3.006 0 1.98-.306 4.014-.306 2.034-1.098 3.69-.792 1.656-2.142 2.7-1.35 1.044-3.402 1.044Zm.324-3.24q1.116 0 2.07-.594.954-.594 1.638-1.674.684-1.08 1.08-2.592t.396-3.348q0-.864-.054-1.89-.054-1.026-.342-1.89-.288-.864-.918-1.458-.63-.594-1.818-.594-1.116 0-2.088.702t-1.692 1.926q-.72 1.224-1.134 2.916-.414 1.692-.414 3.636 0 2.304.81 3.582t2.466 1.278Zm5.868-15.696q.144-.9.612-1.242.468-.342 1.224-.342.864 0 1.206.378.342.378.198 1.206-.36 2.124-.54 4.194-.18 2.07-.126 4.176.054 2.106.36 4.32.306 2.214.882 4.662.18.792-.108 1.188-.288.396-1.116.396-.828 0-1.332-.396-.504-.396-.684-1.188-.612-2.448-.9-4.662-.288-2.214-.324-4.32-.036-2.106.144-4.176.18-2.07.504-4.194Zm11.556-1.584q.828 0 1.224.414t.396 1.242v2.304q.324-.9.81-1.62.486-.72 1.134-1.242.648-.522 1.476-.81.828-.288 1.872-.288 2.196 0 3.564.864 1.368.864 2.124 2.25.756 1.386 1.008 3.078t.252 3.384q0 1.944-.288 3.888t-1.08 3.51q-.792 1.566-2.232 2.556-1.44.99-3.708.99-1.98 0-3.294-1.062t-1.638-2.682v8.604q0 .828-.396 1.224t-1.224.396q-.828 0-1.224-.396t-.396-1.224v-23.724q0-.828.396-1.242.396-.414 1.224-.414Zm6.588 3.24q-.972 0-1.872.396-.9.396-1.584 1.026t-1.098 1.44q-.414.81-.414 1.674v3.96q0 .864.324 1.836.324.972.9 1.8.576.828 1.386 1.368.81.54 1.782.54 1.548 0 2.448-.648.9-.648 1.386-1.71.486-1.062.63-2.412.144-1.35.144-2.718 0-1.404-.18-2.61t-.63-2.088q-.45-.882-1.242-1.368-.792-.486-1.98-.486Zm21.276 8.856q0 2.592.774 3.888.774 1.296 2.286 1.296.72 0 1.404-.108.684-.108 1.512-.504.72-.396 1.278-.198t.954.882q.432.72.27 1.314-.162.594-.846.954c-.72.384-1.5.63-2.34.738q-1.26.162-2.772.162-1.296 0-2.358-.468t-1.818-1.422q-.756-.954-1.17-2.43-.414-1.476-.414-3.492l.036-14.436q0-.72-.36-1.08-.36-.36-1.08-.36h-2.664q-.72 0-1.098-.378-.378-.378-.378-1.098 0-.72.378-1.098.378-.378 1.098-.378h4.464q1.476 0 2.178.702t.702 2.178l-.036 15.336Zm27 3.312q.684 0 1.134.486.45.486.45 1.098 0 .324-.162.63t-.594.738q-.576.54-1.224.936t-1.386.684q-.738.288-1.548.414t-1.71.126q-2.088 0-3.726-.702t-2.772-2.016q-1.134-1.314-1.746-3.204-.612-1.89-.612-4.23 0-2.052.486-3.942.486-1.89 1.53-3.312t2.682-2.268q1.638-.846 3.942-.846 2.16 0 3.564.738t2.232 2.07q.828 1.332 1.152 3.114.324 1.782.324 3.906 0 .648-.468 1.17-.468.522-1.224.522h-12.24v-2.88h10.116q.18 0 .378-.216t.198-.972q0-.756-.252-1.512t-.792-1.35q-.54-.594-1.368-.972-.828-.378-1.98-.378-1.296 0-2.25.522t-1.566 1.44q-.612.918-.918 2.16-.306 1.242-.306 2.718 0 1.836.396 3.186.396 1.35 1.134 2.232.738.882 1.782 1.332 1.044.45 2.34.45 1.62 0 2.574-.504.954-.504 1.494-.936.288-.252.468-.342.18-.09.468-.09Zm9.396-5.508q-.828 0-1.224-.396t-.396-1.224q0-.828.396-1.224t1.224-.396h12.96q.828 0 1.224.396t.396 1.224q0 .828-.396 1.224t-1.224.396h-12.96Zm35.136-3.42h-14.652q-.72 0-1.152-.45-.432-.45-.432-1.17t.432-1.17q.432-.45 1.152-.45h14.652q.72 0 1.152.45.432.45.432 1.17t-.432 1.17q-.432.45-1.152.45Zm-6.876-6.84v19.26q0 .828-.396 1.224t-1.224.396q-.828 0-1.224-.396t-.396-1.224V342.7q0-1.332.486-2.394t1.35-1.818q.864-.756 1.998-1.152 1.134-.396 2.43-.396h3.42q.72 0 1.188.45.468.45.468 1.17t-.468 1.17q-.468.45-1.188.45h-3.42q-.72 0-1.296.234-.576.234-.954.612t-.576.828q-.198.45-.198.846Zm21.42 20.88q-2.088 0-3.6-.774t-2.52-2.142q-1.008-1.368-1.494-3.258t-.486-4.122q0-2.232.468-4.104.468-1.872 1.476-3.222 1.008-1.35 2.538-2.124 1.53-.774 3.618-.774 2.124 0 3.654.774 1.53.774 2.52 2.124t1.458 3.222q.468 1.872.468 4.104t-.486 4.122q-.486 1.89-1.476 3.258t-2.52 2.142q-1.53.774-3.618.774Zm0-3.24q1.26 0 2.178-.522.918-.522 1.512-1.44.594-.918.882-2.232.288-1.314.288-2.862t-.27-2.826q-.27-1.278-.864-2.196-.594-.918-1.512-1.44-.918-.522-2.214-.522-1.296 0-2.214.522-.918.522-1.512 1.44-.594.918-.864 2.214-.27 1.296-.27 2.844 0 1.548.288 2.844.288 1.296.882 2.214.594.918 1.512 1.44.918.522 2.178.522Zm17.46-8.496v10.116q0 .828-.396 1.224t-1.224.396q-.828 0-1.224-.396t-.396-1.224v-17.28q0-.828.396-1.224t1.224-.396q.828 0 1.224.396t.396 1.224v2.124q.504-1.728 1.728-2.736 1.224-1.008 3.204-1.008 1.44 0 2.646.486t2.088 1.386q.882.9 1.368 2.16.486 1.26.486 2.808v12.06q0 .828-.396 1.224t-1.224.396q-.828 0-1.224-.396t-.396-1.224v-11.124q0-.936-.252-1.782t-.738-1.494q-.486-.648-1.206-1.044t-1.692-.396q-.972 0-1.782.576t-1.386 1.422q-.576.846-.9 1.854-.324 1.008-.324 1.872Zm32.184-7.704q.72 0 1.098.45.378.45.378 1.17t-.378 1.17q-.378.45-1.098.45h-14.076q-.72 0-1.098-.45-.378-.45-.378-1.17t.378-1.17q.378-.45 1.098-.45h14.076Zm-.648 15.588q.72-.396 1.278-.198t.954.882q.432.72.27 1.314-.162.594-.846.954c-.72.384-1.5.63-2.34.738q-1.26.162-2.772.162-1.296 0-2.358-.468t-1.818-1.422q-.756-.954-1.17-2.43-.414-1.476-.414-3.492V339.46q0-.828.396-1.224t1.224-.396q.828 0 1.224.396t.396 1.224v15.696q0 2.592.774 3.888.774 1.296 2.286 1.296.72 0 1.404-.108.684-.108 1.512-.504Z" />
  <path fill="#C9DDE8"
    d="M862.3 363.58q-2.088 0-3.6-.774t-2.52-2.142q-1.008-1.368-1.494-3.258t-.486-4.122q0-2.232.468-4.104.468-1.872 1.476-3.222 1.008-1.35 2.538-2.124 1.53-.774 3.618-.774 2.124 0 3.654.774 1.53.774 2.52 2.124t1.458 3.222q.468 1.872.468 4.104t-.486 4.122q-.486 1.89-1.476 3.258t-2.52 2.142q-1.53.774-3.618.774Zm0-3.24q1.26 0 2.178-.522.918-.522 1.512-1.44.594-.918.882-2.232.288-1.314.288-2.862t-.27-2.826q-.27-1.278-.864-2.196-.594-.918-1.512-1.44-.918-.522-2.214-.522-1.296 0-2.214.522-.918.522-1.512 1.44-.594.918-.864 2.214-.27 1.296-.27 2.844 0 1.548.288 2.844.288 1.296.882 2.214.594.918 1.512 1.44.918.522 2.178.522Zm17.46-8.496v10.116q0 .828-.396 1.224t-1.224.396q-.828 0-1.224-.396t-.396-1.224v-17.28q0-.828.396-1.224t1.224-.396q.828 0 1.224.396t.396 1.224v2.124q.504-1.728 1.728-2.736 1.224-1.008 3.204-1.008 1.44 0 2.646.486t2.088 1.386q.882.9 1.368 2.16.486 1.26.486 2.808v12.06q0 .828-.396 1.224t-1.224.396q-.828 0-1.224-.396t-.396-1.224v-11.124q0-.936-.252-1.782t-.738-1.494q-.486-.648-1.206-1.044t-1.692-.396q-.972 0-1.782.576t-1.386 1.422q-.576.846-.9 1.854-.324 1.008-.324 1.872Z" />
  <path fill="#85C2FF"
    d="M925.06 370.78q0 1.08-.54 1.62t-1.62.54q-1.08 0-1.62-.54t-.54-1.62v-11.556q0-1.62.792-3.204t2.124-2.556l5.22-3.888q.9-.648 1.422-1.458.522-.81.522-1.494v-5.58q0-.288-.126-.414t-.414-.126h-1.26q-1.08 0-1.242-.378-.162-.378.594-1.134l3.852-3.852q.396-.396.756-.396t.756.396l3.852 3.852q.756.756.594 1.134-.162.378-1.242.378h-1.26q-.288 0-.414.126t-.126.414v5.94q0 1.332-.72 2.682-.72 1.35-1.872 2.214l-5.58 4.14q-.936.684-1.422 1.62-.486.936-.486 1.98v11.16Zm-4.32-40.32q0-1.08.54-1.62t1.62-.54q1.08 0 1.62.54t.54 1.62v16.452l-4.32 3.204V330.46Zm48.492 31.392-5.868-16.92q-.108-.36-.054-.684.054-.324.252-.594.198-.27.54-.432.342-.162.774-.162.612 0 1.062.324.45.324.666.936l4.356 12.6q.18.54.54.54.36 0 .54-.54l4.356-12.6q.216-.612.666-.936.45-.324 1.062-.324.432 0 .774.162t.54.432q.198.27.252.594.054.324-.054.684l-5.868 16.92q-.288.864-.81 1.296-.522.432-1.458.432-.9 0-1.44-.432-.54-.432-.828-1.296Zm21.78 1.728q-1.296 0-2.43-.432-1.134-.432-1.962-1.422-.828-.99-1.314-2.592-.486-1.602-.486-3.978 0-2.484.504-4.698.504-2.214 1.53-3.852t2.592-2.592q1.566-.954 3.654-.954 1.728 0 2.7.882.972.882 1.458 2.232t.594 2.952q.108 1.602.108 3.006 0 1.98-.306 4.014-.306 2.034-1.098 3.69-.792 1.656-2.142 2.7-1.35 1.044-3.402 1.044Zm.324-3.24q1.116 0 2.07-.594.954-.594 1.638-1.674.684-1.08 1.08-2.592t.396-3.348q0-.864-.054-1.89-.054-1.026-.342-1.89-.288-.864-.918-1.458-.63-.594-1.818-.594-1.116 0-2.088.702t-1.692 1.926q-.72 1.224-1.134 2.916-.414 1.692-.414 3.636 0 2.304.81 3.582t2.466 1.278Zm5.868-15.696q.144-.9.612-1.242.468-.342 1.224-.342.864 0 1.206.378.342.378.198 1.206-.36 2.124-.54 4.194-.18 2.07-.126 4.176.054 2.106.36 4.32.306 2.214.882 4.662.18.792-.108 1.188-.288.396-1.116.396-.828 0-1.332-.396-.504-.396-.684-1.188-.612-2.448-.9-4.662-.288-2.214-.324-4.32-.036-2.106.144-4.176.18-2.07.504-4.194Zm12.276 18.936q-.828 0-1.224-.396t-.396-1.224v-17.28q0-.828.396-1.224t1.224-.396q.828 0 1.224.396t.396 1.224v2.124q.612-1.728 2.286-2.736 1.674-1.008 4.338-1.008 1.62 0 2.646.576 1.026.576 1.602 1.548.576.972.792 2.268.216 1.296.216 2.736v.432q0 .828-.396 1.224t-1.224.396q-.828 0-1.224-.396t-.396-1.224v-.432q0-.828-.108-1.602-.108-.774-.432-1.386-.324-.612-.936-.972-.612-.36-1.656-.36-.936 0-1.908.324-.972.324-1.782.936-.81.612-1.314 1.494t-.504 1.998v11.34q0 .828-.396 1.224t-1.224.396Zm34.452-3.6q.72 0 1.134.45.414.45.414 1.17t-.414 1.17c-.276.3-.654.45-1.134.45h-13.824c-.48 0-.858-.15-1.134-.45q-.414-.45-.414-1.17t.414-1.17q.414-.45 1.134-.45h13.824Zm-8.352 1.8v-12.96q0-.72-.36-1.08-.36-.36-1.08-.36h-3.276q-.72 0-1.152-.45-.432-.45-.432-1.17t.432-1.17q.432-.45 1.152-.45h5.076q1.476 0 2.178.702t.702 2.178v14.76h-3.24Zm1.44-21.204q-1.188 0-1.872-.612-.684-.612-.684-1.656 0-1.08.684-1.71.684-.63 1.872-.63 1.188 0 1.872.63.684.63.684 1.71 0 1.044-.684 1.656-.684.612-1.872.612Zm18.792 23.004q-1.296 0-2.43-.432-1.134-.432-1.962-1.422-.828-.99-1.314-2.592-.486-1.602-.486-3.978 0-2.484.504-4.698.504-2.214 1.53-3.852t2.592-2.592q1.566-.954 3.654-.954 1.728 0 2.7.882.972.882 1.458 2.232t.594 2.952q.108 1.602.108 3.006 0 1.98-.306 4.014-.306 2.034-1.098 3.69-.792 1.656-2.142 2.7-1.35 1.044-3.402 1.044Zm.324-3.24q1.116 0 2.07-.594.954-.594 1.638-1.674.684-1.08 1.08-2.592t.396-3.348q0-.864-.054-1.89-.054-1.026-.342-1.89-.288-.864-.918-1.458-.63-.594-1.818-.594-1.116 0-2.088.702t-1.692 1.926q-.72 1.224-1.134 2.916-.414 1.692-.414 3.636 0 2.304.81 3.582t2.466 1.278Zm5.868-15.696q.144-.9.612-1.242.468-.342 1.224-.342.864 0 1.206.378.342.378.198 1.206-.36 2.124-.54 4.194-.18 2.07-.126 4.176.054 2.106.36 4.32.306 2.214.882 4.662.18.792-.108 1.188-.288.396-1.116.396-.828 0-1.332-.396-.504-.396-.684-1.188-.612-2.448-.9-4.662-.288-2.214-.324-4.32-.036-2.106.144-4.176.18-2.07.504-4.194Zm11.556 18.936q-.828 0-1.224-.414t-.396-1.242V338.2q0-.828.396-1.224t1.224-.396q.828 0 1.224.396t.396 1.224v8.604q.324-1.62 1.638-2.682 1.314-1.062 3.294-1.062 2.268 0 3.708.972 1.44.972 2.232 2.538.792 1.566 1.08 3.528.288 1.962.288 3.906 0 1.656-.252 3.366-.252 1.71-1.008 3.096-.756 1.386-2.124 2.25-1.368.864-3.564.864-1.044 0-1.872-.288-.828-.288-1.476-.81t-1.134-1.242q-.486-.72-.81-1.62v2.304q0 .828-.396 1.242-.396.414-1.224.414Zm6.588-3.24q1.188 0 1.98-.486t1.242-1.368q.45-.882.63-2.088t.18-2.61q0-1.368-.144-2.718-.144-1.35-.63-2.412-.486-1.062-1.386-1.71-.9-.648-2.448-.648-.972 0-1.782.54t-1.386 1.368q-.576.828-.9 1.8-.324.972-.324 1.836v3.96q0 .864.414 1.674.414.81 1.098 1.44.684.63 1.584 1.026t1.872.396Zm21.276-5.184q0 2.592.774 3.888.774 1.296 2.286 1.296.72 0 1.404-.108.684-.108 1.512-.504.72-.396 1.278-.198t.954.882q.432.72.27 1.314-.162.594-.846.954c-.72.384-1.5.63-2.34.738q-1.26.162-2.772.162-1.296 0-2.358-.468t-1.818-1.422q-.756-.954-1.17-2.43-.414-1.476-.414-3.492l.036-14.436q0-.72-.36-1.08-.36-.36-1.08-.36h-2.664q-.72 0-1.098-.378-.378-.378-.378-1.098 0-.72.378-1.098.378-.378 1.098-.378h4.464q1.476 0 2.178.702t.702 2.178l-.036 15.336Zm27 3.312q.684 0 1.134.486.45.486.45 1.098 0 .324-.162.63t-.594.738q-.576.54-1.224.936t-1.386.684q-.738.288-1.548.414t-1.71.126q-2.088 0-3.726-.702t-2.772-2.016q-1.134-1.314-1.746-3.204-.612-1.89-.612-4.23 0-2.052.486-3.942.486-1.89 1.53-3.312t2.682-2.268q1.638-.846 3.942-.846 2.16 0 3.564.738t2.232 2.07q.828 1.332 1.152 3.114.324 1.782.324 3.906 0 .648-.468 1.17-.468.522-1.224.522h-12.24v-2.88h10.116q.18 0 .378-.216t.198-.972q0-.756-.252-1.512t-.792-1.35q-.54-.594-1.368-.972-.828-.378-1.98-.378-1.296 0-2.25.522t-1.566 1.44q-.612.918-.918 2.16-.306 1.242-.306 2.718 0 1.836.396 3.186.396 1.35 1.134 2.232.738.882 1.782 1.332 1.044.45 2.34.45 1.62 0 2.574-.504.954-.504 1.494-.936.288-.252.468-.342.18-.09.468-.09Z" />
  <path fill="#CBC5FC"
    d="M227.224 419.548q-1.332.684-1.998.252-.666-.432-.666-1.692 0-.72.234-1.116.234-.396.666-.612l9.144-4.392q.504-.252.504-.648t-.504-.648l-9.144-4.5q-.432-.216-.666-.612-.234-.396-.234-1.116 0-1.26.666-1.638.666-.378 1.998.306l11.196 5.616q.828.396 1.224 1.026t.396 1.566q0 .936-.396 1.566t-1.224 1.026l-11.196 5.616Z" />
  <path fill="#C9DDE8"
    d="M282.024 418.468q.684 0 1.134.486.45.486.45 1.098 0 .324-.162.63t-.594.738q-.576.54-1.224.936t-1.386.684q-.738.288-1.548.414t-1.71.126q-2.088 0-3.726-.702t-2.772-2.016q-1.134-1.314-1.746-3.204-.612-1.89-.612-4.23 0-2.052.486-3.942.486-1.89 1.53-3.312t2.682-2.268q1.638-.846 3.942-.846 2.16 0 3.564.738t2.232 2.07q.828 1.332 1.152 3.114.324 1.782.324 3.906 0 .648-.468 1.17-.468.522-1.224.522h-12.24v-2.88h10.116q.18 0 .378-.216t.198-.972q0-.756-.252-1.512t-.792-1.35q-.54-.594-1.368-.972-.828-.378-1.98-.378-1.296 0-2.25.522t-1.566 1.44q-.612.918-.918 2.16-.306 1.242-.306 2.718 0 1.836.396 3.186.396 1.35 1.134 2.232.738.882 1.782 1.332 1.044.45 2.34.45 1.62 0 2.574-.504.954-.504 1.494-.936.288-.252.468-.342.18-.09.468-.09Zm7.956-5.112q0-2.772.72-4.716.72-1.944 1.926-3.186t2.826-1.818q1.62-.576 3.42-.576 1.368 0 2.448.234 1.08.234 1.89.63.81.396 1.386.9.576.504.9 1.044.504.828.378 1.44t-.738.972q-.648.396-1.224.288-.576-.108-.9-.648-.396-.612-1.368-1.116-.972-.504-2.556-.504-1.296 0-2.376.432-1.08.432-1.854 1.296-.774.864-1.206 2.142-.432 1.278-.432 3.006 0 1.764.45 3.114.45 1.35 1.224 2.25.774.9 1.854 1.35 1.08.45 2.304.45.936 0 1.944-.234t1.548-.774q.432-.432 1.062-.504.63-.072 1.242.432.216.216.342.486.126.27.126.594 0 .324-.18.702-.18.378-.54.81-.468.576-1.116.918-.648.342-1.386.522-.738.18-1.53.234-.792.054-1.584.054-1.98 0-3.636-.612-1.656-.612-2.844-1.854t-1.854-3.186q-.666-1.944-.666-4.572Zm25.38-1.512v10.116q0 .828-.396 1.224t-1.224.396q-.828 0-1.224-.396t-.396-1.224V398.2q0-.828.396-1.224t1.224-.396q.828 0 1.224.396t.396 1.224v8.604q.504-1.728 1.728-2.736 1.224-1.008 3.204-1.008 1.44 0 2.646.486t2.088 1.386q.882.9 1.368 2.16.486 1.26.486 2.808v12.06q0 .828-.396 1.224t-1.224.396q-.828 0-1.224-.396t-.396-1.224v-11.124q0-.936-.252-1.782t-.738-1.494q-.486-.648-1.206-1.044t-1.692-.396q-.972 0-1.782.576t-1.386 1.422q-.576.846-.9 1.854-.324 1.008-.324 1.872Zm25.74 11.736q-2.088 0-3.6-.774t-2.52-2.142q-1.008-1.368-1.494-3.258t-.486-4.122q0-2.232.468-4.104.468-1.872 1.476-3.222 1.008-1.35 2.538-2.124 1.53-.774 3.618-.774 2.124 0 3.654.774 1.53.774 2.52 2.124t1.458 3.222q.468 1.872.468 4.104t-.486 4.122q-.486 1.89-1.476 3.258t-2.52 2.142q-1.53.774-3.618.774Zm0-3.24q1.26 0 2.178-.522.918-.522 1.512-1.44.594-.918.882-2.232.288-1.314.288-2.862t-.27-2.826q-.27-1.278-.864-2.196-.594-.918-1.512-1.44-.918-.522-2.214-.522-1.296 0-2.214.522-.918.522-1.512 1.44-.594.918-.864 2.214-.27 1.296-.27 2.844 0 1.548.288 2.844.288 1.296.882 2.214.594.918 1.512 1.44.918.522 2.178.522Z" />
  <path fill="#F1A7A7"
    d="M394.372 416.2q0 1.548-.414 2.772-.414 1.224-1.17 2.088-.756.864-1.746 1.404-.99.54-2.142.756v-3.636q.396-.252.738-.558.342-.306.594-.702.252-.396.414-.936.162-.54.162-1.188 0-.936-.342-1.638-.342-.702-.864-1.224t-1.188-.864q-.666-.342-1.35-.558l-3.564-1.008q-1.368-.396-2.592-.954-1.224-.558-2.16-1.386-.936-.828-1.476-2.034-.54-1.206-.54-2.898 0-1.476.414-2.664.414-1.188 1.08-2.016.666-.828 1.584-1.35.918-.522 1.89-.666v3.924q-.252.144-.504.378t-.468.576q-.216.342-.324.792-.108.45-.108.99 0 .9.288 1.494t.756.99q.468.396 1.044.63.576.234 1.116.378l3.564 1.044q1.62.432 2.952 1.08 1.332.648 2.304 1.602.972.954 1.512 2.286t.54 3.096Zm-7.308-2.304v11.88q0 .9-.45 1.332-.45.432-1.314.432-.9 0-1.35-.432-.45-.432-.45-1.332v-12.888l3.564 1.008Zm0-7.74-3.564-1.044v-10.368q0-.9.45-1.332.45-.432 1.35-.432.864 0 1.314.432.45.432.45 1.332v11.412Zm-5.364 13.428v3.636q-1.008-.18-1.944-.72-.936-.54-1.692-1.278-.756-.738-1.206-1.656-.45-.918-.45-1.818 0-1.044.504-1.422.504-.378 1.224-.378.612 0 .99.234t.522.594q.144.36.36.774.216.414.486.792.27.378.594.72.324.342.612.522Zm7.2-22.644q.9.144 1.764.63t1.548 1.17q.684.684 1.098 1.512.414.828.414 1.692 0 .972-.468 1.35-.468.378-1.152.378-.576 0-.954-.252t-.63-.792q-.072-.216-.234-.45-.162-.234-.36-.486-.198-.252-.468-.468-.27-.216-.558-.36v-3.924Zm21.78 5.328q.36.756.828 1.08.468.324 1.224.324 1.044 0 1.458-.558.414-.558.09-1.53-.288-1.116-.972-2.052-.684-.936-1.638-1.584-.954-.648-2.178-1.008t-2.664-.36q-1.728 0-3.15.504t-2.43 1.458q-1.008.954-1.566 2.25t-.558 2.916q0 2.7 1.458 4.536 1.458 1.836 4.158 2.556l3.816 1.044q1.512.396 2.286 1.53t.774 2.61q0 .972-.324 1.71t-.918 1.242q-.594.504-1.476.774t-1.962.27q-1.692 0-2.79-.684t-1.602-1.98q-.36-.828-.918-1.098-.558-.27-1.278-.27-.972 0-1.386.594-.414.594-.162 1.494.288 1.296.972 2.322.684 1.026 1.728 1.746t2.412 1.098q1.368.378 2.988.378 2.016 0 3.564-.54t2.628-1.53q1.08-.99 1.656-2.394.576-1.404.576-3.132 0-2.844-1.548-4.86-1.548-2.016-4.284-2.736l-3.924-1.08q-1.332-.36-2.034-1.296-.702-.936-.702-2.376 0-1.476 1.062-2.466 1.062-.99 2.934-.99 1.368 0 2.358.486t1.494 1.602Zm14.796 20.952c-1.104 0-1.914-.264-2.43-.792q-.774-.792-.774-2.412v-21.564q0-.972.45-1.422.45-.45 1.386-.45.972 0 1.422.45.45.45.45 1.422V418q0 .828.396 1.224t1.224.396h8.172q.828 0 1.314.486.486.486.486 1.314 0 .828-.486 1.314c-.324.324-.762.486-1.314.486h-10.296Zm24.624-3.24q1.62 0 2.592-1.098t1.494-2.628q.522-1.53.702-3.258.18-1.728.18-2.988 0-1.224-.18-2.916t-.702-3.222q-.522-1.53-1.494-2.61-.972-1.08-2.592-1.08t-2.592 1.098q-.972 1.098-1.494 2.628t-.702 3.222q-.18 1.692-.18 2.916 0 1.26.18 2.97.18 1.71.702 3.24.522 1.53 1.494 2.628t2.592 1.098Zm0 3.6q-2.736 0-4.446-1.314-1.71-1.314-2.646-3.33-.936-2.016-1.26-4.392-.324-2.376-.324-4.536 0-2.088.306-4.446.306-2.358 1.242-4.356.936-1.998 2.646-3.312 1.71-1.314 4.482-1.314 2.736 0 4.446 1.296 1.71 1.296 2.646 3.294.936 1.998 1.26 4.338.324 2.34.324 4.428 0 2.196-.324 4.59-.324 2.394-1.278 4.41t-2.646 3.33q-1.692 1.314-4.428 1.314Zm26.136-9.9q0-.72-.36-.936-.36-.216-1.08-.216h-2.088q-.864 0-1.296-.432-.432-.432-.432-1.332 0-.864.432-1.296.432-.432 1.296-.432h3.888q1.62 0 2.412.792.792.792.792 2.412v3.744q0 1.872-.63 3.294t-1.71 2.376q-1.08.954-2.538 1.44-1.458.486-3.15.486-2.88 0-4.68-1.26-1.8-1.26-2.826-3.222t-1.386-4.356q-.36-2.394-.324-4.662.072-2.376.414-4.77.342-2.394 1.314-4.338t2.736-3.186q1.764-1.242 4.644-1.242 1.44 0 2.628.324 1.188.324 2.124.99.936.666 1.638 1.62.702.954 1.134 2.286.396 1.152-.072 1.782-.468.63-1.656.63-.684 0-1.062-.252t-.558-.972q-.396-1.332-1.476-2.07-1.08-.738-2.592-.738-1.872 0-2.952 1.062-1.08 1.062-1.638 2.574-.558 1.512-.72 3.222-.162 1.71-.198 3.078-.036 1.404.108 3.132.144 1.728.702 3.222.558 1.494 1.71 2.52t3.132 1.026q1.872 0 3.096-.972t1.224-3.06v-2.268Zm22.32-.288.72 3.096h-11.952l.72-3.096h10.512Zm.288 9-5.364-20.196q-.072-.216-.18-.216t-.18.216l-5.364 20.196q-.144.576-.54.882-.396.306-1.188.306-1.08 0-1.548-.594-.468-.594-.144-1.818l5.904-21.816q.324-1.224 1.062-1.818.738-.594 1.998-.594t1.998.594q.738.594 1.062 1.818l5.904 21.816q.324 1.224-.144 1.818-.468.594-1.548.594-.792 0-1.188-.306-.396-.306-.54-.882Zm7.884-22.752q0-1.512.756-2.286t2.16-.774q1.152 0 1.818.486.666.486 1.026 1.494l6.588 18.54q.036.108.09.162.054.054.126.054.072 0 .108-.054.036-.054.036-.162v-18.684q0-.936.432-1.386.432-.45 1.368-.45.936 0 1.386.45.45.45.45 1.386v22.104q0 1.512-.756 2.286t-2.16.774q-1.152 0-1.818-.486-.666-.486-1.026-1.494l-6.588-18.54q-.036-.108-.09-.162-.054-.054-.126-.054-.072 0-.108.054-.036.054-.036.162v18.684q0 .936-.432 1.386-.432.45-1.368.45-.936 0-1.386-.45-.45-.45-.45-1.386V399.64Z" />
  <g filter="url(#c)" transform="translate(440.5 446.5)">
    <path fill="#A5E6E3"
      d="M15.156 15.876q.288.792.738 1.116.45.324 1.242.324 1.188 0 1.764-.684.576-.684.324-1.836-.144-1.044-.666-1.926-.522-.882-1.386-1.512-.864-.63-2.034-.954-1.17-.324-2.61-.324-1.8 0-3.33.504t-2.736 1.458q-1.206.954-1.998 2.286t-1.08 2.952q-.504 2.88.666 4.68 1.17 1.8 3.906 2.592l3.492.936q1.404.396 1.944 1.476t.288 2.484q-.144.9-.576 1.584-.432.684-1.098 1.152-.666.468-1.53.72-.864.252-1.908.252-1.548 0-2.502-.612-.954-.612-1.206-1.764-.288-.864-.828-1.134-.54-.27-1.224-.27-1.188 0-1.782.72-.594.72-.414 1.8.252 2.412 2.088 3.798 1.836 1.386 5.148 1.386 2.088 0 3.78-.54 1.692-.54 2.952-1.548t2.088-2.412q.828-1.404 1.116-3.168.54-2.916-.72-4.95-1.26-2.034-3.96-2.754L9.54 20.7q-1.26-.324-1.782-1.188-.522-.864-.27-2.268.252-1.44 1.44-2.34 1.188-.9 2.952-.9 1.26 0 2.106.432.846.432 1.17 1.44Zm7.2 20.988q-.9 0-1.386-.432-.486-.432-.306-1.404l2.772-15.696q.072-.252.036-.504t-.144-.504q-.288-.9.252-1.332.54-.432 1.368-.432.9 0 1.458.432.558.432.846 1.332.108.252.144.504.036.252-.036.504.504-1.404 1.386-2.088.882-.684 2.286-.684 1.548 0 2.322.846t.81 1.926q.432-1.116 1.35-1.944.918-.828 2.574-.828 1.044 0 1.746.342t1.098.99q.396.648.504 1.53.108.882-.072 1.926l-2.448 13.68q-.18.972-.792 1.404-.612.432-1.512.432t-1.386-.45q-.486-.45-.306-1.422l2.232-12.744q.072-.432.072-.81 0-.378-.144-.684-.144-.306-.414-.486t-.738-.18q-.9 0-1.35.648-.45.648-.594 1.476l-2.268 12.996q-.18.9-.792 1.278-.612.378-1.44.378t-1.296-.378q-.468-.378-.288-1.278l2.268-12.96q.072-.432.072-.81 0-.378-.144-.666-.144-.288-.396-.486t-.72-.198q-.9 0-1.404.648-.504.648-.648 1.476l-2.268 12.78q-.18.972-.792 1.422-.612.45-1.512.45Zm28.692.216q-2.16 0-3.6-.792t-2.232-2.196q-.792-1.404-.954-3.276-.162-1.872.198-4.032.396-2.124 1.224-3.996.828-1.872 2.106-3.258t3.006-2.178q1.728-.792 3.888-.792t3.6.792q1.44.792 2.232 2.178.792 1.386.972 3.24.18 1.854-.216 4.014t-1.224 4.032q-.828 1.872-2.124 3.276-1.296 1.404-3.006 2.196-1.71.792-3.87.792Zm.684-3.78q1.08 0 1.98-.504.9-.504 1.566-1.368.666-.864 1.134-2.052.468-1.188.72-2.592.252-1.368.216-2.556-.036-1.188-.414-2.034-.378-.846-1.098-1.35-.72-.504-1.836-.504-1.08 0-1.98.504-.9.504-1.566 1.368-.666.864-1.134 2.052-.468 1.188-.72 2.556-.216 1.368-.18 2.556.036 1.188.414 2.052.378.864 1.08 1.368.702.504 1.818.504Zm20.916 3.78q-2.16 0-3.6-.792t-2.232-2.196q-.792-1.404-.954-3.276-.162-1.872.198-4.032.396-2.124 1.224-3.996.828-1.872 2.106-3.258t3.006-2.178q1.728-.792 3.888-.792t3.6.792q1.44.792 2.232 2.178.792 1.386.972 3.24.18 1.854-.216 4.014t-1.224 4.032q-.828 1.872-2.124 3.276-1.296 1.404-3.006 2.196-1.71.792-3.87.792Zm.684-3.78q1.08 0 1.98-.504.9-.504 1.566-1.368.666-.864 1.134-2.052.468-1.188.72-2.592.252-1.368.216-2.556-.036-1.188-.414-2.034-.378-.846-1.098-1.35-.72-.504-1.836-.504-1.08 0-1.98.504-.9.504-1.566 1.368-.666.864-1.134 2.052-.468 1.188-.72 2.556-.216 1.368-.18 2.556.036 1.188.414 2.052.378.864 1.08 1.368.702.504 1.818.504Zm30.708-15.66q.936 0 1.332.504t.216 1.44q-.18.936-.738 1.458-.558.522-1.494.522H89.82q-.9 0-1.296-.504t-.216-1.44q.18-.936.738-1.458.558-.522 1.494-.522h13.5ZM91.476 30.78l3.456-17.352q.216-1.08.81-1.584.594-.504 1.638-.504t1.494.504q.45.504.234 1.584L95.94 29.124q-.18 1.008-.252 1.728-.072.72.054 1.206t.414.72q.288.234.756.234.864 0 1.674-.414.81-.414 1.566-1.278.612-.684 1.296-.702.684-.018 1.224.45.612.54.612 1.206 0 .666-.504 1.314-.792 1.008-1.566 1.674-.774.666-1.62 1.062a7.549 7.549 0 0 1-1.782.576q-.936.18-1.98.18-1.404 0-2.358-.45-.954-.45-1.494-1.278-.54-.828-.648-1.98-.108-1.152.144-2.592Zm22.716-5.436-1.692 9.648q-.18 1.08-.792 1.584-.612.504-1.656.504-1.08 0-1.494-.504-.414-.504-.234-1.584l4.068-22.86q.18-1.044.774-1.548.594-.504 1.566-.504 1.008 0 1.458.504.45.504.27 1.548l-1.476 8.28q.864-1.836 2.268-2.844 1.404-1.008 3.276-1.008 1.584 0 2.754.522t1.89 1.458q.72.936.972 2.232.252 1.296-.036 2.844l-2.016 11.376q-.18 1.08-.774 1.584-.594.504-1.674.504-1.044 0-1.458-.504-.414-.504-.234-1.584l1.836-10.368q.144-.792.072-1.548t-.396-1.332q-.324-.576-.882-.936-.558-.36-1.458-.36-.9 0-1.728.468t-1.494 1.17q-.666.702-1.116 1.566-.45.864-.594 1.692Zm48.96 11.376.792-4.32q-.864 1.8-2.268 2.826t-3.276 1.026q-1.584 0-2.754-.522t-1.908-1.476q-.738-.954-.972-2.232-.234-1.278.054-2.826l2.016-10.548q.216-1.08.81-1.584.594-.504 1.638-.504t1.494.504q.45.504.234 1.584l-1.872 9.54q-.144.792-.072 1.548t.396 1.332q.324.576.882.936.558.36 1.458.36.9 0 1.728-.468t1.494-1.17q.666-.702 1.098-1.566.432-.864.576-1.692l1.584-8.82q.18-1.08.774-1.584.594-.504 1.674-.504 1.044 0 1.458.504.414.504.234 1.584L167.22 36.72q-.432 2.304-1.152 4.014-.72 1.71-1.908 2.844t-2.934 1.692q-1.746.558-4.158.558-1.188 0-2.16-.252-.972-.252-1.782-.666-.81-.414-1.44-.99-.63-.576-1.062-1.26-.216-.324-.306-.756t-.018-.828q.072-.396.306-.81.234-.414.558-.72.324-.306.756-.504t.936-.198q.36 0 .666.144.306.144.522.468.324.432.684.882.36.45.864.792t1.17.558q.666.216 1.566.216.864 0 1.638-.288.774-.288 1.404-.918.63-.63 1.08-1.602.45-.972.702-2.376Zm17.496.36q-2.16 0-3.6-.792t-2.232-2.196q-.792-1.404-.954-3.276-.162-1.872.198-4.032.396-2.124 1.224-3.996.828-1.872 2.106-3.258t3.006-2.178q1.728-.792 3.888-.792t3.6.792q1.44.792 2.232 2.178.792 1.386.972 3.24.18 1.854-.216 4.014t-1.224 4.032q-.828 1.872-2.124 3.276-1.296 1.404-3.006 2.196-1.71.792-3.87.792Zm.684-3.78q1.08 0 1.98-.504.9-.504 1.566-1.368.666-.864 1.134-2.052.468-1.188.72-2.592.252-1.368.216-2.556-.036-1.188-.414-2.034-.378-.846-1.098-1.35-.72-.504-1.836-.504-1.08 0-1.98.504-.9.504-1.566 1.368-.666.864-1.134 2.052-.468 1.188-.72 2.556-.216 1.368-.18 2.556.036 1.188.414 2.052.378.864 1.08 1.368.702.504 1.818.504Zm27.864 3.78q-1.044 0-1.602-.504t-.774-1.548q-.108-.432-.126-.9-.018-.468.054-.9-.9 1.836-2.304 2.844-1.404 1.008-3.276 1.008-1.548 0-2.718-.522t-1.89-1.476q-.72-.954-.972-2.232-.252-1.278 0-2.826l2.016-11.376q.18-1.08.792-1.584.612-.504 1.656-.504 1.08 0 1.494.504.414.504.234 1.584l-1.836 10.368q-.144.792-.072 1.548t.378 1.332q.306.576.882.936.576.36 1.44.36.936 0 1.764-.468t1.494-1.17q.666-.702 1.098-1.566.432-.864.576-1.692l1.728-9.648q.18-1.08.774-1.584.594-.504 1.674-.504 1.044 0 1.476.504.432.504.216 1.584l-2.556 14.544q-.108.468-.072.918.036.45.144.918.18 1.044-.234 1.548-.414.504-1.458.504Zm9.504 0q-1.044 0-1.476-.504-.432-.504-.252-1.584l2.664-14.544q.108-.468.072-.918-.036-.45-.144-.918-.18-1.044.234-1.548.414-.504 1.458-.504t1.584.504q.54.504.756 1.548.108.432.126.9.018.468-.054.9.936-1.836 2.754-2.844 1.818-1.008 4.374-1.008 1.584 0 2.538.54.954.54 1.422 1.512.468.972.486 2.286.018 1.314-.27 2.826l-.072.396q-.216 1.044-.792 1.566-.576.522-1.656.522-1.044 0-1.476-.522-.432-.522-.216-1.53l.072-.324q.108-.72.144-1.386.036-.666-.162-1.17-.198-.504-.666-.81-.468-.306-1.332-.306-.864 0-1.818.306-.954.306-1.782.864-.828.558-1.44 1.35t-.792 1.764l-1.908 10.548q-.216 1.08-.774 1.584t-1.602.504Zm41.868-10.296q.468-2.736 1.512-4.662 1.044-1.926 2.484-3.168 1.44-1.242 3.186-1.818 1.746-.576 3.582-.576 1.476 0 2.592.288t1.908.756q.792.468 1.26 1.044.468.576.648 1.224.288.9-.072 1.656-.36.756-1.152 1.152-.684.324-1.314.216-.63-.108-.882-.648-.324-.756-1.17-1.26-.846-.504-2.178-.504-1.08 0-2.088.36t-1.836 1.134q-.828.774-1.422 1.962t-.918 2.808q-.288 1.62-.09 2.826.198 1.206.738 1.998t1.386 1.188q.846.396 1.89.396.972 0 1.944-.216t1.692-.792q.648-.504 1.404-.594.756-.09 1.332.45.252.216.36.558.108.342.054.72-.054.378-.252.792-.198.414-.594.81-.756.72-1.548 1.152-.792.432-1.62.666-.828.234-1.71.306-.882.072-1.782.072-2.016 0-3.582-.612-1.566-.612-2.556-1.854t-1.332-3.204q-.342-1.962.126-4.626Zm28.08 10.296q-2.16 0-3.6-.792t-2.232-2.196q-.792-1.404-.954-3.276-.162-1.872.198-4.032.396-2.124 1.224-3.996.828-1.872 2.106-3.258t3.006-2.178q1.728-.792 3.888-.792t3.6.792q1.44.792 2.232 2.178.792 1.386.972 3.24.18 1.854-.216 4.014t-1.224 4.032q-.828 1.872-2.124 3.276-1.296 1.404-3.006 2.196-1.71.792-3.87.792Zm.684-3.78q1.08 0 1.98-.504.9-.504 1.566-1.368.666-.864 1.134-2.052.468-1.188.72-2.592.252-1.368.216-2.556-.036-1.188-.414-2.034-.378-.846-1.098-1.35-.72-.504-1.836-.504-1.08 0-1.98.504-.9.504-1.566 1.368-.666.864-1.134 2.052-.468 1.188-.72 2.556-.216 1.368-.18 2.556.036 1.188.414 2.052.378.864 1.08 1.368.702.504 1.818.504Zm29.484-.108q-.108.468-.072.918.036.45.144.918.18 1.044-.234 1.548-.414.504-1.458.504t-1.602-.504q-.558-.504-.774-1.548-.108-.432-.108-.954t.072-.99q-.504.9-1.08 1.62-.576.72-1.296 1.26-.72.54-1.638.828-.918.288-2.07.288-2.124 0-3.33-.81t-1.728-2.196q-.522-1.386-.486-3.168.036-1.782.36-3.69.36-1.872 1.008-3.78.648-1.908 1.764-3.438 1.116-1.53 2.736-2.484t3.96-.954q1.872 0 2.844 1.008.972 1.008 1.26 2.7l1.44-8.1q.18-1.08.774-1.584.594-.504 1.638-.504t1.494.504q.45.504.234 1.584l-3.852 21.024Zm-8.496-.036q.9 0 1.782-.36t1.602-.99q.72-.63 1.242-1.458t.666-1.8l.54-2.88q.144-.9.018-1.818t-.522-1.674q-.396-.756-1.08-1.224-.684-.468-1.584-.468-1.368 0-2.268.594-.9.594-1.512 1.548-.612.954-.936 2.124-.324 1.17-.576 2.358-.18 1.188-.216 2.286-.036 1.098.216 1.926.252.828.882 1.332.63.504 1.746.504Zm18.468-10.404q-.864.216-1.44-.216t-.792-1.368q-.18-.936.18-1.548t1.332-.864l5.256-1.296q1.008-.252 1.782-.09t1.242.63q.468.468.63 1.188.162.72-.09 1.584l-2.088 8.352q-.324 1.26-.396 2.034-.072.774.09 1.206.162.432.486.612.324.18.792.18.9 0 1.692-.504.792-.504 1.548-1.332.648-.72 1.278-.738.63-.018 1.242.486.612.54.63 1.26.018.72-.522 1.404-.684.9-1.404 1.548-.72.648-1.548 1.044a7.183 7.183 0 0 1-1.8.576q-.972.18-2.196.18-1.296 0-2.304-.396-1.008-.396-1.602-1.188-.594-.792-.756-1.962-.162-1.17.27-2.754l2.052-7.884q.144-.468-.09-.72-.234-.252-.666-.144l-2.808.72Zm7.632-8.496q-1.332 0-1.98-.684-.648-.684-.432-1.8.216-1.152 1.098-1.854.882-.702 2.178-.666 1.332-.036 1.962.648.63.684.45 1.872-.216 1.152-1.098 1.818-.882.666-2.178.666Zm13.716 2.304q1.044 0 1.602.504t.774 1.548q.108.432.126.9.018.468-.054.9.864-1.836 2.268-2.844 1.404-1.008 3.276-1.008 1.584 0 2.754.522t1.89 1.458q.72.936.972 2.232.252 1.296-.036 2.844l-2.016 11.376q-.18 1.08-.774 1.584-.594.504-1.674.504-1.044 0-1.458-.504-.414-.504-.234-1.584l1.836-10.368q.144-.792.072-1.548t-.396-1.332q-.324-.576-.882-.936-.558-.36-1.458-.36-.9 0-1.728.468t-1.494 1.17q-.666.702-1.116 1.566-.45.864-.594 1.692l-1.692 9.648q-.18 1.08-.792 1.584-.612.504-1.656.504-1.08 0-1.494-.504-.414-.504-.234-1.584l2.592-14.544q.072-.468.054-.918-.018-.45-.162-.918-.18-1.044.252-1.548t1.476-.504Zm29.7 16.164q-.468.972-1.08 1.71-.612.738-1.386 1.224-.774.486-1.692.738-.918.252-1.962.252-2.16 0-3.348-.918-1.188-.918-1.728-2.358t-.522-3.222q.018-1.782.342-3.438.288-1.728.9-3.528.612-1.8 1.71-3.276 1.098-1.476 2.736-2.412 1.638-.936 3.942-.936 1.908 0 2.952.99t1.26 2.718l.288-1.62q.18-1.08.756-1.584.576-.504 1.62-.504t1.422.504q.378.504.198 1.584l-3.168 18.072q-.396 2.304-1.116 4.014-.72 1.71-1.89 2.844t-2.88 1.692q-1.71.558-4.122.558-1.188 0-2.16-.252-.972-.252-1.782-.666-.81-.414-1.44-.99-.63-.576-1.062-1.26-.216-.324-.306-.756t-.018-.828q.072-.396.306-.81.234-.414.558-.72.324-.306.774-.504t.918-.198q.36 0 .666.144.306.144.522.468.324.432.702.882.378.45.882.792t1.152.558q.648.216 1.548.216.864 0 1.638-.288.774-.288 1.404-.918.63-.63 1.08-1.602.45-.972.702-2.376l.684-3.996Zm-4.464-.108q.9 0 1.764-.36t1.566-.936q.702-.576 1.188-1.332.486-.756.63-1.548l.54-3.096q.144-.828.018-1.692t-.522-1.566q-.396-.702-1.062-1.17-.666-.468-1.566-.468-1.332 0-2.268.594-.936.594-1.548 1.476t-.972 1.962q-.36 1.08-.54 2.124-.18 1.044-.216 2.106-.036 1.062.234 1.926.27.864.918 1.422.648.558 1.836.558Zm53.568-12.888q.936 0 1.332.504t.252 1.44q-.18.936-.774 1.458-.594.522-1.494.522h-14.292q-.936 0-1.35-.522-.414-.522-.27-1.458.18-.936.774-1.44.594-.504 1.53-.504h14.292Zm-8.748 17.568q-.288 1.728-.972 3.096-.684 1.368-1.728 2.304-1.044.936-2.484 1.458-1.44.522-3.24.522h-1.692q-.936 0-1.35-.504-.414-.504-.27-1.44.18-.9.774-1.404.594-.504 1.53-.504h1.692q1.296 0 2.304-.918 1.008-.918 1.296-2.61l3.636-20.7q.54-3.06 2.502-4.608 1.962-1.548 5.346-1.548h1.98q.9 0 1.314.504.414.504.27 1.404-.18.936-.774 1.44-.594.504-1.494.504h-1.98q-.972 0-1.89.576-.918.576-1.134 1.728l-3.636 20.7Zm27.324-3.456q-1.548 1.62-3.132 2.43t-3.6.81q-1.404 0-2.358-.468-.954-.468-1.494-1.296-.54-.828-.738-1.98-.198-1.152-.09-2.556.432-5.508 1.278-9.414.846-3.906 2.124-6.426t3.006-3.69q1.728-1.17 3.888-1.17 1.476 0 2.376.54.9.54 1.368 1.44.468.9.54 2.016.072 1.116-.18 2.268-.54 3.132-1.818 5.688-1.278 2.556-3.402 4.698-2.124 2.142-5.166 3.96-3.042 1.818-7.11 3.474c-.624.24-1.122.264-1.494.072q-.558-.288-.774-1.224-.216-.936.144-1.566t1.296-1.026q3.312-1.368 5.796-2.88 2.484-1.512 4.266-3.24 1.782-1.728 2.844-3.69 1.062-1.962 1.458-4.23.072-.432.09-.882.018-.45-.072-.774t-.288-.522q-.198-.198-.558-.198-.684 0-1.584.918t-1.71 2.808q-.81 1.89-1.476 4.824-.666 2.934-.882 6.966-.072.9-.036 1.584t.216 1.152q.18.468.522.702.342.234.954.234.936 0 1.638-.504.702-.504 1.458-1.26.684-.72 1.35-.756.666-.036 1.278.468.684.576.648 1.314-.036.738-.576 1.386Zm13.932 3.24q-2.16 0-3.6-.792t-2.232-2.196q-.792-1.404-.954-3.276-.162-1.872.198-4.032.396-2.124 1.224-3.996.828-1.872 2.106-3.258t3.006-2.178q1.728-.792 3.888-.792t3.6.792q1.44.792 2.232 2.178.792 1.386.972 3.24.18 1.854-.216 4.014t-1.224 4.032q-.828 1.872-2.124 3.276-1.296 1.404-3.006 2.196-1.71.792-3.87.792Zm.684-3.78q1.08 0 1.98-.504.9-.504 1.566-1.368.666-.864 1.134-2.052.468-1.188.72-2.592.252-1.368.216-2.556-.036-1.188-.414-2.034-.378-.846-1.098-1.35-.72-.504-1.836-.504-1.08 0-1.98.504-.9.504-1.566 1.368-.666.864-1.134 2.052-.468 1.188-.72 2.556-.216 1.368-.18 2.556.036 1.188.414 2.052.378.864 1.08 1.368.702.504 1.818.504Zm16.452 3.42q-1.224 0-1.818-.594-.594-.594-.558-1.818l.288-15.336q.036-1.044.558-1.548t1.566-.504q.864 0 1.26.414t.396 1.242l-.468 11.952q0 .396.054.396t.234-.396l3.024-7.776q.396-1.008 1.098-1.512.702-.504 1.746-.504t1.566.504q.522.504.558 1.512l.252 7.776q.036.396.072.396t.216-.396q1.512-2.952 2.466-5.958.954-3.006 1.35-5.994.072-.828.72-1.242.648-.414 1.512-.414 1.044 0 1.314.504t.054 1.548q-.756 3.852-2.052 7.686t-3.132 7.686q-.54 1.116-1.26 1.746-.72.63-1.944.63c-.816 0-1.428-.192-1.836-.576q-.612-.576-.648-1.764l-.216-7.056q-.036-.396-.108-.396-.072 0-.216.396l-2.736 7.02q-.432 1.224-1.26 1.8c-.552.384-1.236.576-2.052.576ZM0 41.4h149.508v1.8H0v-1.8Zm168.835 0h196.673v1.8H168.835v-1.8Zm215.869 0h28.695v1.8h-28.695v-1.8Zm37.23 0H496.8v1.8h-74.866v-1.8Z" />
  </g>
</svg>