<svg xmlns="http://www.w3.org/2000/svg" width="1280" height="640" fill="none">
  <defs>
    <linearGradient id="b" x1="34" x2="864" y1="-74" y2="206" gradientUnits="userSpaceOnUse">
      <stop offset=".038" stop-color="#C8E2C6" />
      <stop offset=".493" stop-color="#ADE7F9" />
      <stop offset="1" stop-color="#8FB2FF" />
    </linearGradient>
    <clipPath id="a">
      <path d="M0 0h1280v640H0z" />
    </clipPath>
  </defs>
  <g clip-path="url(#a)">
    <path fill="#171718" fill-rule="evenodd" d="M0 0h1280v640H0z" />
    <path fill="url(#b)"
      d="M77.544 146.088q2.232-2.232 2.232-6.84V56.736q0-8.208-3.528-12.312-3.528-4.104-10.872-4.104-5.76 0-9.432 2.592-3.672 2.592-4.68 8.064L44.784 82.8q-.432 2.16-1.584 2.16-1.152 0-1.44-2.16l-6.624-31.824q-1.008-5.472-4.248-8.064-3.24-2.592-9.288-2.592-7.776 0-11.376 4.248-3.6 4.248-3.6 12.744v81.936q0 4.608 2.232 6.84t6.84 2.232q4.464 0 6.696-2.232 2.232-2.232 2.232-6.84V69.984q0-.864.648-.864t.792.864l7.632 33.984q.72 3.744 3.168 5.616 2.448 1.872 6.336 1.872 3.888 0 6.336-1.872 2.448-1.872 3.168-5.616l7.632-33.984q.144-.864.792-.864t.648.864v69.264q0 4.608 2.232 6.84t6.696 2.232q4.608 0 6.84-2.232Zm518.4 0q2.232-2.232 2.232-6.84V56.736q0-8.208-3.528-12.312-3.528-4.104-10.872-4.104-5.76 0-9.432 2.592-3.672 2.592-4.68 8.064l-6.48 31.824q-.432 2.16-1.584 2.16-1.152 0-1.44-2.16l-6.624-31.824q-1.008-5.472-4.248-8.064-3.24-2.592-9.288-2.592-7.776 0-11.376 4.248-3.6 4.248-3.6 12.744v81.936q0 4.608 2.232 6.84t6.84 2.232q4.464 0 6.696-2.232 2.232-2.232 2.232-6.84V69.984q0-.864.648-.864t.792.864l7.632 33.984q.72 3.744 3.168 5.616 2.448 1.872 6.336 1.872 3.888 0 6.336-1.872 2.448-1.872 3.168-5.616l7.632-33.984q.144-.864.792-.864t.648.864v69.264q0 4.608 2.232 6.84t6.696 2.232q4.608 0 6.84-2.232Zm-285.48-20.304q-2.592-4.968-2.592-15.768V57.312q0-7.776-3.888-11.664T292.32 41.76h-17.424q-4.32 0-6.408 2.088t-2.088 6.408q0 4.32 2.088 6.408t6.408 2.088h6.192q3.888 0 5.832 1.944t1.944 5.832v45.792q0 9.36 1.656 16.2t5.04 11.232q3.384 4.392 8.208 6.48t11.16 2.088q5.76 0 10.944-.72 5.184-.72 9.936-3.168 3.456-1.728 4.392-4.752.936-3.024-1.368-6.912-1.872-3.456-4.68-4.536-2.808-1.08-6.984.792-2.304 1.008-4.536 1.368-2.232.36-4.536.36-5.04 0-7.632-4.968Zm-200.376 20.592q4.824 1.944 10.008 1.944 7.488 0 12.816-3.384t8.64-9.432q.864-1.44 1.584-2.88.576 3.6 1.44 7.344.864 4.32 3.888 6.336t7.488 2.016q4.464 0 5.832-2.016 1.368-2.016.36-6.336-2.016-9.36-2.88-17.712-.864-8.352-.936-16.2-.072-7.848.648-15.624.72-7.776 1.872-15.696.576-4.32-1.152-6.408-1.728-2.088-6.192-2.088-4.32 0-6.984 2.088-2.664 2.088-3.384 6.408 0 .576-.144 1.152-2.16-3.744-5.472-6.336-4.176-3.312-10.944-3.312-8.208 0-14.4 3.672T101.808 79.92q-4.176 6.336-6.264 14.976t-2.088 18.288q0 9.504 2.232 16.2t5.904 10.872q3.672 4.176 8.496 6.12Zm89.208-77.832q-2.448-2.304-7.2-2.304-4.896 0-7.128 2.304t-2.232 7.056v89.136q0 4.752 2.304 7.128 2.304 2.376 7.2 2.376 4.896 0 7.2-2.376 2.304-2.376 2.304-7.128v-31.104q1.152 6.768 6.336 10.728t12.384 3.96q9.36 0 15.336-3.816 5.976-3.816 9.36-9.864 3.384-6.048 4.752-13.536 1.368-7.488 1.368-14.688 0-8.352-1.224-15.696-1.224-7.344-4.248-12.744-3.024-5.4-8.424-8.568-5.4-3.168-13.608-3.168-4.896 0-8.496 1.296-3.6 1.296-6.192 3.528t-4.392 5.328q-1.8 3.096-2.952 6.552V75.6q0-4.752-2.448-7.056Zm218.232 57.96q-2.088-2.808-5.688-2.808-1.44 0-2.664.504-1.224.504-2.664 1.656-1.872 1.584-6.12 3.24-4.248 1.656-9.432 1.656-3.744 0-7.128-1.296t-5.904-4.176q-2.52-2.88-4.104-7.632-.576-2.016-.864-4.32h40.464q4.032 0 6.12-2.232t2.088-6.408q0-7.488-1.656-14.472-1.656-6.984-5.4-12.312-3.744-5.328-9.792-8.496t-14.832-3.168q-9.216 0-15.84 3.456-6.624 3.456-10.872 9.288-4.248 5.832-6.264 13.392t-2.016 15.48q0 8.64 2.232 16.056t6.624 12.816q4.392 5.4 10.944 8.496 6.552 3.096 15.336 3.096 4.32 0 7.992-.504 3.672-.504 6.84-1.512 3.168-1.008 5.76-2.448 2.592-1.44 4.752-3.312 2.448-2.16 3.312-3.888.864-1.728.864-3.744 0-3.6-2.088-6.408Zm215.28 18.576q6.408 3.24 15.192 3.24 8.784 0 15.264-3.24 6.48-3.24 10.728-8.856 4.248-5.616 6.336-13.104 2.088-7.488 2.088-15.84 0-8.496-2.088-15.984-2.088-7.488-6.336-13.032t-10.728-8.784q-6.48-3.24-15.264-3.24-8.784 0-15.264 3.24-6.48 3.24-10.728 8.856-4.248 5.616-6.336 13.032t-2.088 15.912q0 8.352 2.088 15.84 2.088 7.488 6.408 13.104 4.32 5.616 10.728 8.856Zm87.768-6.264V101.52q0-3.312 1.08-6.408 1.08-3.096 3.096-5.616 2.016-2.52 4.896-3.96t6.336-1.44q3.312 0 5.616 1.296t3.744 3.456q1.44 2.16 2.16 4.896.72 2.736.72 5.472v39.6q0 4.752 2.376 7.128 2.376 2.376 7.128 2.376 4.896 0 7.2-2.376 2.304-2.376 2.304-7.128V95.184q0-6.192-1.872-11.52-1.872-5.328-5.544-9.144-3.672-3.816-8.784-6.048t-11.736-2.232q-7.2 0-12.096 4.104T720 81.792V75.6q0-4.752-2.592-7.056-2.592-2.304-6.912-2.304-4.464 0-6.696 2.304-2.232 2.304-2.232 7.056v63.216q0 4.752 2.304 7.128 2.304 2.376 7.2 2.376 4.752 0 7.128-2.376 2.376-2.376 2.376-7.128Zm85.032 6.264q6.408 3.24 15.192 3.24 8.784 0 15.264-3.24 6.48-3.24 10.728-8.856 4.248-5.616 6.336-13.104 2.088-7.488 2.088-15.84 0-8.496-2.088-15.984-2.088-7.488-6.336-13.032t-10.728-8.784q-6.48-3.24-15.264-3.24-8.784 0-15.264 3.24-6.48 3.24-10.728 8.856-4.248 5.616-6.336 13.032t-2.088 15.912q0 8.352 2.088 15.84 2.088 7.488 6.408 13.104 4.32 5.616 10.728 8.856ZM654.84 129.888q-2.952 1.872-6.84 1.872t-6.84-1.872q-2.952-1.872-4.824-5.256-1.872-3.384-2.808-7.848-.936-4.464-.936-9.504 0-5.04.864-9.504.864-4.464 2.808-7.848 1.944-3.384 4.824-5.256Q643.968 82.8 648 82.8t6.912 1.872q2.88 1.872 4.824 5.184 1.944 3.312 2.808 7.776.864 4.464.864 9.648 0 5.04-.936 9.504-.936 4.464-2.808 7.848-1.872 3.384-4.824 5.256Zm172.8 0q-2.952 1.872-6.84 1.872t-6.84-1.872q-2.952-1.872-4.824-5.256-1.872-3.384-2.808-7.848-.936-4.464-.936-9.504 0-5.04.864-9.504.864-4.464 2.808-7.848 1.944-3.384 4.824-5.256 2.88-1.872 6.912-1.872t6.912 1.872q2.88 1.872 4.824 5.184 1.944 3.312 2.808 7.776.864 4.464.864 9.648 0 5.04-.936 9.504-.936 4.464-2.808 7.848-1.872 3.384-4.824 5.256Zm-697.68-.792q-3.096 1.656-6.264 1.656-5.76 0-8.496-4.824-2.736-4.824-2.736-12.744 0-6.048 1.224-11.376 1.224-5.328 3.6-9.36 2.376-4.032 5.616-6.336 3.24-2.304 7.416-2.304 3.312 0 5.328 1.656 2.016 1.656 3.168 4.392 1.152 2.736 1.512 6.408.36 3.672.36 7.56 0 6.768-1.44 11.808t-3.816 8.424q-2.376 3.384-5.472 5.04Zm82.08-43.92q3.096-1.368 6.408-1.368 4.176 0 6.912 1.944 2.736 1.944 4.248 5.184t2.016 7.344q.504 4.104.504 8.28 0 4.176-.504 8.496t-2.088 7.848q-1.584 3.528-4.536 5.688-2.952 2.16-7.848 2.16-3.456 0-6.336-1.656-2.88-1.656-4.896-4.464-2.016-2.808-3.096-6.336-1.08-3.528-1.08-7.272v-8.784q0-4.032 1.368-7.416 1.368-3.384 3.6-5.832t5.328-3.816Zm191.016 13.608h-29.952q.144-1.008.432-1.872 1.008-4.032 3.096-6.984t5.256-4.536q3.168-1.584 7.2-1.584t6.984.936q2.952.936 4.968 2.592 2.016 1.656 2.952 3.888.936 2.232.936 4.68 0 1.728-.504 2.304-.504.576-1.368.576ZM0 0Zm864 190.08Z"
      transform="translate(208 74)" />
    <g fill="#1D1D1D">
      <path
        d="M639.5 296H1109c22.4 0 33.6 0 42.16 4.36q2.8 1.429 5.35 3.28 2.55 1.85 4.77 4.076 2.23 2.226 4.08 4.773 1.85 2.546 3.28 5.351c4.36 8.557 4.36 19.758 4.36 42.16v288c0 22.402 0 33.603-4.36 42.16q-1.43 2.805-3.28 5.351-1.85 2.547-4.08 4.773-2.22 2.226-4.77 4.077-2.55 1.85-5.35 3.279C1142.6 712 1131.4 712 1109 712H170c-22.402 0-33.603 0-42.16-4.36q-2.805-1.429-5.351-3.279-2.547-1.851-4.773-4.077-2.226-2.226-4.077-4.773-1.85-2.546-3.28-5.351C106 681.603 106 670.402 106 648V360c0-22.402 0-33.603 4.36-42.16q1.429-2.805 3.28-5.351 1.85-2.547 4.076-4.773 2.226-2.226 4.773-4.077 2.546-1.85 5.351-3.28C136.397 296 147.598 296 170 296h469.5Z" />
      <path fill="#BBC8D1" fill-rule="evenodd"
        d="M1109 296H170c-22.402 0-33.603 0-42.16 4.36q-2.805 1.429-5.351 3.28-2.547 1.85-4.773 4.076-2.226 2.226-4.077 4.773-1.85 2.546-3.28 5.351C106 326.397 106 337.598 106 360v288c0 22.402 0 33.603 4.36 42.16q1.429 2.805 3.28 5.351 1.85 2.547 4.076 4.773 2.226 2.226 4.773 4.077 2.546 1.85 5.351 3.279C136.397 712 147.598 712 170 712h939c22.4 0 33.6 0 42.16-4.36q2.8-1.429 5.35-3.279 2.55-1.851 4.77-4.077 2.23-2.226 4.08-4.773 1.85-2.546 3.28-5.351c4.36-8.557 4.36-19.758 4.36-42.16V360c0-22.402 0-33.603-4.36-42.16q-1.43-2.805-3.28-5.351-1.85-2.547-4.08-4.773-2.22-2.226-4.77-4.077-2.55-1.85-5.35-3.28C1142.6 296 1131.4 296 1109 296Zm-939 8h939q19.28 0 25.62.518 8.43.69 12.91 2.97 4.51 2.3 8.1 5.885 3.58 3.583 5.88 8.1 2.28 4.475 2.97 12.906.52 6.344.52 25.621v288q0 19.277-.52 25.62-.69 8.432-2.97 12.908-2.3 4.516-5.88 8.099-3.59 3.584-8.1 5.885-4.48 2.281-12.91 2.97-6.34.518-25.62.518H170q-19.276 0-25.62-.518-8.432-.689-12.908-2.97-4.516-2.301-8.1-5.885-3.583-3.583-5.884-8.099-2.28-4.476-2.97-12.908Q114 667.276 114 648V360q0-19.276.518-25.62.69-8.432 2.97-12.908 2.3-4.516 5.885-8.1 3.583-3.583 8.1-5.884 4.475-2.28 12.906-2.97Q150.725 304 170 304Z" />
    </g>
    <path d="M161 405h305v48H161z" />
    <path fill="#CBC5FC"
      d="M167.228 438.149q-1.735.835-2.578.214-.842-.621-.842-2.46 0-.72.297-1.167.297-.447.855-.713l7.531-3.46q.656-.302.618-.736-.038-.434-.618-.71l-7.531-3.492q-.558-.267-.855-.713-.297-.447-.297-1.167 0-1.84.855-2.432.855-.592 2.565.218l10.49 5.012q1.055.496 1.565 1.315.509.82.509 1.982 0 1.163-.51 1.982-.509.819-1.563 1.315l-10.491 5.012Z" />
    <path fill="#C2DCFA"
      d="M221.524 436.968q.684 0 1.134.486.45.486.45 1.098 0 .324-.162.63t-.594.738q-.576.54-1.224.936t-1.386.684q-.738.288-1.548.414t-1.71.126q-2.088 0-3.726-.702t-2.772-2.016q-1.134-1.314-1.746-3.204-.612-1.89-.612-4.23 0-2.052.486-3.942.486-1.89 1.53-3.312t2.682-2.268q1.638-.846 3.942-.846 2.16 0 3.564.738t2.232 2.07q.828 1.332 1.152 3.114.324 1.782.324 3.906 0 .648-.468 1.17-.468.522-1.224.522h-12.24v-2.88h10.116q.18 0 .378-.216t.198-.972q0-.756-.252-1.512t-.792-1.35q-.54-.594-1.368-.972-.828-.378-1.98-.378-1.296 0-2.25.522t-1.566 1.44q-.612.918-.918 2.16-.306 1.242-.306 2.718 0 1.836.396 3.186.396 1.35 1.134 2.232.738.882 1.782 1.332 1.044.45 2.34.45 1.62 0 2.574-.504.954-.504 1.494-.936.288-.252.468-.342.18-.09.468-.09Zm7.956-5.112q0-2.772.72-4.716.72-1.944 1.926-3.186t2.826-1.818q1.62-.576 3.42-.576 1.368 0 2.448.234 1.08.234 1.89.63.81.396 1.386.9.576.504.9 1.044.504.828.378 1.44t-.738.972q-.648.396-1.224.288-.576-.108-.9-.648-.396-.612-1.368-1.116-.972-.504-2.556-.504-1.296 0-2.376.432-1.08.432-1.854 1.296-.774.864-1.206 2.142-.432 1.278-.432 3.006 0 1.764.45 3.114.45 1.35 1.224 2.25.774.9 1.854 1.35 1.08.45 2.304.45.936 0 1.944-.234t1.548-.774q.432-.432 1.062-.504.63-.072 1.242.432.216.216.342.486.126.27.126.594 0 .324-.18.702-.18.378-.54.81-.468.576-1.116.918-.648.342-1.386.522-.738.18-1.53.234-.792.054-1.584.054-1.98 0-3.636-.612-1.656-.612-2.844-1.854t-1.854-3.186q-.666-1.944-.666-4.572Zm25.38-1.512v10.116q0 .828-.396 1.224t-1.224.396q-.828 0-1.224-.396t-.396-1.224V416.7q0-.828.396-1.224t1.224-.396q.828 0 1.224.396t.396 1.224v8.604q.504-1.728 1.728-2.736 1.224-1.008 3.204-1.008 1.44 0 2.646.486t2.088 1.386q.882.9 1.368 2.16.486 1.26.486 2.808v12.06q0 .828-.396 1.224t-1.224.396q-.828 0-1.224-.396t-.396-1.224v-11.124q0-.936-.252-1.782t-.738-1.494q-.486-.648-1.206-1.044t-1.692-.396q-.972 0-1.782.576t-1.386 1.422q-.576.846-.9 1.854-.324 1.008-.324 1.872Zm25.74 11.736q-2.088 0-3.6-.774t-2.52-2.142q-1.008-1.368-1.494-3.258t-.486-4.122q0-2.232.468-4.104.468-1.872 1.476-3.222 1.008-1.35 2.538-2.124 1.53-.774 3.618-.774 2.124 0 3.654.774 1.53.774 2.52 2.124t1.458 3.222q.468 1.872.468 4.104t-.486 4.122q-.486 1.89-1.476 3.258t-2.52 2.142q-1.53.774-3.618.774Zm0-3.24q1.26 0 2.178-.522.918-.522 1.512-1.44.594-.918.882-2.232.288-1.314.288-2.862t-.27-2.826q-.27-1.278-.864-2.196-.594-.918-1.512-1.44-.918-.522-2.214-.522-1.296 0-2.214.522-.918.522-1.512 1.44-.594.918-.864 2.214-.27 1.296-.27 2.844 0 1.548.288 2.844.288 1.296.882 2.214.594.918 1.512 1.44.918.522 2.178.522Z" />
    <path fill="#F1A7A7"
      d="M333.62 434.7q0 1.548-.414 2.772-.414 1.224-1.152 2.088-.738.864-1.71 1.404-.972.54-2.088.756v-3.24q.396-.288.774-.612t.666-.756q.288-.432.486-1.008.198-.576.198-1.296 0-1.008-.342-1.782t-.9-1.35q-.558-.576-1.26-.954t-1.458-.594l-3.24-.9q-1.368-.396-2.574-.936-1.206-.54-2.124-1.368-.918-.828-1.44-2.034-.522-1.206-.522-2.898 0-1.44.414-2.592.414-1.152 1.08-1.98.666-.828 1.548-1.332.882-.504 1.818-.648v3.6q-.288.144-.576.378t-.522.612q-.234.378-.378.882t-.144 1.152q0 .972.306 1.62.306.648.792 1.08.486.432 1.098.684.612.252 1.224.432l3.24.9q1.584.432 2.916 1.062 1.332.63 2.286 1.566t1.476 2.232q.522 1.296.522 3.06Zm-7.2-2.592v12.312q0 .828-.396 1.224t-1.224.396q-.828 0-1.224-.396t-.396-1.224v-13.212l3.24.9Zm0-7.308-3.24-.9v-10.8q0-.828.396-1.224t1.224-.396q.828 0 1.224.396t.396 1.224v11.7Zm-5.04 13.68v3.24q-.972-.18-1.908-.72-.936-.54-1.692-1.296-.756-.756-1.224-1.692-.468-.936-.468-1.872t.432-1.278q.432-.342 1.044-.342.504 0 .882.18t.522.504q.18.396.432.882t.576.936q.324.45.684.846.36.396.72.612Zm6.876-23.04q.864.144 1.728.63t1.566 1.17q.702.684 1.134 1.53.432.846.432 1.71 0 .936-.45 1.242-.45.306-1.062.306-.576 0-.972-.252t-.684-.864q-.108-.216-.27-.468-.162-.252-.378-.504t-.486-.504q-.27-.252-.558-.396v-3.6Zm22.176 5.22q.288.72.702 1.044.414.324 1.134.324.864 0 1.242-.432t.198-1.188q-.252-1.188-.918-2.178t-1.62-1.692q-.954-.702-2.196-1.08-1.242-.378-2.682-.378-1.656 0-3.024.504t-2.358 1.44q-.99.936-1.53 2.214t-.54 2.862q0 2.556 1.422 4.392 1.422 1.836 3.906 2.556l3.996 1.116q1.584.432 2.394 1.602.81 1.17.81 2.79 0 1.044-.342 1.836t-.972 1.332q-.63.54-1.548.828-.918.288-2.07.288-1.8 0-2.97-.738-1.17-.738-1.674-2.214-.288-.792-.828-1.08-.54-.288-1.26-.288-.756 0-1.116.468-.36.468-.252 1.152.252 1.404.936 2.502.684 1.098 1.728 1.872t2.412 1.17q1.368.396 2.988.396 1.908 0 3.42-.54t2.574-1.512q1.062-.972 1.638-2.358.576-1.386.576-3.114 0-2.772-1.458-4.77-1.458-1.998-4.086-2.718l-4.104-1.152q-1.404-.396-2.142-1.404t-.738-2.484q0-1.548 1.134-2.628t3.078-1.08q1.476 0 2.556.522t1.584 1.818Zm14.328 21.06q-1.476 0-2.178-.702t-.702-2.178V416.7q0-.828.396-1.224t1.224-.396q.828 0 1.224.396t.396 1.224v20.34q0 .72.36 1.08.36.36 1.08.36h8.82q.72 0 1.17.45.45.45.45 1.17t-.45 1.17q-.45.45-1.17.45h-10.62Zm24.84-2.88q1.728 0 2.772-1.134 1.044-1.134 1.602-2.736.558-1.602.738-3.384.18-1.782.18-3.078 0-1.26-.18-3.006-.18-1.746-.738-3.348-.558-1.602-1.602-2.718-1.044-1.116-2.772-1.116-1.728 0-2.772 1.134-1.044 1.134-1.602 2.736-.558 1.602-.738 3.348-.18 1.746-.18 3.006 0 1.296.18 3.06t.738 3.366q.558 1.602 1.602 2.736 1.044 1.134 2.772 1.134Zm0 3.24q-2.7 0-4.374-1.314-1.674-1.314-2.592-3.33-.918-2.016-1.242-4.392-.324-2.376-.324-4.536 0-2.088.306-4.446.306-2.358 1.224-4.356.918-1.998 2.592-3.312 1.674-1.314 4.41-1.314 2.7 0 4.374 1.296 1.674 1.296 2.592 3.294.918 1.998 1.242 4.338.324 2.34.324 4.464 0 2.16-.324 4.554t-1.26 4.41q-.936 2.016-2.592 3.33-1.656 1.314-4.356 1.314ZM415.808 432q0-.72-.36-.9-.36-.18-1.08-.18H412.1q-.828 0-1.224-.396t-.396-1.224q0-.828.396-1.224t1.224-.396h4.068q1.476 0 2.178.702t.702 2.178v3.96q0 1.98-.648 3.402-.648 1.422-1.728 2.34-1.08.918-2.502 1.368-1.422.45-2.97.45-2.808 0-4.572-1.278-1.764-1.278-2.736-3.24-.972-1.962-1.314-4.356-.342-2.394-.306-4.626.072-2.304.396-4.698.324-2.394 1.26-4.356.936-1.962 2.682-3.222t4.626-1.26q1.476 0 2.646.342t2.07 1.044q.9.702 1.548 1.71t1.08 2.376q.288 1.008-.126 1.548t-1.422.54q-.612 0-.972-.27t-.576-1.062q-.396-1.512-1.512-2.25t-2.664-.738q-1.98 0-3.132 1.08-1.152 1.08-1.728 2.646-.576 1.566-.738 3.348-.162 1.782-.198 3.222-.036 1.476.108 3.276.144 1.8.738 3.348.594 1.548 1.818 2.592 1.224 1.044 3.312 1.044 1.8 0 3.06-.99t1.26-3.33V432Zm22.284 0 .684 2.736h-11.952l.684-2.736h10.584Zm.576 9.036-5.688-20.952q-.072-.216-.18-.216t-.18.216l-5.688 20.952q-.144.504-.486.774-.342.27-1.026.27-.936 0-1.332-.522t-.108-1.566l6.12-22.428q.288-1.044.936-1.584.648-.54 1.764-.54t1.764.54q.648.54.936 1.584l6.12 22.428q.288 1.044-.108 1.566-.396.522-1.332.522-.684 0-1.026-.27-.342-.27-.486-.774Zm7.812-23.148q0-1.404.684-2.106t1.98-.702q1.044 0 1.656.45.612.45.936 1.35l7.02 19.44q.036.108.072.162.036.054.108.054.072 0 .108-.054.036-.054.036-.162V416.7q0-.828.396-1.224t1.224-.396q.828 0 1.224.396t.396 1.224v22.572q0 1.404-.684 2.106t-1.98.702q-1.044 0-1.656-.45-.612-.45-.936-1.35l-7.02-19.44q-.036-.108-.072-.162-.036-.054-.108-.054-.072 0-.108.054-.036.054-.036.162v19.62q0 .828-.396 1.224t-1.224.396q-.828 0-1.224-.396t-.396-1.224v-22.572Z" />
    <path d="M161 346h912v48H161z" />
    <path fill="#EECFA0"
      d="M168.869 383.08q-1.142 0-2.129-.136-.987-.137-1.823-.463-.836-.327-1.53-.854-.694-.528-1.255-1.31-.334-.442-.462-.961-.128-.52-.025-1.115.159-.915.721-1.356.563-.44 1.25-.44.366 0 .7.128.333.129.642.458.494.53.978.94.483.408 1.02.689.538.28 1.17.424.633.144 1.405.144.628 0 1.371-.057.744-.057 1.411-.273.667-.216 1.136-.605.469-.39.582-1.05.155-.789-.278-1.257-.434-.47-1.258-.769l-5.438-1.941q-.745-.283-1.396-.674-.65-.39-1.07-.99-.42-.598-.597-1.424-.178-.825.023-1.961.267-1.574 1.044-2.648.776-1.075 1.898-1.749 1.12-.673 2.54-.972 1.418-.298 2.985-.298 2.279 0 4.058.713 1.78.712 2.524 2.071.196.35.278.728.082.378-.021.844-.118.82-.667 1.322-.55.5-1.362.5-.4 0-.83-.14-.428-.142-.716-.523-.583-.695-1.483-1.18-.9-.483-2.464-.483-1.43 0-2.451.471-1.02.471-1.19 1.43-.114.577.156.933.271.355.822.577l5.055 1.928q.967.355 1.787.79.82.434 1.366 1.048.545.615.764 1.5.218.884.002 2.144-.303 1.692-1.177 2.82-.874 1.13-2.133 1.795-1.26.666-2.79.95-1.529.282-3.143.282Zm28.526 0q-1.042 0-1.604-.51-.562-.512-.778-1.539-.113-.427-.131-.893-.018-.466.054-.894-.875 1.805-2.279 2.82-1.404 1.016-3.277 1.016-1.562 0-2.731-.524-1.17-.524-1.89-1.47t-.964-2.237q-.244-1.29.008-2.839l2.016-11.371q.175-1.058.78-1.568.606-.511 1.664-.511 1.057 0 1.473.51.416.512.241 1.569l-1.842 10.374q-.129.798-.062 1.545.068.747.384 1.326.317.579.88.937.565.357 1.445.357.91 0 1.745-.46.834-.462 1.492-1.163.659-.7 1.102-1.57.442-.871.586-1.704l1.724-9.642q.175-1.058.78-1.568.606-.511 1.663-.511 1.058 0 1.481.51.424.512.234 1.569l-2.572 14.57q-.093.463-.064.91.028.449.141.912.18 1.043-.238 1.546-.419.503-1.461.503Zm8.683 0q-1.058 0-1.466-.514-.409-.513-.218-1.555l4.043-22.852q.19-1.058.778-1.568.588-.511 1.645-.511t1.491.51q.434.512.244 1.569l-1.44 8.099q.869-1.666 2.221-2.682 1.353-1.016 3.226-1.016 2.314 0 3.612.957 1.299.957 1.859 2.492.56 1.535.536 3.436-.023 1.9-.367 3.783-.334 1.902-.923 3.688-.589 1.787-1.604 3.157-1.016 1.37-2.505 2.189-1.489.818-3.608.818-1.152 0-1.972-.311-.82-.311-1.37-.856-.55-.545-.862-1.295-.311-.751-.476-1.636l-.37 2.03q-.19 1.04-.804 1.554-.613.514-1.67.514Zm7.3-3.928q1.097 0 1.903-.494.805-.494 1.364-1.33.558-.836.906-1.927.347-1.091.553-2.281.221-1.185.288-2.366.067-1.182-.19-2.137-.257-.955-.957-1.542-.7-.587-2.05-.587-.91 0-1.742.472-.83.47-1.508 1.222-.677.752-1.124 1.67-.448.919-.607 1.813l-.521 2.89q-.16.955.057 1.788.216.833.713 1.455.497.623 1.259.988.761.365 1.657.365Zm30.959-13.428q.933 0 1.337.51.403.512.244 1.446-.17.934-.758 1.453t-1.522.519h-14.285q-.934 0-1.347-.519-.414-.519-.245-1.453.16-.934.758-1.445.599-.512 1.532-.512h14.286Zm-8.73 17.563q-.299 1.726-.982 3.094-.683 1.367-1.732 2.313-1.048.945-2.48 1.457-1.432.512-3.23.512h-1.713q-.918 0-1.342-.504-.424-.503-.255-1.423.16-.919.76-1.422.602-.504 1.52-.504h1.713q1.266 0 2.28-.905 1.015-.905 1.303-2.618l3.636-20.704q.535-3.064 2.496-4.603 1.96-1.54 5.348-1.54h1.972q.92 0 1.336.503.416.504.262 1.423-.174.92-.768 1.423-.593.503-1.512.503h-1.973q-.974 0-1.888.577-.914.576-1.115 1.713l-3.636 20.705Zm14.493-.207q-1.057 0-1.481-.51-.424-.512-.234-1.569l2.65-14.57q.092-.463.064-.91-.029-.449-.142-.912-.18-1.043.238-1.546.419-.503 1.461-.503t1.582.51q.539.512.755 1.539.113.427.13.893.019.466-.053.894.936-1.805 2.746-2.82 1.81-1.016 4.368-1.016 1.589 0 2.555.545.967.546 1.424 1.51.458.964.478 2.276.02 1.31-.263 2.827l-.072.402q-.225 1.058-.806 1.568-.58.511-1.637.511-1.058 0-1.484-.51-.426-.512-.216-1.523l.057-.325q.129-.721.165-1.388.036-.667-.167-1.18-.204-.512-.667-.81-.464-.3-1.34-.3-.844 0-1.8.302-.958.3-1.787.86-.828.557-1.448 1.355-.62.798-.785 1.776l-1.924 10.545q-.205 1.058-.757 1.568-.553.511-1.61.511Zm24.477 0q-1.296 0-2.379-.463-1.082-.462-1.794-1.49-.712-1.029-.948-2.67-.237-1.64.175-4.015.432-2.453 1.34-4.63.907-2.175 2.232-3.783 1.324-1.607 3.044-2.538 1.72-.931 3.778-.931 1.713 0 2.553.844.841.844 1.123 2.178.283 1.335.134 2.983-.15 1.648-.432 3.22-.386 2.24-1.075 4.282t-1.753 3.606q-1.065 1.564-2.552 2.485-1.487.922-3.446.922Zm1.374-3.928q.932 0 1.856-.495.925-.494 1.723-1.43.798-.934 1.407-2.293.61-1.36.918-3.103.18-.94.276-1.898.096-.957-.056-1.714t-.62-1.244q-.469-.487-1.442-.487-1.071 0-2.069.634-.999.633-1.82 1.72-.821 1.086-1.442 2.563-.621 1.478-.899 3.162-.365 2.105.142 3.345.508 1.24 2.026 1.24Zm7.86-14.672q.333-1.022 1.003-1.47.671-.45 1.64-.45 1.017 0 1.326.462.308.462-.026 1.458-.674 2.033-1.199 4.019-.524 1.986-.856 4.015-.331 2.03-.444 4.167-.114 2.137 0 4.509.056.975-.36 1.433-.416.457-1.412.457-1.012 0-1.564-.465-.551-.465-.608-1.425-.134-2.372-.021-4.509.113-2.137.455-4.167t.877-4.015q.535-1.986 1.189-4.019Zm7.556 18.393q-.904 0-1.392-.444-.488-.444-.314-1.404l2.783-15.688q.057-.263.028-.508-.028-.245-.141-.508-.288-.898.251-1.33.539-.431 1.36-.431.889 0 1.459.44.57.439.858 1.321.113.263.142.508.028.245-.029.507.489-1.393 1.381-2.085.892-.691 2.276-.691 1.563 0 2.337.84.774.841.784 1.937.438-1.137 1.366-1.957.928-.82 2.579-.82 1.025 0 1.729.35.705.35 1.106.991.401.64.503 1.513.103.872-.077 1.922l-2.428 13.689q-.174.96-.791 1.404-.616.444-1.519.444-.904 0-1.39-.452-.485-.451-.311-1.412l2.248-12.768q.072-.428.065-.809-.008-.381-.147-.683-.139-.301-.412-.479-.273-.178-.727-.178-.901 0-1.353.647-.451.647-.615 1.48l-2.263 12.986q-.175.888-.791 1.278-.616.39-1.432.39-.817 0-1.287-.39t-.295-1.278l2.263-12.964q.072-.407.065-.79-.008-.385-.139-.684-.132-.298-.394-.486-.263-.189-.717-.189-.922 0-1.419.645-.497.644-.646 1.483l-2.249 12.789q-.174.96-.788 1.412-.613.452-1.517.452Zm36.673-4.722q.55.813.436 1.593-.113.781-.762 1.254-1.599 1.275-3.385 1.678-1.787.404-4.059.404-1.44 0-2.651-.494-1.212-.493-2.109-1.393t-1.409-2.15q-.512-1.25-.584-2.761-.128-3.362.667-5.926.796-2.564 2.278-4.304 1.482-1.74 3.533-2.616 2.052-.876 4.451-.876 3.069 0 4.721 1.407 1.652 1.407 1.822 3.982.135 2.031-.671 3.297-.805 1.265-2.196 1.99-1.392.724-3.197 1.007-1.805.283-3.703.316-1.897.033-3.715-.067-1.818-.1-3.195-.136l.103-3.335q1.213.051 2.638.118 1.424.067 2.862.08 1.438.014 2.791-.094t2.369-.423q1.016-.314 1.587-.898.571-.585.494-1.502-.036-.479-.265-.847t-.599-.607q-.37-.24-.895-.368-.525-.13-1.158-.13-1.366 0-2.649.591-1.284.59-2.244 1.786-.96 1.196-1.517 2.993-.556 1.796-.52 4.223.015.777.308 1.385.293.607.77 1.032.476.425 1.109.654.633.23 1.312.23.828 0 1.461-.073.633-.072 1.204-.226.571-.155 1.096-.407.525-.252 1.08-.612.66-.453 1.302-.443.642.01 1.089.668Zm9.79 2.136 10.913-18.387q.159-.226.236-.427.077-.2.092-.36.072-.42-.197-.582-.27-.163-.917-.163h-9.27q-.981 0-1.376-.487-.396-.488-.201-1.469.159-.98.727-1.476t1.549-.496h12.399q1.557 0 2.178.745t.381 2.177q-.088.509-.237.904-.149.396-.36.745l-12.221 20.683q-.43.693-1.047 1.04-.616.346-1.565.346-.955 0-1.381-.339-.427-.339-.288-1.053.051-.292.19-.649.139-.356.395-.752Zm35.027-5.217q-.303 1.805-1.187 3.277-.885 1.473-2.237 2.53-1.352 1.057-3.154 1.63-1.802.573-3.978.573-1.594 0-3.216-.311-1.623-.311-2.8-.912-.709-.35-.874-1.094-.165-.745.395-1.556.488-.725 1.276-1.033.788-.308 1.75.133.839.396 1.965.62 1.127.224 2.279.224 2.255 0 3.785-1.145 1.529-1.146 1.937-3.437.2-1.18-.189-1.982-.389-.803-1.246-1.302t-2.108-.712q-1.251-.213-2.79-.213h-.766q-1.629 0-2.277-.794-.647-.794-.344-2.444l1.328-7.496q.283-1.629 1.202-2.407.92-.779 2.549-.779h9.557q.966 0 1.366.496.401.495.242 1.46-.196.966-.768 1.47-.572.502-1.538.502h-6.993q-.811 0-1.264.399-.452.398-.611 1.195l-.527 2.998q-.159.797.17 1.21.329.414 1.141.414 1.677 0 3.301.288 1.624.287 2.82 1.192 1.197.905 1.745 2.574.548 1.669.059 4.432Zm5.028 6.787q-.709-.35-.874-1.094-.165-.745.395-1.556.488-.725 1.276-1.033.789-.308 1.75.133.839.396 1.965.62 1.127.224 2.279.224 2.256 0 3.785-1.145 1.529-1.146 1.937-3.437.221-1.251-.374-1.995-.595-.744-1.612-1.12-1.017-.375-2.265-.466-1.248-.09-2.355-.048-.4.02-.747-.077-.346-.098-.587-.327-.241-.228-.336-.62-.095-.393.007-1 .175-1.041.814-1.473.639-.431 1.827-.431.951 0 1.996-.183t1.979-.618q.935-.435 1.625-1.166.691-.732.876-1.83.149-.91-.157-1.528-.307-.618-.888-.994-.582-.376-1.342-.53-.759-.154-1.516-.154-.824 0-1.656.174-.831.175-1.691.613-.841.426-1.514.126t-.904-1.056q-.241-.784.136-1.544t1.256-1.228q.966-.504 2.331-.76 1.366-.254 2.786-.254 1.6 0 3.078.34 1.478.338 2.545 1.128 1.067.79 1.576 2.08.509 1.29.185 3.157-.165.983-.553 1.95-.389.967-1.003 1.767-.615.8-1.471 1.38-.857.58-1.968.777 1.246.123 2.113.643.866.52 1.357 1.368.492.85.62 1.971.128 1.122-.109 2.429-.303 1.805-1.187 3.277-.885 1.473-2.237 2.53-1.352 1.057-3.154 1.63-1.802.573-3.978.573-1.594 0-3.216-.311-1.623-.311-2.8-.912Zm29.262-2.706q1.09 0 1.981-.329.89-.329 1.57-.964t1.139-1.547q.458-.91.665-2.054.149-.927.004-1.751-.144-.824-.6-1.453-.456-.628-1.231-.988-.774-.36-1.871-.36-1.132 0-2.054.404-.921.404-1.591 1.083-.67.68-1.089 1.58-.42.901-.605 1.9-.191 1.14-.018 1.992.172.852.667 1.405.495.553 1.272.818.777.264 1.761.264Zm6.441-22.865q.935-.319 1.541-.121.606.197.894 1.055.283.861-.064 1.542-.346.681-1.404 1.06-1.729.577-3.306 1.458-1.578.88-2.893 2.016-1.316 1.136-2.294 2.54-.979 1.403-1.529 3.025 1.168-1.53 2.724-2.307 1.557-.778 3.565-.778 1.533 0 2.759.63 1.227.63 2.019 1.756.792 1.127 1.088 2.657.296 1.53-.028 3.314-.376 2.176-1.315 3.852-.938 1.676-2.278 2.804-1.339 1.129-3.021 1.71-1.681.581-3.562.581-2.101 0-3.623-.593-1.522-.593-2.392-1.845-.869-1.25-1.093-3.198-.224-1.947.27-4.654.576-3.291 1.839-5.96 1.263-2.67 3.071-4.72 1.808-2.05 4.107-3.51 2.299-1.46 4.925-2.314Z" />
    <path fill="#BBC8D1"
      d="M461.432 379.48q.72 0 1.134.45.414.45.414 1.17t-.414 1.17q-.414.45-1.134.45h-13.824q-.72 0-1.134-.45-.414-.45-.414-1.17t.414-1.17q.414-.45 1.134-.45h13.824Zm-8.352 1.8v-12.96q0-.72-.36-1.08-.36-.36-1.08-.36h-3.276q-.72 0-1.152-.45-.432-.45-.432-1.17t.432-1.17q.432-.45 1.152-.45h5.076q1.476 0 2.178.702t.702 2.178v14.76h-3.24Zm1.44-21.204q-1.188 0-1.872-.612-.684-.612-.684-1.656 0-1.08.684-1.71.684-.63 1.872-.63 1.188 0 1.872.63.684.63.684 1.71 0 1.044-.684 1.656-.684.612-1.872.612Zm16.74 11.268v10.116q0 .828-.396 1.224t-1.224.396q-.828 0-1.224-.396t-.396-1.224v-17.28q0-.828.396-1.224t1.224-.396q.828 0 1.224.396t.396 1.224v2.124q.504-1.728 1.728-2.736 1.224-1.008 3.204-1.008 1.44 0 2.646.486t2.088 1.386q.882.9 1.368 2.16.486 1.26.486 2.808v12.06q0 .828-.396 1.224t-1.224.396q-.828 0-1.224-.396t-.396-1.224v-11.124q0-.936-.252-1.782t-.738-1.494q-.486-.648-1.206-1.044t-1.692-.396q-.972 0-1.782.576t-1.386 1.422q-.576.846-.9 1.854-.324 1.008-.324 1.872Z" />
    <path fill="#A4DFAE"
      d="M524.678 368.18q0-.909.437-1.345.436-.436 1.345-.436t1.346.436q.436.437.436 1.346v1.579q0 .924-.272 1.772-.273.849-.863 1.477-.59.628-1.52 1-.932.373-2.268.373-1.708 0-2.722-.682t-1.724-1.508q-.71-.826-1.267-1.507-.557-.682-1.325-.682-.672 0-1.015.404-.344.403-.344 1.039v1.153q0 .91-.437 1.346-.436.437-1.345.437t-1.345-.437q-.437-.436-.437-1.346v-1.667q0-.96.272-1.79.272-.831.863-1.437.59-.606 1.52-.956.931-.35 2.268-.35 1.644 0 2.658.681 1.014.682 1.72 1.508.705.825 1.285 1.507.58.682 1.375.682.7 0 1.03-.398.329-.397.329-1.125v-1.074Zm9.309 16.813 11.365-30.935q.204-.605.67-.911.467-.307 1.285-.307.817 0 1.282.307.464.306.464.979 0 .24-.058.517-.058.276-.182.605l-11.365 30.934q-.22.63-.683.924-.462.294-1.263.294-.85 0-1.303-.314-.452-.315-.452-.972 0-.24.058-.52t.182-.601Zm21.905-2.192q-.818 0-1.354-.404-.536-.405-.536-1.286V364.17q0-.79.52-1.2.52-.41 1.278-.41.809 0 1.308.422.498.423.498 1.188v1.13q.372-1.276 1.066-2.008.695-.732 2.122-.732 1.556 0 2.465.826.908.827 1.103 1.914.273-1.144 1.06-1.942.788-.798 2.417-.798 1.067 0 1.847.372t1.287 1.041q.508.67.755 1.563.246.894.246 1.958v13.617q0 .881-.514 1.286-.515.404-1.332.404-.817 0-1.344-.409-.526-.408-.526-1.29v-12.977q0-.899-.382-1.627-.382-.73-1.404-.73-.994 0-1.372.715-.378.715-.378 1.615v13.193q0 .81-.492 1.16-.493.35-1.23.35t-1.226-.35q-.489-.35-.489-1.16v-13.166q0-.863-.359-1.61-.36-.746-1.39-.746-.994 0-1.406.705-.412.705-.412 1.624v13.005q0 .88-.504 1.29-.505.408-1.322.408Zm26.523.279q-1.296 0-2.45-.448-1.155-.449-2.011-1.459-.857-1.01-1.367-2.632-.51-1.623-.51-3.999 0-2.467.512-4.661.512-2.194 1.542-3.815 1.03-1.622 2.592-2.564t3.634-.942q1.72 0 2.716.862.997.861 1.515 2.203.518 1.342.655 2.969.136 1.626.136 3.119 0 2.118-.33 4.156t-1.139 3.645q-.808 1.607-2.15 2.587-1.342.979-3.345.979Zm.51-3.604q1.02 0 1.912-.542.894-.541 1.55-1.544.655-1.003 1.039-2.434.384-1.431.384-3.219 0-.904-.067-1.894-.066-.99-.35-1.797-.284-.807-.873-1.344-.59-.538-1.665-.538-1.09 0-2.014.666-.924.665-1.6 1.817-.675 1.15-1.056 2.73-.382 1.578-.382 3.384 0 2.199.77 3.457.769 1.257 2.352 1.257Zm5.552-15.154q.152-.964.68-1.363.53-.399 1.4-.399.944 0 1.315.422.37.423.218 1.34-.336 2.075-.516 4.1-.18 2.026-.138 4.092.042 2.065.323 4.239.282 2.173.834 4.581.196.89-.108 1.318-.304.428-1.222.428-.924 0-1.505-.433-.582-.432-.778-1.313-.58-2.408-.847-4.581-.268-2.173-.296-4.239-.027-2.065.153-4.091.18-2.026.487-4.1Zm11.767-1.762q.95 0 1.414.467.465.466.465 1.408v2.158q.316-.892.786-1.628.47-.737 1.117-1.27.649-.535 1.5-.835.853-.3 1.954-.3 2.155 0 3.515.84 1.36.84 2.12 2.218.76 1.377 1.024 3.114.264 1.736.264 3.55 0 1.903-.3 3.823t-1.112 3.47q-.812 1.55-2.269 2.527-1.456.978-3.748.978-1.923 0-3.229-1.038t-1.622-2.682v8.337q0 .95-.457 1.406-.457.457-1.406.457-.95 0-1.406-.457-.457-.457-.457-1.406v-23.262q0-.942.449-1.408.448-.467 1.398-.467Zm6.596 3.604q-.931 0-1.79.38-.86.38-1.504 1.006-.643.626-1.033 1.448-.39.822-.39 1.735v3.393q0 .88.308 1.824.307.944.86 1.731.551.788 1.333 1.291.781.504 1.721.504 1.442 0 2.29-.616.847-.616 1.305-1.621.457-1.005.597-2.27.14-1.265.14-2.528 0-1.29-.167-2.436-.168-1.145-.594-2.003-.425-.858-1.181-1.348-.756-.49-1.895-.49Zm21.616 8.12q0 2.632.733 3.912.734 1.28 2.165 1.28.671 0 1.315-.105.643-.104 1.398-.46.818-.42 1.424-.193.607.226 1.027.967.473.801.29 1.444-.182.643-.923 1.027-1.12.584-2.392.754-1.272.17-2.76.17-1.385 0-2.496-.484-1.11-.485-1.891-1.487-.78-1.002-1.198-2.551-.418-1.55-.418-3.67l.028-13.473q0-.8-.401-1.201-.4-.4-1.201-.4h-2.307q-.834 0-1.261-.427-.426-.427-.426-1.26 0-.834.426-1.26.427-.427 1.261-.427h4.431q1.63 0 2.417.787.787.787.787 2.417l-.028 14.64Zm26.684 3.352q.749 0 1.219.555.47.554.47 1.256 0 .38-.174.727t-.67.82q-.569.514-1.217.898-.648.384-1.402.66-.754.276-1.596.402-.843.126-1.8.126-2.12 0-3.758-.722-1.638-.723-2.76-2.053-1.122-1.33-1.717-3.208-.596-1.877-.596-4.153 0-2.035.49-3.925.49-1.89 1.538-3.32t2.694-2.285q1.646-.854 3.95-.854 2.176 0 3.613.754 1.436.755 2.297 2.087.86 1.332 1.212 3.101.353 1.77.353 3.821 0 .77-.484 1.304t-1.321.534h-12.168v-3.123h9.897q.189 0 .367-.192.177-.192.177-.842 0-.715-.248-1.407-.248-.691-.776-1.228t-1.327-.87q-.8-.335-1.903-.335-1.207 0-2.108.486-.902.485-1.485 1.343-.584.857-.878 2.026-.294 1.17-.294 2.573 0 1.803.388 3.1.388 1.298 1.094 2.131.705.834 1.684 1.243.98.41 2.162.41 1.515 0 2.501-.476.987-.476 1.51-.9.305-.26.529-.362.225-.102.537-.102Zm9.38-5.014q-.911 0-1.346-.435-.436-.436-.436-1.346 0-.91.436-1.346.435-.437 1.346-.437h12.96q.911 0 1.346.435.436.436.436 1.346 0 .91-.436 1.346-.435.437-1.346.437h-12.96Zm35.039-3.218h-14.458q-.833 0-1.302-.486-.468-.487-.468-1.32 0-.833.468-1.316.469-.482 1.302-.482h14.458q.833 0 1.302.482.468.483.468 1.316 0 .833-.468 1.32-.469.486-1.302.486Zm-6.415-7.002v18.815q0 .95-.456 1.406-.457.457-1.407.457-.949 0-1.406-.457-.457-.457-.457-1.406v-18.815q0-1.364.499-2.459.498-1.094 1.386-1.882.889-.788 2.075-1.205 1.187-.416 2.555-.416h3.226q.825 0 1.318.478.492.479.492 1.304 0 .825-.492 1.304-.493.478-1.318.478h-3.226q-.654 0-1.186.214-.532.214-.881.563-.35.35-.536.784-.186.434-.186.837ZM714.2 383.08q-2.121 0-3.665-.786t-2.573-2.166q-1.028-1.38-1.526-3.262-.498-1.883-.498-4.074 0-2.192.484-4.06.485-1.867 1.513-3.234 1.028-1.366 2.586-2.152 1.558-.786 3.679-.786 2.148 0 3.707.786 1.558.786 2.572 2.148t1.499 3.23q.484 1.868.484 4.068 0 2.191-.498 4.074-.498 1.882-1.513 3.262-1.014 1.38-2.572 2.166t-3.679.786Zm0-3.523q1.171 0 2.028-.51.858-.51 1.415-1.4.558-.89.825-2.143.268-1.253.268-2.712 0-1.467-.254-2.692-.253-1.225-.811-2.111-.558-.886-1.415-1.396-.857-.51-2.056-.51t-2.056.51q-.857.51-1.415 1.4-.558.89-.811 2.129-.254 1.239-.254 2.698 0 1.46.268 2.698.267 1.24.825 2.13.557.889 1.415 1.399.857.51 2.028.51Zm17.679-8.205v9.865q0 .95-.457 1.406-.457.457-1.406.457-.95 0-1.406-.457-.457-.457-.457-1.406v-16.81q0-.941.448-1.394.449-.453 1.366-.453t1.394.453q.477.453.477 1.394v1.945q.521-1.768 1.745-2.78 1.224-1.012 3.147-1.012 1.504 0 2.739.506 1.234.507 2.124 1.427.891.92 1.372 2.2.482 1.28.482 2.829v11.695q0 .95-.457 1.406-.456.457-1.406.457-.949 0-1.406-.457-.457-.457-.457-1.406V370.49q0-.863-.227-1.657-.228-.793-.678-1.405-.449-.611-1.121-.987-.671-.375-1.595-.375-.939 0-1.721.51-.781.512-1.333 1.285-.552.773-.86 1.708-.307.935-.307 1.783Zm31.908-7.712q.834 0 1.264.482.431.483.431 1.316 0 .833-.431 1.32-.43.487-1.264.487h-13.978q-.826 0-1.252-.483-.427-.482-.427-1.307 0-.842.431-1.328.43-.487 1.272-.487h13.954Zm-.712 15.272q.817-.42 1.423-.194.607.226 1.027.967.473.801.291 1.444-.183.643-.923 1.027-1.121.584-2.393.754-1.272.17-2.76.17-1.385 0-2.496-.484-1.11-.485-1.891-1.487-.78-1.002-1.198-2.551-.418-1.55-.418-3.67v-15.685q0-.95.457-1.406.457-.457 1.406-.457.949 0 1.406.457.457.456.457 1.406v15.08q0 2.633.734 3.913.733 1.28 2.164 1.28.672 0 1.315-.105.644-.104 1.399-.46Z" />
    <path fill="#BBC8D1"
      d="M801.8 383.08q-2.088 0-3.6-.774t-2.52-2.142q-1.008-1.368-1.494-3.258t-.486-4.122q0-2.232.468-4.104.468-1.872 1.476-3.222 1.008-1.35 2.538-2.124 1.53-.774 3.618-.774 2.124 0 3.654.774 1.53.774 2.52 2.124t1.458 3.222q.468 1.872.468 4.104t-.486 4.122q-.486 1.89-1.476 3.258t-2.52 2.142q-1.53.774-3.618.774Zm0-3.24q1.26 0 2.178-.522.918-.522 1.512-1.44.594-.918.882-2.232.288-1.314.288-2.862t-.27-2.826q-.27-1.278-.864-2.196-.594-.918-1.512-1.44-.918-.522-2.214-.522-1.296 0-2.214.522-.918.522-1.512 1.44-.594.918-.864 2.214-.27 1.296-.27 2.844 0 1.548.288 2.844.288 1.296.882 2.214.594.918 1.512 1.44.918.522 2.178.522Zm17.46-8.496v10.116q0 .828-.396 1.224t-1.224.396q-.828 0-1.224-.396t-.396-1.224v-17.28q0-.828.396-1.224t1.224-.396q.828 0 1.224.396t.396 1.224v2.124q.504-1.728 1.728-2.736 1.224-1.008 3.204-1.008 1.44 0 2.646.486t2.088 1.386q.882.9 1.368 2.16.486 1.26.486 2.808v12.06q0 .828-.396 1.224t-1.224.396q-.828 0-1.224-.396t-.396-1.224v-11.124q0-.936-.252-1.782t-.738-1.494q-.486-.648-1.206-1.044t-1.692-.396q-.972 0-1.782.576t-1.386 1.422q-.576.846-.9 1.854-.324 1.008-.324 1.872Z" />
    <path fill="#85C2FF"
      d="M864.56 390.28q0 1.08-.54 1.62t-1.62.54q-1.08 0-1.62-.54t-.54-1.62v-11.556q0-1.62.792-3.204t2.124-2.556l5.22-3.888q.9-.648 1.422-1.458.522-.81.522-1.494v-5.58q0-.288-.126-.414t-.414-.126h-1.26q-1.08 0-1.242-.378-.162-.378.594-1.134l3.852-3.852q.396-.396.756-.396t.756.396l3.852 3.852q.756.756.594 1.134-.162.378-1.242.378h-1.26q-.288 0-.414.126t-.126.414v5.94q0 1.332-.72 2.682-.72 1.35-1.872 2.214l-5.58 4.14q-.936.684-1.422 1.62-.486.936-.486 1.98v11.16Zm-4.32-40.32q0-1.08.54-1.62t1.62-.54q1.08 0 1.62.54t.54 1.62v16.452l-4.32 3.204V349.96Zm48.241 31.197-5.763-16.515q-.14-.432-.066-.8.074-.37.309-.66.234-.29.617-.456.382-.166.83-.166.669 0 1.164.365.494.364.727 1.033l4.128 11.992q.189.557.573.557.384 0 .573-.557l4.128-11.992q.233-.669.727-1.034.495-.364 1.163-.364.449 0 .831.166.383.166.617.456.235.29.31.66.073.368-.067.8l-5.763 16.515q-.329.954-.907 1.438-.579.485-1.612.485-1.005 0-1.598-.485-.592-.484-.92-1.438Zm21.934 1.923q-1.296 0-2.45-.448-1.155-.449-2.011-1.459-.857-1.01-1.367-2.632-.51-1.623-.51-3.999 0-2.467.512-4.661.512-2.194 1.542-3.815 1.03-1.622 2.592-2.564t3.634-.942q1.72 0 2.716.862.997.861 1.515 2.203.518 1.342.655 2.969.136 1.626.136 3.119 0 2.118-.33 4.156t-1.139 3.645q-.808 1.607-2.15 2.587-1.342.979-3.345.979Zm.51-3.604q1.02 0 1.912-.542.894-.541 1.55-1.544.655-1.003 1.039-2.434.384-1.431.384-3.219 0-.904-.067-1.894-.066-.99-.35-1.797-.284-.807-.873-1.344-.59-.538-1.665-.538-1.09 0-2.014.666-.924.665-1.6 1.817-.675 1.15-1.056 2.73-.382 1.578-.382 3.384 0 2.199.77 3.457.769 1.257 2.352 1.257Zm5.552-15.154q.152-.964.68-1.363.53-.399 1.4-.399.944 0 1.315.422.37.423.218 1.34-.336 2.075-.516 4.1-.18 2.026-.138 4.092.042 2.065.323 4.239.282 2.173.834 4.581.196.89-.108 1.318-.304.428-1.222.428-.924 0-1.505-.433-.582-.432-.778-1.313-.58-2.408-.847-4.581-.268-2.173-.296-4.239-.027-2.065.153-4.091.18-2.026.487-4.1Zm12.503 18.758q-.95 0-1.398-.457-.449-.457-.449-1.406v-16.81q0-.941.453-1.394.452-.453 1.394-.453t1.39.453q.449.453.449 1.394v1.945q.636-1.768 2.29-2.78 1.654-1.012 4.261-1.012 1.603 0 2.642.56 1.038.56 1.642 1.527.604.969.845 2.273.24 1.304.24 2.784v.416q0 .95-.456 1.406-.457.457-1.407.457-.949 0-1.406-.457-.457-.457-.457-1.406v-.351q0-.771-.1-1.484-.099-.714-.395-1.273-.296-.56-.859-.891-.564-.332-1.518-.332-.888 0-1.828.312-.94.312-1.725.896-.785.583-1.277 1.42-.492.838-.492 1.881v10.919q0 .95-.445 1.406-.445.457-1.394.457Zm34.308-3.96q.828 0 1.278.486.45.486.45 1.314 0 .828-.45 1.314-.45.486-1.278.486H969.68q-.828 0-1.278-.486-.45-.486-.45-1.314 0-.828.45-1.314.45-.486 1.278-.486h13.608Zm-8.424 2.052v-12.348q0-.792-.396-1.188-.396-.396-1.188-.396h-2.844q-.828 0-1.296-.486-.468-.486-.468-1.314 0-.828.468-1.314.468-.486 1.296-.486h4.932q1.62 0 2.412.792.792.792.792 2.412v14.328h-3.708Zm1.656-20.988q-1.26 0-1.98-.648t-.72-1.764q0-1.116.72-1.782.72-.666 1.98-.666t1.98.666q.72.666.72 1.782t-.72 1.764q-.72.648-1.98.648Zm18.695 22.896q-1.296 0-2.451-.448-1.154-.449-2.01-1.459-.857-1.01-1.367-2.632-.51-1.623-.51-3.999 0-2.467.512-4.661.512-2.194 1.542-3.815 1.03-1.622 2.592-2.564t3.634-.942q1.72 0 2.716.862.996.861 1.515 2.203.518 1.342.655 2.969.136 1.626.136 3.119 0 2.118-.33 4.156t-1.139 3.645q-.808 1.607-2.15 2.587-1.342.979-3.345.979Zm.51-3.604q1.019 0 1.912-.542.894-.541 1.549-1.544.656-1.003 1.04-2.434.384-1.431.384-3.219 0-.904-.067-1.894-.066-.99-.35-1.797-.284-.807-.873-1.344-.59-.538-1.665-.538-1.091 0-2.015.666-.923.665-1.598 1.817-.676 1.15-1.057 2.73-.382 1.578-.382 3.384 0 2.199.769 3.457.77 1.257 2.353 1.257Zm5.552-15.154q.152-.964.681-1.363t1.398-.399q.945 0 1.316.422.37.423.218 1.34-.336 2.075-.516 4.1-.18 2.026-.138 4.092.042 2.065.323 4.239.282 2.173.834 4.581.196.89-.108 1.318-.304.428-1.222.428-.924 0-1.505-.433-.582-.432-.778-1.313-.579-2.408-.847-4.581-.268-2.173-.296-4.239-.027-2.065.153-4.091.18-2.026.487-4.1Zm11.767 18.758q-.95 0-1.398-.467-.449-.466-.449-1.408v-23.262q0-.95.457-1.406.456-.457 1.406-.457.949 0 1.406.457.457.457.457 1.406v8.337q.316-1.644 1.622-2.682t3.229-1.038q2.292 0 3.748.964 1.457.964 2.269 2.514.812 1.55 1.112 3.479.3 1.93.3 3.841 0 1.786-.264 3.536t-1.024 3.128q-.76 1.378-2.12 2.218-1.36.84-3.515.84-1.101 0-1.953-.3-.853-.3-1.501-.834-.648-.534-1.117-1.27-.47-.737-.786-1.63v2.16q0 .94-.465 1.407-.465.467-1.414.467Zm6.596-3.604q1.139 0 1.895-.49t1.181-1.348q.426-.858.594-2.003.167-1.145.167-2.436 0-1.271-.14-2.532-.14-1.26-.597-2.266-.458-1.005-1.305-1.62-.848-.617-2.29-.617-.94 0-1.721.504-.782.503-1.334 1.29-.552.788-.859 1.732-.308.944-.308 1.824v3.393q0 .913.39 1.735.39.822 1.033 1.448.644.626 1.503 1.006.86.38 1.791.38Zm21.616-5.192q0 2.632.733 3.912.734 1.28 2.165 1.28.671 0 1.315-.105.643-.104 1.398-.46.818-.42 1.424-.193.607.226 1.027.967.473.801.29 1.444-.182.643-.923 1.027-1.12.584-2.392.754-1.272.17-2.76.17-1.385 0-2.496-.484-1.11-.485-1.891-1.487-.78-1.002-1.198-2.551-.418-1.55-.418-3.67l.028-13.473q0-.8-.401-1.201-.4-.4-1.201-.4h-2.307q-.834 0-1.261-.427-.426-.427-.426-1.26 0-.834.426-1.26.427-.427 1.261-.427h4.431q1.63 0 2.417.787.787.787.787 2.417l-.028 14.64Zm26.684 3.352q.749 0 1.219.555.47.554.47 1.256 0 .38-.174.727t-.67.82q-.569.514-1.217.898-.648.384-1.402.66-.754.276-1.596.402-.843.126-1.8.126-2.12 0-3.758-.722-1.638-.723-2.76-2.053-1.122-1.33-1.717-3.208-.596-1.877-.596-4.153 0-2.035.49-3.925.49-1.89 1.538-3.32t2.694-2.285q1.646-.854 3.95-.854 2.176 0 3.613.754 1.436.755 2.297 2.087.86 1.332 1.212 3.101.353 1.77.353 3.821 0 .77-.484 1.304t-1.321.534h-12.168v-3.123h9.897q.189 0 .367-.192.177-.192.177-.842 0-.715-.248-1.407-.248-.691-.776-1.228t-1.327-.87q-.8-.335-1.903-.335-1.207 0-2.108.486-.902.485-1.485 1.343-.584.857-.878 2.026-.294 1.17-.294 2.573 0 1.803.388 3.1.388 1.298 1.094 2.131.705.834 1.684 1.243.98.41 2.162.41 1.515 0 2.501-.476.987-.476 1.51-.9.305-.26.529-.362.225-.102.537-.102Z" />
    <path fill="#A1E8E5"
      d="M351.66 516.66q.18.72.522 1.044.342.324 1.062.324.864 0 1.314-.432.45-.432.414-1.188-.036-1.188-.522-2.178-.486-.99-1.332-1.692-.846-.702-2.016-1.08-1.17-.378-2.61-.378-1.656 0-3.114.504t-2.592 1.44q-1.134.936-1.908 2.214t-1.062 2.862q-.432 2.556.648 4.392 1.08 1.836 3.456 2.556l3.816 1.116q1.512.432 2.106 1.602.594 1.17.306 2.79-.18 1.044-.648 1.836t-1.206 1.332q-.738.54-1.71.828-.972.288-2.124.288-1.8 0-2.844-.738-1.044-.738-1.26-2.214-.144-.792-.648-1.08-.504-.288-1.224-.288-.756 0-1.188.468-.432.468-.468 1.152 0 2.808 1.872 4.374 1.872 1.566 5.148 1.566 1.908 0 3.51-.54 1.602-.54 2.844-1.512 1.242-.972 2.07-2.358.828-1.386 1.116-3.114.504-2.772-.612-4.77-1.116-1.998-3.6-2.718l-3.924-1.152q-1.332-.396-1.89-1.404-.558-1.008-.306-2.484.288-1.548 1.62-2.628t3.276-1.08q1.476 0 2.466.522.99.522 1.242 1.818Zm6.768 21.06q-.72 0-1.17-.36-.45-.36-.306-1.152l2.844-15.948q.072-.324.036-.63t-.18-.63q-.288-.684.144-1.062.432-.378 1.116-.378.72 0 1.206.378t.774 1.062q.144.324.18.63.036.306-.036.63.504-1.44 1.35-2.07.846-.63 2.322-.63 1.548 0 2.322.81t.738 1.89q.468-1.152 1.404-1.926.936-.774 2.556-.774 1.116 0 1.836.396t1.098 1.098q.378.702.45 1.62.072.918-.108 1.998l-2.412 13.536q-.144.792-.684 1.152-.54.36-1.26.36t-1.152-.36q-.432-.36-.288-1.152l2.34-13.212q.072-.504.072-.954 0-.45-.162-.828-.162-.378-.504-.594-.342-.216-.918-.216-1.116 0-1.674.792-.558.792-.738 1.764l-2.34 13.428q-.144.72-.63 1.026-.486.306-1.134.306-.648 0-1.026-.306t-.234-1.026l2.34-13.392q.072-.468.072-.936t-.162-.828q-.162-.36-.486-.594-.324-.234-.9-.234-1.152 0-1.71.774t-.738 1.782l-2.34 13.248q-.144.792-.666 1.152-.522.36-1.242.36Zm28.62.36q-2.088 0-3.474-.774-1.386-.774-2.142-2.142-.756-1.368-.9-3.258-.144-1.89.252-4.122t1.206-4.104q.81-1.872 2.034-3.222 1.224-1.35 2.898-2.124 1.674-.774 3.762-.774 2.124 0 3.51.774 1.386.774 2.142 2.124t.9 3.222q.144 1.872-.252 4.104t-1.224 4.122q-.828 1.89-2.07 3.258t-2.898 2.142q-1.656.774-3.744.774Zm.576-3.24q1.26 0 2.268-.522 1.008-.522 1.764-1.44.756-.918 1.278-2.232t.81-2.862q.288-1.548.234-2.826-.054-1.278-.486-2.196-.432-.918-1.26-1.44-.828-.522-2.124-.522-1.296 0-2.304.522-1.008.522-1.764 1.44-.756.918-1.26 2.214-.504 1.296-.792 2.844-.252 1.548-.198 2.844.054 1.296.486 2.214.432.918 1.26 1.44.828.522 2.088.522Zm21.024 3.24q-2.088 0-3.474-.774-1.386-.774-2.142-2.142-.756-1.368-.9-3.258-.144-1.89.252-4.122t1.206-4.104q.81-1.872 2.034-3.222 1.224-1.35 2.898-2.124 1.674-.774 3.762-.774 2.124 0 3.51.774 1.386.774 2.142 2.124t.9 3.222q.144 1.872-.252 4.104t-1.224 4.122q-.828 1.89-2.07 3.258t-2.898 2.142q-1.656.774-3.744.774Zm.576-3.24q1.26 0 2.268-.522 1.008-.522 1.764-1.44.756-.918 1.278-2.232t.81-2.862q.288-1.548.234-2.826-.054-1.278-.486-2.196-.432-.918-1.26-1.44-.828-.522-2.124-.522-1.296 0-2.304.522-1.008.522-1.764 1.44-.756.918-1.26 2.214-.504 1.296-.792 2.844-.252 1.548-.198 2.844.054 1.296.486 2.214.432.918 1.26 1.44.828.522 2.088.522Zm30.924-16.2q.72 0 1.026.45.306.45.162 1.17t-.576 1.17q-.432.45-1.152.45h-13.716q-.72 0-1.044-.45-.324-.45-.18-1.17.144-.72.594-1.17.45-.45 1.17-.45h13.716Zm-12.24 13.284 3.564-17.964q.18-.828.63-1.224t1.278-.396q.828 0 1.17.396.342.396.162 1.224l-3.132 15.696q-.252 1.368-.378 2.34-.126.972-.018 1.602.108.63.432.936.324.306.9.306 1.008 0 1.962-.558t1.71-1.386q.612-.648 1.188-.648t1.008.396q.468.396.486 1.008.018.612-.522 1.224-.72.756-1.44 1.35-.72.594-1.476 1.008-.756.414-1.62.63-.864.216-1.836.216-1.332 0-2.25-.432-.918-.432-1.404-1.242-.486-.81-.576-1.944-.09-1.134.162-2.538Zm21.888-5.58-1.8 10.116q-.144.828-.612 1.224-.468.396-1.296.396-.828 0-1.152-.396-.324-.396-.18-1.224l4.212-23.76q.144-.828.612-1.224.468-.396 1.296-.396.828 0 1.152.396.324.396.18 1.224l-1.548 8.604q.828-1.728 2.232-2.736 1.404-1.008 3.384-1.008 1.44 0 2.556.486t1.836 1.386q.72.9.99 2.16.27 1.26-.018 2.808l-2.124 12.06q-.144.828-.612 1.224-.468.396-1.296.396-.828 0-1.152-.396-.324-.396-.18-1.224l1.98-11.124q.18-.936.072-1.782t-.486-1.494q-.378-.648-1.026-1.044t-1.62-.396q-.972 0-1.89.576-.918.576-1.638 1.422-.72.846-1.224 1.854t-.648 1.872Zm49.644 11.376.9-4.824q-.828 1.728-2.232 2.736-1.404 1.008-3.384 1.008-1.44 0-2.556-.486t-1.854-1.386q-.738-.9-.99-2.16-.252-1.26.036-2.808l2.016-10.62q.18-.828.63-1.224t1.278-.396q.828 0 1.17.396.342.396.162 1.224l-1.872 9.684q-.18.936-.072 1.782t.486 1.494q.378.648 1.026 1.044t1.62.396q.972 0 1.89-.576.918-.576 1.638-1.422.72-.846 1.224-1.854t.648-1.872l1.512-8.676q.144-.828.612-1.224.468-.396 1.296-.396.828 0 1.152.396.324.396.18 1.224l-3.276 18.54q-.396 2.304-1.098 3.942-.702 1.638-1.8 2.682t-2.682 1.53q-1.584.486-3.78.486-1.224 0-2.214-.27t-1.764-.702q-.774-.432-1.332-.99t-.882-1.134q-.18-.324-.252-.702-.072-.378 0-.702.036-.36.216-.702.18-.342.432-.594.252-.252.612-.396.36-.144.792-.144.396 0 .666.162t.45.486q.288.468.612.918t.81.792q.486.342 1.17.54.684.198 1.692.198.936 0 1.746-.27.81-.27 1.476-.9.666-.63 1.152-1.656.486-1.026.738-2.574Zm17.208.36q-2.088 0-3.474-.774-1.386-.774-2.142-2.142-.756-1.368-.9-3.258-.144-1.89.252-4.122t1.206-4.104q.81-1.872 2.034-3.222 1.224-1.35 2.898-2.124 1.674-.774 3.762-.774 2.124 0 3.51.774 1.386.774 2.142 2.124t.9 3.222q.144 1.872-.252 4.104t-1.224 4.122q-.828 1.89-2.07 3.258t-2.898 2.142q-1.656.774-3.744.774Zm.576-3.24q1.26 0 2.268-.522 1.008-.522 1.764-1.44.756-.918 1.278-2.232t.81-2.862q.288-1.548.234-2.826-.054-1.278-.486-2.196-.432-.918-1.26-1.44-.828-.522-2.124-.522-1.296 0-2.304.522-1.008.522-1.764 1.44-.756.918-1.26 2.214-.504 1.296-.792 2.844-.252 1.548-.198 2.844.054 1.296.486 2.214.432.918 1.26 1.44.828.522 2.088.522Zm27.864 3.24q-.828 0-1.26-.396-.432-.396-.648-1.224-.144-.504-.162-1.062-.018-.558.054-1.062-.828 1.728-2.232 2.736-1.404 1.008-3.384 1.008-1.44 0-2.556-.486t-1.836-1.386q-.72-.9-.972-2.16-.252-1.26 0-2.808l2.124-12.06q.144-.828.612-1.224.468-.396 1.296-.396.828 0 1.152.396.324.396.18 1.224l-1.98 11.124q-.144.936-.054 1.782t.468 1.494q.378.648 1.026 1.044t1.62.396q.972 0 1.89-.576.918-.576 1.638-1.422.72-.846 1.224-1.854t.648-1.872l1.8-10.116q.144-.828.612-1.224.468-.396 1.296-.396.828 0 1.152.396.324.396.18 1.224l-2.664 15.12q-.108.54-.072 1.08.036.54.18 1.08.18.828-.162 1.224-.342.396-1.17.396Zm9.612 0q-.828 0-1.152-.396-.324-.396-.18-1.224l2.664-15.12q.108-.54.072-1.08-.036-.54-.18-1.08-.18-.828.162-1.224.342-.396 1.17-.396.828 0 1.26.396.432.396.648 1.224.144.504.162 1.062.018.558-.054 1.062.936-1.728 2.754-2.736 1.818-1.008 4.482-1.008 1.62 0 2.556.576.936.576 1.332 1.548.396.972.378 2.268-.018 1.296-.27 2.736l-.072.432q-.18.828-.63 1.224t-1.278.396q-.828 0-1.17-.396-.342-.396-.162-1.224l.072-.432q.144-.828.18-1.602.036-.774-.198-1.386-.234-.612-.774-.972t-1.584-.36q-.936 0-1.962.324-1.026.324-1.908.936-.882.612-1.548 1.494t-.846 1.998l-2.016 11.34q-.144.828-.612 1.224-.468.396-1.296.396Zm42.228-10.224q.504-2.772 1.548-4.716 1.044-1.944 2.484-3.186t3.168-1.818q1.728-.576 3.528-.576 1.368 0 2.394.234t1.782.63q.756.396 1.242.9t.702 1.044q.36.828.108 1.44t-.9.972q-.72.396-1.278.288-.558-.108-.774-.648-.288-.612-1.17-1.116-.882-.504-2.466-.504-1.296 0-2.466.432-1.17.432-2.088 1.296-.918.864-1.566 2.142t-.972 3.006q-.324 1.764-.108 3.114.216 1.35.846 2.25.63.9 1.62 1.35.99.45 2.214.45.936 0 1.998-.234 1.062-.234 1.674-.774.504-.432 1.152-.504.648-.072 1.152.432.216.216.288.486.072.27 0 .594-.072.324-.306.702-.234.378-.666.81-.576.576-1.296.918-.72.342-1.476.522t-1.566.234q-.81.054-1.602.054-1.98 0-3.51-.612-1.53-.612-2.502-1.854-.972-1.242-1.314-3.186-.342-1.944.126-4.572Zm27.72 10.224q-2.088 0-3.474-.774-1.386-.774-2.142-2.142-.756-1.368-.9-3.258-.144-1.89.252-4.122t1.206-4.104q.81-1.872 2.034-3.222 1.224-1.35 2.898-2.124 1.674-.774 3.762-.774 2.124 0 3.51.774 1.386.774 2.142 2.124t.9 3.222q.144 1.872-.252 4.104t-1.224 4.122q-.828 1.89-2.07 3.258t-2.898 2.142q-1.656.774-3.744.774Zm.576-3.24q1.26 0 2.268-.522 1.008-.522 1.764-1.44.756-.918 1.278-2.232t.81-2.862q.288-1.548.234-2.826-.054-1.278-.486-2.196-.432-.918-1.26-1.44-.828-.522-2.124-.522-1.296 0-2.304.522-1.008.522-1.764 1.44-.756.918-1.26 2.214-.504 1.296-.792 2.844-.252 1.548-.198 2.844.054 1.296.486 2.214.432.918 1.26 1.44.828.522 2.088.522Zm29.088-.54q-.108.54-.072 1.08.036.54.18 1.08.18.828-.162 1.224-.342.396-1.17.396-.828 0-1.26-.396-.432-.396-.648-1.224-.144-.504-.162-1.062-.018-.558.054-1.062-.504.9-1.08 1.584-.576.684-1.278 1.17-.702.486-1.548.738-.846.252-1.89.252-2.196 0-3.402-.864t-1.728-2.25q-.522-1.386-.468-3.096.054-1.71.342-3.366.36-1.944.99-3.906.63-1.962 1.71-3.528t2.682-2.538q1.602-.972 3.87-.972 1.98 0 2.97 1.062.99 1.062 1.278 2.682l1.548-8.604q.144-.828.594-1.224.45-.396 1.278-.396.828 0 1.188.396t.18 1.224l-3.996 21.6Zm-8.136.54q.972 0 1.944-.396t1.764-1.026q.792-.63 1.35-1.44.558-.81.702-1.674l.72-3.96q.144-.864 0-1.836-.144-.972-.576-1.8-.432-.828-1.152-1.368-.72-.54-1.692-.54-1.548 0-2.574.648-1.026.648-1.692 1.71-.666 1.062-1.044 2.412-.378 1.35-.63 2.718-.252 1.404-.27 2.61-.018 1.206.27 2.088.288.882.99 1.368.702.486 1.89.486Zm18.612-11.808q-.72.18-1.206-.18t-.63-1.116q-.144-.828.162-1.296.306-.468 1.17-.684l5.22-1.296q.864-.216 1.512-.09t1.044.504q.396.378.54.972.144.594-.036 1.314l-2.124 8.496q-.396 1.62-.504 2.628-.108 1.008.036 1.566t.504.774q.36.216.9.216 1.008 0 1.962-.558t1.71-1.386q.612-.648 1.188-.648t1.008.396q.468.396.486 1.134.018.738-.486 1.35-.648.792-1.332 1.368-.684.576-1.458.918-.774.342-1.656.504-.882.162-1.962.162-2.7 0-3.906-1.44t-.378-4.716l2.304-8.892q.144-.504-.126-.72-.27-.216-.702-.108l-3.24.828Zm7.452-7.956q-1.188 0-1.764-.612-.576-.612-.36-1.656.18-1.08.972-1.71.792-.63 1.98-.63t1.764.63q.576.63.396 1.71-.216 1.044-1.008 1.656-.792.612-1.98.612Zm14.004 2.484q.828 0 1.26.396.432.396.648 1.224.144.504.162 1.062.018.558-.054 1.062.828-1.728 2.232-2.736 1.404-1.008 3.384-1.008 1.44 0 2.556.486t1.836 1.386q.72.9.99 2.16.27 1.26-.018 2.808l-2.124 12.06q-.144.828-.612 1.224-.468.396-1.296.396-.828 0-1.152-.396-.324-.396-.18-1.224l1.98-11.124q.18-.936.072-1.782t-.486-1.494q-.378-.648-1.026-1.044t-1.62-.396q-.972 0-1.89.576-.918.576-1.638 1.422-.72.846-1.224 1.854t-.648 1.872l-1.8 10.116q-.144.828-.612 1.224-.468.396-1.296.396-.828 0-1.152-.396-.324-.396-.18-1.224l2.664-15.12q.108-.54.072-1.08-.036-.54-.18-1.08-.18-.828.162-1.224.342-.396 1.17-.396Zm29.952 15.84q-.54 1.08-1.17 1.818-.63.738-1.386 1.224-.756.486-1.62.702-.864.216-1.8.216-2.16 0-3.348-.9-1.188-.9-1.71-2.304t-.486-3.15q.036-1.746.324-3.402.288-1.692.882-3.456.594-1.764 1.656-3.24 1.062-1.476 2.664-2.412 1.602-.936 3.87-.936 1.98 0 3.024 1.008t1.224 2.736l.396-2.124q.144-.828.612-1.224.468-.396 1.296-.396.828 0 1.152.396.324.396.18 1.224l-3.276 18.54q-.396 2.304-1.098 3.942-.702 1.638-1.8 2.682t-2.682 1.53q-1.584.486-3.78.486-1.224 0-2.214-.27t-1.764-.702q-.774-.432-1.332-.99t-.882-1.134q-.18-.324-.252-.702-.072-.378 0-.702.036-.36.216-.702.18-.342.432-.594.252-.252.612-.396.36-.144.792-.144.396 0 .666.162t.45.486q.288.468.612.918t.81.792q.486.342 1.17.54.684.198 1.692.198.936 0 1.746-.27.81-.27 1.476-.9.666-.63 1.152-1.656.486-1.026.738-2.574l.756-4.32Zm-5.112.9q.972 0 1.944-.414t1.782-1.098q.81-.684 1.368-1.512t.702-1.692l.576-3.24q.144-.864 0-1.872t-.576-1.854q-.432-.846-1.134-1.422t-1.674-.576q-1.548 0-2.574.648-1.026.648-1.674 1.638-.648.99-1.008 2.178t-.54 2.304q-.216 1.152-.288 2.376-.072 1.224.18 2.232.252 1.008.936 1.656.684.648 1.98.648Zm51.156-.72q.504.72.36 1.386-.144.666-.9 1.17-1.584 1.152-3.294 1.548-1.71.396-3.906.396-1.44 0-2.628-.486-1.188-.486-2.07-1.386-.882-.9-1.386-2.142-.504-1.242-.576-2.754-.144-3.744.774-6.354t2.484-4.266q1.566-1.656 3.564-2.394 1.998-.738 4.014-.738 2.916 0 4.446 1.422 1.53 1.422 1.746 3.906.18 2.016-.648 3.258-.828 1.242-2.25 1.944-1.422.702-3.258.954t-3.726.27q-1.89.018-3.654-.09t-2.988-.144l.072-2.952q1.152.036 2.592.126 1.44.09 2.916.126 1.476.036 2.898-.072 1.422-.108 2.484-.468 1.062-.36 1.656-1.044.594-.684.486-1.8-.036-.54-.288-.954-.252-.414-.63-.684-.378-.27-.918-.414-.54-.144-1.188-.144-1.152 0-2.466.468-1.314.468-2.412 1.656-1.098 1.188-1.8 3.168-.702 1.98-.666 5.004 0 .9.324 1.584t.846 1.17q.522.486 1.224.738t1.458.252q.828 0 1.476-.072t1.242-.234q.594-.162 1.134-.414.54-.252 1.08-.612.828-.576 1.386-.558.558.018.99.63Zm23.544-13.86L770.988 537q-.432.504-.954.792-.522.288-1.17.288-.36 0-.702-.144-.342-.144-.504-.414-.162-.27-.09-.666.072-.396.504-.9l14.76-17.316q.468-.54.99-.81t1.17-.27q.396 0 .738.126.342.126.504.396.162.27.09.684-.072.414-.54.954Zm-5.688 11.772q.216.936.396 1.584.18.648.432 1.044t.594.558q.342.162.882.162.504 0 .954-.144.45-.144.846-.468.324-.288.828-.216.504.072.9.54.396.396.378 1.134-.018.738-.666 1.35-.576.54-1.242.792t-1.818.252q-1.116 0-1.926-.216-.81-.216-1.44-.882-.63-.666-1.134-1.89-.504-1.224-.972-3.24l-1.8-7.704q-.252-1.08-.486-1.746-.234-.666-.504-1.008-.27-.342-.576-.468-.306-.126-.702-.126-.504 0-.954.144-.45.144-.846.468-.324.288-.828.216-.504-.072-.9-.54-.396-.396-.378-1.134.018-.738.666-1.35.576-.54 1.242-.792t1.818-.252q1.116 0 1.926.216.81.216 1.422.882.612.666 1.116 1.89.504 1.224.972 3.24l1.8 7.704Zm15.948-9.972q.504-.9 1.116-1.62.612-.72 1.35-1.242.738-.522 1.62-.81.882-.288 1.926-.288 2.196 0 3.402.864t1.728 2.25q.522 1.386.468 3.078-.054 1.692-.342 3.384-.36 1.944-.99 3.888t-1.71 3.51q-1.08 1.566-2.682 2.556-1.602.99-3.87.99-1.98 0-2.97-1.062-.99-1.062-1.278-2.682l-1.548 8.604q-.144.828-.612 1.224-.468.396-1.296.396-.828 0-1.152-.396-.324-.396-.18-1.224l3.852-21.6q.108-.54.072-1.08-.036-.54-.18-1.08-.18-.828.162-1.224.342-.396 1.17-.396.828 0 1.26.396.432.396.648 1.224.144.504.126 1.17-.018.666-.09 1.17Zm5.112-.72q-.972 0-1.944.396t-1.764 1.026q-.792.63-1.35 1.44-.558.81-.702 1.674l-.72 3.96q-.144.864 0 1.836.144.972.576 1.8.432.828 1.152 1.368.72.54 1.692.54 1.548 0 2.574-.648 1.026-.648 1.692-1.71.666-1.062 1.044-2.412.378-1.35.63-2.718.252-1.404.27-2.61.018-1.206-.27-2.088-.288-.882-.99-1.368-.702-.486-1.89-.486Zm25.884 12.78q.504.72.36 1.386-.144.666-.9 1.17-1.584 1.152-3.294 1.548-1.71.396-3.906.396-1.44 0-2.628-.486-1.188-.486-2.07-1.386-.882-.9-1.386-2.142-.504-1.242-.576-2.754-.144-3.744.774-6.354t2.484-4.266q1.566-1.656 3.564-2.394 1.998-.738 4.014-.738 2.916 0 4.446 1.422 1.53 1.422 1.746 3.906.18 2.016-.648 3.258-.828 1.242-2.25 1.944-1.422.702-3.258.954t-3.726.27q-1.89.018-3.654-.09t-2.988-.144l.072-2.952q1.152.036 2.592.126 1.44.09 2.916.126 1.476.036 2.898-.072 1.422-.108 2.484-.468 1.062-.36 1.656-1.044.594-.684.486-1.8-.036-.54-.288-.954-.252-.414-.63-.684-.378-.27-.918-.414-.54-.144-1.188-.144-1.152 0-2.466.468-1.314.468-2.412 1.656-1.098 1.188-1.8 3.168-.702 1.98-.666 5.004 0 .9.324 1.584t.846 1.17q.522.486 1.224.738t1.458.252q.828 0 1.476-.072t1.242-.234q.594-.162 1.134-.414.54-.252 1.08-.612.828-.576 1.386-.558.558.018.99.63Zm8.46 4.5q-.828 0-1.152-.396-.324-.396-.18-1.224l2.664-15.12q.108-.54.072-1.08-.036-.54-.18-1.08-.18-.828.162-1.224.342-.396 1.17-.396.828 0 1.26.396.432.396.648 1.224.144.504.162 1.062.018.558-.054 1.062.936-1.728 2.754-2.736 1.818-1.008 4.482-1.008 1.62 0 2.556.576.936.576 1.332 1.548.396.972.378 2.268-.018 1.296-.27 2.736l-.072.432q-.18.828-.63 1.224t-1.278.396q-.828 0-1.17-.396-.342-.396-.162-1.224l.072-.432q.144-.828.18-1.602.036-.774-.198-1.386-.234-.612-.774-.972t-1.584-.36q-.936 0-1.962.324-1.026.324-1.908.936-.882.612-1.548 1.494t-.846 1.998l-2.016 11.34q-.144.828-.612 1.224-.468.396-1.296.396Zm23.688-15.048q-.72.18-1.206-.18t-.63-1.116q-.144-.828.162-1.296.306-.468 1.17-.684l5.22-1.296q.864-.216 1.512-.09t1.044.504q.396.378.54.972.144.594-.036 1.314l-2.124 8.496q-.396 1.62-.504 2.628-.108 1.008.036 1.566t.504.774q.36.216.9.216 1.008 0 1.962-.558t1.71-1.386q.612-.648 1.188-.648t1.008.396q.468.396.486 1.134.018.738-.486 1.35-.648.792-1.332 1.368-.684.576-1.458.918-.774.342-1.656.504-.882.162-1.962.162-2.7 0-3.906-1.44t-.378-4.716l2.304-8.892q.144-.504-.126-.72-.27-.216-.702-.108l-3.24.828Zm7.452-7.956q-1.188 0-1.764-.612-.576-.612-.36-1.656.18-1.08.972-1.71.792-.63 1.98-.63t1.764.63q.576.63.396 1.71-.216 1.044-1.008 1.656-.792.612-1.98.612Zm25.2 18.504q.504.72.36 1.386-.144.666-.9 1.17-1.584 1.152-3.294 1.548-1.71.396-3.906.396-1.44 0-2.628-.486-1.188-.486-2.07-1.386-.882-.9-1.386-2.142-.504-1.242-.576-2.754-.144-3.744.774-6.354t2.484-4.266q1.566-1.656 3.564-2.394 1.998-.738 4.014-.738 2.916 0 4.446 1.422 1.53 1.422 1.746 3.906.18 2.016-.648 3.258-.828 1.242-2.25 1.944-1.422.702-3.258.954t-3.726.27q-1.89.018-3.654-.09t-2.988-.144l.072-2.952q1.152.036 2.592.126 1.44.09 2.916.126 1.476.036 2.898-.072 1.422-.108 2.484-.468 1.062-.36 1.656-1.044.594-.684.486-1.8-.036-.54-.288-.954-.252-.414-.63-.684-.378-.27-.918-.414-.54-.144-1.188-.144-1.152 0-2.466.468-1.314.468-2.412 1.656-1.098 1.188-1.8 3.168-.702 1.98-.666 5.004 0 .9.324 1.584t.846 1.17q.522.486 1.224.738t1.458.252q.828 0 1.476-.072t1.242-.234q.594-.162 1.134-.414.54-.252 1.08-.612.828-.576 1.386-.558.558.018.99.63Zm10.404-16.02q.828 0 1.26.396.432.396.648 1.224.144.504.162 1.062.018.558-.054 1.062.828-1.728 2.232-2.736 1.404-1.008 3.384-1.008 1.44 0 2.556.486t1.836 1.386q.72.9.99 2.16.27 1.26-.018 2.808l-2.124 12.06q-.144.828-.612 1.224-.468.396-1.296.396-.828 0-1.152-.396-.324-.396-.18-1.224l1.98-11.124q.18-.936.072-1.782t-.486-1.494q-.378-.648-1.026-1.044t-1.62-.396q-.972 0-1.89.576-.918.576-1.638 1.422-.72.846-1.224 1.854t-.648 1.872l-1.8 10.116q-.144.828-.612 1.224-.468.396-1.296.396-.828 0-1.152-.396-.324-.396-.18-1.224l2.664-15.12q.108-.54.072-1.08-.036-.54-.18-1.08-.18-.828.162-1.224.342-.396 1.17-.396Zm18.684 10.296q.504-2.772 1.548-4.716 1.044-1.944 2.484-3.186t3.168-1.818q1.728-.576 3.528-.576 1.368 0 2.394.234t1.782.63q.756.396 1.242.9t.702 1.044q.36.828.108 1.44t-.9.972q-.72.396-1.278.288-.558-.108-.774-.648-.288-.612-1.17-1.116-.882-.504-2.466-.504-1.296 0-2.466.432-1.17.432-2.088 1.296-.918.864-1.566 2.142t-.972 3.006q-.324 1.764-.108 3.114.216 1.35.846 2.25.63.9 1.62 1.35.99.45 2.214.45.936 0 1.998-.234 1.062-.234 1.674-.774.504-.432 1.152-.504.648-.072 1.152.432.216.216.288.486.072.27 0 .594-.072.324-.306.702-.234.378-.666.81-.576.576-1.296.918-.72.342-1.476.522t-1.566.234q-.81.054-1.602.054-1.98 0-3.51-.612-1.53-.612-2.502-1.854-.972-1.242-1.314-3.186-.342-1.944.126-4.572Zm35.712 5.724q.504.72.36 1.386-.144.666-.9 1.17-1.584 1.152-3.294 1.548-1.71.396-3.906.396-1.44 0-2.628-.486-1.188-.486-2.07-1.386-.882-.9-1.386-2.142-.504-1.242-.576-2.754-.144-3.744.774-6.354t2.484-4.266q1.566-1.656 3.564-2.394 1.998-.738 4.014-.738 2.916 0 4.446 1.422 1.53 1.422 1.746 3.906.18 2.016-.648 3.258-.828 1.242-2.25 1.944-1.422.702-3.258.954t-3.726.27q-1.89.018-3.654-.09t-2.988-.144l.072-2.952q1.152.036 2.592.126 1.44.09 2.916.126 1.476.036 2.898-.072 1.422-.108 2.484-.468 1.062-.36 1.656-1.044.594-.684.486-1.8-.036-.54-.288-.954-.252-.414-.63-.684-.378-.27-.918-.414-.54-.144-1.188-.144-1.152 0-2.466.468-1.314.468-2.412 1.656-1.098 1.188-1.8 3.168-.702 1.98-.666 5.004 0 .9.324 1.584t.846 1.17q.522.486 1.224.738t1.458.252q.828 0 1.476-.072t1.242-.234q.594-.162 1.134-.414.54-.252 1.08-.612.828-.576 1.386-.558.558.018.99.63ZM336 542.4h149.888v1.8H336v-1.8Zm168.308 0h197.58v1.8h-197.58v-1.8Zm216 0h67.365v1.8h-67.365v-1.8Zm74.533 0H962.4v1.8H794.841v-1.8Z" />
  </g>
</svg>