<svg
  xmlns="http://www.w3.org/2000/svg"
  xmlns:xlink="http://www.w3.org/1999/xlink"
  viewBox="0 0 784 411.46"
>
  <defs>
    <style>
      .a {
        fill: url(#a);
      }
      .b {
        fill: #ffffff;
      }
      .c {
        fill: #ffc1aa;
      }
    </style>
    <linearGradient
      id="a"
      y1="205.73"
      x2="784"
      y2="205.73"
      gradientUnits="userSpaceOnUse"
    >
      <stop offset="0" stop-color="#9da8fb" />
      <stop offset="0.091" stop-color="#8fabf9" />
      <stop offset="0.182" stop-color="#83adf6" />
      <stop offset="0.273" stop-color="#78aff1" />
      <stop offset="0.364" stop-color="#6fb1ec" />
      <stop offset="0.455" stop-color="#5eb6ea" />
      <stop offset="0.546" stop-color="#4fbbe6" />
      <stop offset="0.637" stop-color="#45bfe0" />
      <stop offset="0.728" stop-color="#3bc7d6" />
      <stop offset="0.819" stop-color="#49cec7" />
      <stop offset="0.910" stop-color="#65d3b5" />
      <stop offset="1" stop-color="#85d7a2" />
    </linearGradient>
  </defs>
  <rect class="a" width="784" height="411.46" />
  <path
    class="b"
    d="M640.6,403.82a3,3,0,0,1-3-3V371.46a.72.72,0,0,0-.27-.6.92.92,0,0,0-.53-.2.83.83,0,0,0-.74.47l-4.2,10.27a4,4,0,0,1-7.27,0l-4.21-10.27a.77.77,0,0,0-.66-.47.84.84,0,0,0-.57.2.75.75,0,0,0-.23.6v29.36A2.83,2.83,0,0,1,618,403a3,3,0,0,1-2.1.86,3,3,0,0,1-3-3v-44a3.55,3.55,0,0,1,1.07-2.6,3.46,3.46,0,0,1,2.53-1.07,3.61,3.61,0,0,1,3.34,2.2l6.94,15.89a1.62,1.62,0,0,0,1.47.93,1.6,1.6,0,0,0,1.4-.93l6.94-15.89a3.66,3.66,0,0,1,5.94-1.13,3.54,3.54,0,0,1,1.06,2.6v44a2.85,2.85,0,0,1-.9,2.14A3,3,0,0,1,640.6,403.82Z"
    transform="translate(-450.57 -232.1)"
  />
  <path
    class="b"
    d="M680.9,403.82c-1.69,0-3-1.75-3.94-5.27q-.39-1.47-.93-1.47a.85.85,0,0,0-.8.54,11.59,11.59,0,0,1-4.44,4.13,13.23,13.23,0,0,1-7,2.07,10,10,0,0,1-8-3.67q-3.1-3.66-3.1-10.81a26.24,26.24,0,0,1,8.57-19.61,12,12,0,0,1,8.11-3.27,7.07,7.07,0,0,1,5.34,2.73,1,1,0,0,0,.8.4c.4,0,.64-.26.73-.8a2.59,2.59,0,0,1,2.87-2.33,3.34,3.34,0,0,1,2.2.93A2.1,2.1,0,0,1,682,369v.27a155.74,155.74,0,0,0-.94,18.82q.06,8.73,2.27,11.87a1.91,1.91,0,0,1,.27,1.07,2.87,2.87,0,0,1-1.07,2.34A2.67,2.67,0,0,1,680.9,403.82Zm-16.81-6.34q5-.06,8.34-4.67c2-2.84,2.93-6.74,2.93-11.67a9.58,9.58,0,0,0-1.2-4.67q-1.8-3.27-4.74-3.27a7.43,7.43,0,0,0-4.77,2,16.32,16.32,0,0,0-4.1,5.53,20.09,20.09,0,0,0-1.87,8.31Q658.68,397.49,664.09,397.48Z"
    transform="translate(-450.57 -232.1)"
  />
  <path
    class="b"
    d="M697.38,420.17a3,3,0,0,1-2.13-.87,2.93,2.93,0,0,1-.94-2.27v-47.5a3,3,0,0,1,.84-2.24,2.85,2.85,0,0,1,2.1-.83,2.61,2.61,0,0,1,2.87,2.4c.13.85.42,1.27.86,1.27a1,1,0,0,0,.8-.4,11.17,11.17,0,0,1,8.34-3.27q13.15,0,13.15,17.75,0,9.14-4.07,14.61-3.74,5-9.14,5a11.33,11.33,0,0,1-7.27-2.33,2,2,0,0,0-1.34-.6c-.76,0-1.13.46-1.13,1.4V417a3,3,0,0,1-.9,2.27A2.86,2.86,0,0,1,697.38,420.17Zm11.74-22.62q3.21,0,5.68-3.2,2.66-3.41,2.66-9.74,0-11.36-8.27-11.55a8.88,8.88,0,0,0-6.14,2.51,8.47,8.47,0,0,0-2.73,6.57v6.67A9.06,9.06,0,0,0,703,395,8.11,8.11,0,0,0,709.12,397.55Z"
    transform="translate(-450.57 -232.1)"
  />
  <path
    class="b"
    d="M757.1,403.49q-13.35,0-13.41-14.75V360.12a3.79,3.79,0,0,0-1.14-2.67,3.56,3.56,0,0,0-2.67-1.2H735a3,3,0,0,1-2.11-.83,2.83,2.83,0,0,1-.9-2.17,3,3,0,0,1,.9-2.31,3,3,0,0,1,2.11-.83h7.8a6.56,6.56,0,0,1,4.77,2.2,6.73,6.73,0,0,1,2.17,4.81v30.36q0,10,8.07,10a7.11,7.11,0,0,0,3.61-1,2.19,2.19,0,0,1,1-.33,3.11,3.11,0,0,1,1.23.27,2.49,2.49,0,0,1,1.1.93,2.86,2.86,0,0,1,.47,1.67,3.16,3.16,0,0,1-.67,2C763.21,402.62,760.74,403.45,757.1,403.49Z"
    transform="translate(-450.57 -232.1)"
  />
  <path
    class="b"
    d="M789.73,403.82a16.6,16.6,0,0,1-9.48-2.73q-7.2-4.87-7.21-16.35a19.22,19.22,0,0,1,2.34-9.74,18.13,18.13,0,0,1,5.77-6.31,14.15,14.15,0,0,1,20.79,6,23.76,23.76,0,0,1,1.8,9.48,3.26,3.26,0,0,1-.77,2.13,2.49,2.49,0,0,1-2,.94l-20.08-.07c-1.11,0-1.67.45-1.67,1.34l.07.8a9.74,9.74,0,0,0,3.84,6.34,11.49,11.49,0,0,0,6.9,2.2,14.25,14.25,0,0,0,9.14-3.2,2,2,0,0,1,1.27-.47,2.36,2.36,0,0,1,2,1,3.13,3.13,0,0,1,.74,1.9,2.48,2.48,0,0,1-.87,1.87A18,18,0,0,1,789.73,403.82Zm6.2-22.55c1.16,0,1.74-.42,1.74-1.27a7.57,7.57,0,0,0-2.27-5,8.33,8.33,0,0,0-6.48-2.5,9.44,9.44,0,0,0-6.07,2.14,7.76,7.76,0,0,0-3.07,5.14l-.06.4c0,.75.51,1.13,1.53,1.13Z"
    transform="translate(-450.57 -232.1)"
  />
  <path
    class="c"
    d="M877.15,403.22a3.33,3.33,0,0,1-3.14-3.13,2.68,2.68,0,0,1,.74-1.87l5.8-5.81-6.74-6.6H832.24a3,3,0,0,1-2.1-.84,2.79,2.79,0,0,1-.9-2.16,2.93,2.93,0,0,1,.87-2.11,2.85,2.85,0,0,1,2.13-.9h41.57l6.74-6.54-5.4-5.4a2.68,2.68,0,0,1-.74-1.87,3,3,0,0,1,1-2.17,3.1,3.1,0,0,1,2.24-1,2.38,2.38,0,0,1,1.73.74l17.35,17.35a2.83,2.83,0,0,1,.73,1.87,2.75,2.75,0,0,1-.73,1.93L879,402.42A2.45,2.45,0,0,1,877.15,403.22Zm7.67-15.68a1.47,1.47,0,0,0,1.07-.46l3.14-3.14a1.47,1.47,0,0,0,.46-1.07,1.68,1.68,0,0,0-.46-1.13l-3.14-3.14a1.48,1.48,0,0,0-1.07-.47,1.69,1.69,0,0,0-1.13.47l-3.2,3.07a1.61,1.61,0,0,0,0,2.27l3.2,3.14A1.68,1.68,0,0,0,884.82,387.54Z"
    transform="translate(-450.57 -232.1)"
  />
  <path
    class="c"
    d="M882,469.92l-3.4,3.27a3,3,0,0,1-2.2.86h-44a3,3,0,0,1-2.1-.8,2.87,2.87,0,0,1-1-2.07,3,3,0,0,1,.87-2.26,2.9,2.9,0,0,1,2.13-.87h41.57a3.15,3.15,0,0,0,2.21-.87l1.66-1.53-2.53-2.54a2.53,2.53,0,0,1-.74-1.87,3,3,0,0,1,1-2.17,3.09,3.09,0,0,1,2.24-1,2.37,2.37,0,0,1,1.73.73l17.35,17.35a2.52,2.52,0,0,1,.73,1.87,2.6,2.6,0,0,1-.73,1.93L879,497.74a2.44,2.44,0,0,1-1.8.73,3.07,3.07,0,0,1-2.17-.93,3,3,0,0,1-1-2.2,2.45,2.45,0,0,1,.74-1.8l2.93-3L876,489a3.21,3.21,0,0,0-2.21-.94H832.24a2.92,2.92,0,0,1-2.1-.86,2.78,2.78,0,0,1-.9-2.07V485a3.07,3.07,0,0,1,3.07-2.94h44a3,3,0,0,1,2.2.93l3.4,3.27,7.08-7.07a1.54,1.54,0,0,0,.46-1.13A1.47,1.47,0,0,0,889,477Z"
    transform="translate(-450.57 -232.1)"
  />
  <path
    class="b"
    d="M949.13,404.82a4.22,4.22,0,0,1-4-4V371.46a.43.43,0,0,1,.2.2l.2-.13-4.2,10.27a5.11,5.11,0,0,1-1.9,2.11,5,5,0,0,1-2.71.83,4.85,4.85,0,0,1-2.67-.83,5.15,5.15,0,0,1-1.86-2.11L928,371.53l.27.13v-.06l.13-.07.07-.07v29.36a3.79,3.79,0,0,1-1.23,2.8,3.9,3.9,0,0,1-2.77,1.2,4.24,4.24,0,0,1-4-4v-44a4.51,4.51,0,0,1,1.4-3.23,4.3,4.3,0,0,1,5.71-.64,5.29,5.29,0,0,1,1.77,2l6.94,15.88a.5.5,0,0,0,.53.34.48.48,0,0,0,.47-.34l6.94-15.88a5.35,5.35,0,0,1,1.76-2,4.73,4.73,0,0,1,7.18,3.87v44a3.76,3.76,0,0,1-1.24,2.8A3.87,3.87,0,0,1,949.13,404.82Z"
    transform="translate(-450.57 -232.1)"
  />
  <path
    class="b"
    d="M976.82,404.82a15.14,15.14,0,0,1-8.17-2.36,16.1,16.1,0,0,1-5.91-6.78,24.16,24.16,0,0,1-2.13-10.61,23.82,23.82,0,0,1,2.13-10.47,16.07,16.07,0,0,1,5.91-6.77,15.34,15.34,0,0,1,16.38,0,16.06,16.06,0,0,1,5.87,6.77A23.82,23.82,0,0,1,993,385.07a24.15,24.15,0,0,1-2.14,10.61,16.08,16.08,0,0,1-5.87,6.78A15.1,15.1,0,0,1,976.82,404.82Zm0-7.87a6.88,6.88,0,0,0,5.81-3c1.47-2,2.2-4.92,2.2-8.74s-.75-6.71-2.24-8.78a6.92,6.92,0,0,0-11.54,0q-2.24,3.1-2.23,8.78t2.23,8.7A6.85,6.85,0,0,0,976.82,397Z"
    transform="translate(-450.57 -232.1)"
  />
  <path
    class="b"
    d="M1032.54,400.75a4.33,4.33,0,0,1-1,2.94,3.62,3.62,0,0,1-2.87,1.13,3.86,3.86,0,0,1-2.87-1.13,4,4,0,0,1-1.14-2.94V381.07q-.14-7.14-6.13-7.14a9.17,9.17,0,0,0-5.68,2.54q-3.47,3.06-3.47,6v18.28a4.28,4.28,0,0,1-1,2.94,3.59,3.59,0,0,1-2.87,1.13,3.89,3.89,0,0,1-2.87-1.13,4,4,0,0,1-1.13-2.94V369.59a4,4,0,0,1,1.2-2.93,3.88,3.88,0,0,1,5.61,0,4,4,0,0,1,1.2,2.93v1.07h-.34s0,0,.07-.13q4.8-5,10.14-5.07,6.35,0,9.61,3.67,3.54,3.74,3.54,11.54Z"
    transform="translate(-450.57 -232.1)"
  />
  <path
    class="b"
    d="M1056.89,404.82a15.12,15.12,0,0,1-8.17-2.36,16,16,0,0,1-5.91-6.78,24.16,24.16,0,0,1-2.13-10.61,23.82,23.82,0,0,1,2.13-10.47,15.94,15.94,0,0,1,5.91-6.77,15.34,15.34,0,0,1,16.38,0,16.12,16.12,0,0,1,5.87,6.77,23.82,23.82,0,0,1,2.13,10.47,24.16,24.16,0,0,1-2.13,10.61,16.15,16.15,0,0,1-5.87,6.78A15.1,15.1,0,0,1,1056.89,404.82Zm0-7.87a6.88,6.88,0,0,0,5.81-3c1.46-2,2.2-4.92,2.2-8.74s-.75-6.71-2.24-8.78a6.92,6.92,0,0,0-11.54,0q-2.23,3.1-2.24,8.78t2.24,8.7A6.85,6.85,0,0,0,1056.89,397Z"
    transform="translate(-450.57 -232.1)"
  />
  <path
    class="b"
    d="M640.53,499.07a2.3,2.3,0,0,1-1.93-.86,2.27,2.27,0,0,1-.47-1.47q0-.33,3.2-15.35l3.07-14.88c0-.4-.22-.6-.67-.6a1.13,1.13,0,0,0-.8.47l-6.4,10.27a5.07,5.07,0,0,1-4.14,2.34,3.1,3.1,0,0,1-3.14-2.34l-2-10.27a.58.58,0,0,0-.6-.47,1.09,1.09,0,0,0-.57.2.86.86,0,0,0-.36.6l-6.21,29.36a4,4,0,0,1-1.4,2.14,3.58,3.58,0,0,1-2.27.86,2.3,2.3,0,0,1-1.93-.86,2.33,2.33,0,0,1-.47-1.47q0-.33,9.41-44.71a4.57,4.57,0,0,1,1.6-2.6,4.18,4.18,0,0,1,2.74-1.07,2.77,2.77,0,0,1,2.86,2.21l3.61,15.88a1.21,1.21,0,0,0,1.2.93,2.25,2.25,0,0,0,1.67-.93l10.27-15.88a4.65,4.65,0,0,1,3.81-2.21,2.93,2.93,0,0,1,2.4,1.07,3.05,3.05,0,0,1,.6,1.87q0,.4-9.41,44.77a4,4,0,0,1-1.4,2.14A3.58,3.58,0,0,1,640.53,499.07Z"
    transform="translate(-450.57 -232.1)"
  />
  <path
    class="b"
    d="M681.5,499.07q-4.14,0-4.34-5.07c0-1.11-.27-1.67-.67-1.67a1.09,1.09,0,0,0-.86.54,16.45,16.45,0,0,1-5.34,4.14,15.68,15.68,0,0,1-7.47,2.06,7.94,7.94,0,0,1-7.21-3.67,10.31,10.31,0,0,1-1.4-5.67,24.78,24.78,0,0,1,.6-5.14,31.41,31.41,0,0,1,4.84-11.24,34.87,34.87,0,0,1,7.9-8.37,14.74,14.74,0,0,1,8.81-3.27,5.45,5.45,0,0,1,4.74,2.73.82.82,0,0,0,.73.4c.45,0,.76-.26.94-.8a3.21,3.21,0,0,1,3.33-2.33,2.81,2.81,0,0,1,2,.93,2,2,0,0,1,.47,1.2l-.07.54a171.7,171.7,0,0,0-5,18.95,38,38,0,0,0-1,7.74,10.77,10.77,0,0,0,.13,1.87c.27,1.6.78,2.4,1.54,2.4a5.44,5.44,0,0,0,2.33-1,2.46,2.46,0,0,1,1.2-.47,1.16,1.16,0,0,1,.87.47,1.42,1.42,0,0,1,.4.93q0,1-3.47,2.87A8.35,8.35,0,0,1,681.5,499.07Zm-17-6.33q5-.08,9.34-4.68,3.87-4.26,5.41-11.67a11.19,11.19,0,0,0,.2-2,8.67,8.67,0,0,0-.4-2.67q-1.06-3.27-4.07-3.27a9,9,0,0,0-5.17,2,22.46,22.46,0,0,0-5.27,5.53,24.12,24.12,0,0,0-3.64,8.31,19.3,19.3,0,0,0-.4,3.67C660.48,491.13,661.81,492.74,664.48,492.74Z"
    transform="translate(-450.57 -232.1)"
  />
  <path
    class="b"
    d="M693.77,515.42a2.33,2.33,0,0,1-1.86-.87,2.11,2.11,0,0,1-.54-1.46q0-.35,10.14-48.31a4.07,4.07,0,0,1,1.34-2.24,3.48,3.48,0,0,1,2.27-.83c1.55,0,2.33.71,2.33,2.13v.47c0,.71.27,1.07.67,1.07a1.36,1.36,0,0,0,.87-.4,13.53,13.53,0,0,1,9-3.27q10,0,10,11.34a37.57,37.57,0,0,1-.93,7.81,26.57,26.57,0,0,1-6.54,13.21q-4.8,5-10.54,5a9.25,9.25,0,0,1-6.74-2.33,1.73,1.73,0,0,0-1.2-.6,1.29,1.29,0,0,0-1,.36q-.34.38-3.61,15.79a3.54,3.54,0,0,1-1.4,2.26A3.7,3.7,0,0,1,693.77,515.42Zm17-22.55a8.58,8.58,0,0,0,6.54-3.37,22.58,22.58,0,0,0,4.47-9.44,18.71,18.71,0,0,0,.54-4.81q0-7.39-5.94-7.47-2.54,0-6.21,2.5a10.38,10.38,0,0,0-4.54,6.57,84.72,84.72,0,0,0-1.6,9.48,7.87,7.87,0,0,0,1.54,4.6Q706.86,492.87,710.72,492.87Z"
    transform="translate(-450.57 -232.1)"
  />
  <path
    class="b"
    d="M747.29,499.07q-7.62,0-7.61-6.74a25.53,25.53,0,0,1,.3-4.3c.2-1.13.52-2.59,1-4.37l.8-3.27q-5.54,2.81-6.47,2.8a2.52,2.52,0,0,1-1.57-.6,2.06,2.06,0,0,1-.77-1.73,2.61,2.61,0,0,1,1.54-2.14c1.42-.49,2.82-1,4.2-1.6l4.27-1.87,3.4-13.67q1.88-7.81,6.37-12a15.19,15.19,0,0,1,10.71-4.2A10.09,10.09,0,0,1,770,447.5q2.63,2.13,2.63,6.47,0,7.88-7.87,14.54-4.08,3.4-15.88,9.68L747,486a27,27,0,0,0-1,5.47c0,1.51,1,2.27,2.87,2.27a6.74,6.74,0,0,0,3.93-1.2,18.66,18.66,0,0,0,3.87-4,2.69,2.69,0,0,1,2-1.07,2.48,2.48,0,0,1,1.76.74,2.33,2.33,0,0,1,.77,1.73,2.61,2.61,0,0,1-.53,1.54q-4.14,5.2-8.08,6.6A13.33,13.33,0,0,1,747.29,499.07Zm3.47-27.29q9.33-4.61,13.21-8.7a12.86,12.86,0,0,0,3.87-9q0-3.6-4.41-3.67a10,10,0,0,0-5.47,2q-3,2-4.47,7.57Z"
    transform="translate(-450.57 -232.1)"
  />
  <path
    class="b"
    d="M789.12,499.07q-12.75,0-12.88-13.07a31,31,0,0,1,.67-5.88,32.26,32.26,0,0,1,1.87-6.2q6-12.21,19.48-12.21a11.41,11.41,0,0,1,7.18,2.3,6.94,6.94,0,0,1,3,5.64c0,3.42-.83,6.13-2.5,8.11s-4.57,3.34-8.71,4.1a94,94,0,0,1-13.34.87,1.32,1.32,0,0,0-1.43,1.2,14.87,14.87,0,0,0-.24,2.87,6,6,0,0,0,2.5,5.33,12.31,12.31,0,0,0,11.21.61,15.79,15.79,0,0,0,4.77-3.41,2.55,2.55,0,0,1,3.57,0,2.34,2.34,0,0,1,.77,1.74,2.13,2.13,0,0,1-.33,1.3,12.48,12.48,0,0,1-.94,1,19.67,19.67,0,0,1-6.14,4.34A22.05,22.05,0,0,1,789.12,499.07Zm-2.33-21.48q8.21-.07,12.24-1.5a5.49,5.49,0,0,0,4-5.57,2.63,2.63,0,0,0-1.4-2.14,7.84,7.84,0,0,0-4.27-.93,13,13,0,0,0-7.08,2.33,15.56,15.56,0,0,0-5.2,5.14,3,3,0,0,0-.4,1.47,1,1,0,0,0,.23.63,1.68,1.68,0,0,0,1,.44Z"
    transform="translate(-450.57 -232.1)"
  />
  <path
    class="b"
    d="M949.07,500.07a3.18,3.18,0,0,1-2.61-1.26,3.23,3.23,0,0,1-.8-2.14q0-.41,3.21-15.48,3.06-14.67,3.13-14.61l.27.33.07-.06v.06l-6.41,10.28a5.91,5.91,0,0,1-2.2,2,5.72,5.72,0,0,1-2.8.77,4.11,4.11,0,0,1-2.57-.9,4,4,0,0,1-1.5-2.24l-2.07-10.27.4.33.07-.06L929,496.27a4.88,4.88,0,0,1-1.76,2.7,4.47,4.47,0,0,1-2.84,1.1,3.48,3.48,0,0,1-3.4-3.4q0-.41,9.4-44.84a6.1,6.1,0,0,1,2-3.13,5,5,0,0,1,3.3-1.34,3.95,3.95,0,0,1,3.87,3l3.61,16h.06a1.13,1.13,0,0,0,.57-.1q.17-.11,10.71-16.25a6.08,6.08,0,0,1,2.07-1.93,5,5,0,0,1,2.53-.74,3.78,3.78,0,0,1,3.07,1.47,4.07,4.07,0,0,1,.87,2.54q0,.53-9.41,44.9a5,5,0,0,1-1.77,2.7A4.44,4.44,0,0,1,949.07,500.07Z"
    transform="translate(-450.57 -232.1)"
  />
  <path
    class="b"
    d="M976.42,500.07a12.93,12.93,0,0,1-7.74-2.4q-5.13-3.66-5.14-11.54a30.67,30.67,0,0,1,.67-6,27.55,27.55,0,0,1,4.34-10.4,21.91,21.91,0,0,1,7.27-6.68,17.47,17.47,0,0,1,8.54-2.33,12.72,12.72,0,0,1,7.74,2.4q5.14,3.74,5.14,11.61a31,31,0,0,1-.6,5.8,28.46,28.46,0,0,1-4.4,10.55,22.19,22.19,0,0,1-7.24,6.67A17.31,17.31,0,0,1,976.42,500.07Zm1.07-8.07a9.15,9.15,0,0,0,6.31-2.77q3-2.76,4.63-8.44a21.34,21.34,0,0,0,.8-5.54q0-6.47-5.87-6.47a9.33,9.33,0,0,0-6.4,2.87,18.06,18.06,0,0,0-4.67,8.47,21.25,21.25,0,0,0-.74,5,12.06,12.06,0,0,0,1,4.6C973.22,491.25,974.87,492,977.49,492Z"
    transform="translate(-450.57 -232.1)"
  />
  <path
    class="b"
    d="M1004.11,500.07a3.38,3.38,0,0,1-2.8-1.26,3,3,0,0,1-.67-1.94q0-.47,6.74-32.23a4.7,4.7,0,0,1,1.74-2.8,4.62,4.62,0,0,1,2.93-1.13,3.41,3.41,0,0,1,2.74,1.27,3.6,3.6,0,0,1,.67,2.13,7.91,7.91,0,0,1-.17,1.34c-.11.57-.17.89-.17.93,0-.31-.18-.47-.53-.47l.27-.2q5.73-4.93,11.07-5,10.74,0,10.74,10.07a24.59,24.59,0,0,1-.46,4.54l-.14.8-2.47,11.61a27.28,27.28,0,0,0-.86,5.81c0,.31.13.46.4.46a4.69,4.69,0,0,0,2.47-.86,3.48,3.48,0,0,1,1.73-.6,2,2,0,0,1,1.6.76,2.44,2.44,0,0,1,.67,1.64c0,1.06-1.33,2.31-4,3.73a7.31,7.31,0,0,1-3.61,1.07q-7.47,0-7.47-5.47,0-1.39,3.54-18.15a12.5,12.5,0,0,0,.4-2.93q0-4-4.81-4a11.62,11.62,0,0,0-6.34,2.6c-2.8,2.1-4.4,4.14-4.8,6.14l-3.87,18.28C1008,498.78,1006.51,500.07,1004.11,500.07Z"
    transform="translate(-450.57 -232.1)"
  />
  <path
    class="b"
    d="M1056.49,500.07a12.89,12.89,0,0,1-7.74-2.4q-5.14-3.66-5.14-11.54a29.93,29.93,0,0,1,.67-6,27.39,27.39,0,0,1,4.34-10.4,21.91,21.91,0,0,1,7.27-6.68,17.47,17.47,0,0,1,8.54-2.33,12.72,12.72,0,0,1,7.74,2.4q5.13,3.74,5.14,11.61a31,31,0,0,1-.6,5.8,28.31,28.31,0,0,1-4.41,10.55,22.09,22.09,0,0,1-7.24,6.67A17.27,17.27,0,0,1,1056.49,500.07Zm1.07-8.07a9.13,9.13,0,0,0,6.3-2.77q3-2.76,4.64-8.44a21.78,21.78,0,0,0,.8-5.54q0-6.47-5.87-6.47a9.35,9.35,0,0,0-6.41,2.87,18.24,18.24,0,0,0-4.67,8.47,21.18,21.18,0,0,0-.73,5,11.88,11.88,0,0,0,1,4.6C1053.29,491.25,1054.93,492,1057.56,492Z"
    transform="translate(-450.57 -232.1)"
  />
</svg>
