<svg xmlns="http://www.w3.org/2000/svg" viewBox="0 0 600 300"><defs><style>.b{fill:#fff}.c{fill:#ffbf4b}</style></defs><linearGradient id="a" y1="300" x2="600" y2="300" gradientUnits="userSpaceOnUse"><stop offset="0" stop-color="#9da8fb"/><stop offset=".091" stop-color="#8fabf9"/><stop offset=".182" stop-color="#83adf6"/><stop offset=".273" stop-color="#78aff1"/><stop offset=".364" stop-color="#6fb1ec"/><stop offset=".455" stop-color="#5eb6ea"/><stop offset=".546" stop-color="#4fbbe6"/><stop offset=".637" stop-color="#45bfe0"/><stop offset=".728" stop-color="#3bc7d6"/><stop offset=".819" stop-color="#49cec7"/><stop offset=".91" stop-color="#65d3b5"/><stop offset="1" stop-color="#85d7a2"/></linearGradient><path fill="url(#a)" d="M0 0h600v300H0z"/><path class="b" d="M389.33 114.33c-.46 0-.9-.13-1.3-.38-.41-.25-.73-.58-.98-.99-.25-.41-.37-.84-.37-1.3V92.43c0-.02.02 0 .07.03.05.04.05.06.02.06.08-.06.12-.08.12-.07l-3.02 8.01c-.23.57-.64 1.04-1.23 1.42-.59.38-1.2.57-1.83.57-.6 0-1.19-.18-1.78-.53s-1-.84-1.25-1.45l-3.05-8.01c0-.02.02-.01.06.02s.07.05.08.05c-.02 0 0-.02.05-.06.05-.04.07-.05.07-.03v19.22c0 .48-.13.92-.38 1.32s-.58.73-.99.98c-.41.25-.83.38-1.28.38-.46 0-.89-.13-1.29-.38s-.73-.58-.98-.99c-.25-.41-.38-.84-.38-1.3V82.58c0-.54.14-1.04.43-1.51.28-.47.66-.85 1.12-1.14.46-.29.96-.44 1.5-.44.58 0 1.15.18 1.71.53.55.35.93.81 1.13 1.36l4.89 12.69c.08.22.13.34.17.38.04.04.1.06.2.06.09 0 .15-.02.18-.06.03-.04.08-.17.16-.38l4.89-12.69c.21-.55.6-1.01 1.14-1.36.55-.35 1.11-.53 1.7-.53.54 0 1.05.15 1.52.44.48.29.86.67 1.15 1.14.29.47.44.97.44 1.51v29.08c0 .48-.13.92-.39 1.32s-.6.73-1 .98c-.43.24-.86.37-1.3.37zm19.2-.02c-2.26 0-4.15-.53-5.68-1.59-1.52-1.05-2.77-2.55-3.74-4.52-.94-1.94-1.41-4.37-1.41-7.29 0-2.88.47-5.28 1.41-7.22.97-1.97 2.22-3.48 3.74-4.52 1.54-1.05 3.43-1.57 5.68-1.57 2.26 0 4.16.52 5.7 1.57.75.52 1.44 1.16 2.05 1.92.62.75 1.16 1.62 1.64 2.61.95 1.98 1.43 4.39 1.43 7.22 0 2.88-.48 5.31-1.43 7.29-.48.98-1.02 1.85-1.64 2.6-.62.75-1.3 1.39-2.05 1.93-1.52 1.04-3.43 1.57-5.7 1.57zm0-5.4c1.81 0 3.17-.65 4.06-1.94.91-1.28 1.36-3.28 1.36-6.02 0-5.31-1.81-7.96-5.42-7.96-3.62 0-5.42 2.65-5.42 7.96s1.8 7.96 5.42 7.96zm35.74 5.4c-.77 0-1.41-.25-1.92-.76s-.76-1.16-.76-1.96V98.45c-.05-3.46-1.56-5.19-4.55-5.19-1.28.02-2.57.45-3.88 1.29-1.52 1.06-2.28 2.52-2.28 4.38v12.65c0 .77-.22 1.42-.67 1.94-.43.52-1.07.78-1.92.78-.78 0-1.42-.25-1.91-.76-.51-.51-.76-1.16-.76-1.96V90.35c0-.78.27-1.45.81-1.98.52-.52 1.15-.78 1.87-.78.74 0 1.37.26 1.89.78.52.52.79 1.19.79 1.98v.72h-.21l-.02-.02.07-.09c2.15-2.23 4.42-3.35 6.79-3.37 3.12 0 5.42.82 6.9 2.45 1.57 1.68 2.35 4.39 2.35 8.15v13.41c0 .77-.22 1.42-.67 1.94-.43.51-1.07.77-1.92.77zm19.64 0c-2.26 0-4.15-.53-5.68-1.59-1.52-1.05-2.77-2.55-3.74-4.52-.94-1.94-1.41-4.37-1.41-7.29 0-2.88.47-5.28 1.41-7.22.97-1.97 2.22-3.48 3.74-4.52 1.54-1.05 3.43-1.57 5.68-1.57 2.26 0 4.16.52 5.7 1.57.75.52 1.44 1.16 2.05 1.92s1.16 1.62 1.64 2.61c.95 1.98 1.43 4.39 1.43 7.22 0 2.88-.48 5.31-1.43 7.29-.48.98-1.02 1.85-1.64 2.6s-1.3 1.39-2.05 1.93c-1.52 1.04-3.42 1.57-5.7 1.57zm0-5.4c1.82 0 3.17-.65 4.06-1.94.91-1.28 1.36-3.28 1.36-6.02 0-5.31-1.81-7.96-5.42-7.96s-5.42 2.65-5.42 7.96 1.81 7.96 5.42 7.96zm-319.58 4.84c-.57 0-1.06-.21-1.46-.62a2.04 2.04 0 0 1-.61-1.48V92.43c0-.17-.05-.29-.15-.37a.516.516 0 0 0-.33-.12c-.18 0-.32.09-.42.28l-3.05 8.03c-.2.48-.54.87-1 1.17-.47.3-.97.45-1.51.45-.52 0-1.02-.14-1.48-.42-.46-.28-.8-.68-1.02-1.2l-3.05-8.03a.38.38 0 0 0-.39-.28c-.11 0-.21.04-.31.12-.1.08-.15.2-.15.37v19.22c0 .57-.21 1.06-.62 1.48-.42.42-.9.62-1.45.62-.57 0-1.06-.21-1.46-.62a2.04 2.04 0 0 1-.61-1.48V82.58c0-.46.11-.88.33-1.26.22-.38.52-.68.9-.91s.79-.35 1.23-.35c.51 0 .97.14 1.4.42.42.28.73.65.91 1.11l4.89 12.69c.08.23.18.42.31.58s.33.23.59.23c.26 0 .45-.08.58-.23s.23-.35.32-.58l4.87-12.69c.18-.46.49-.83.92-1.11a2.484 2.484 0 0 1 2.65-.07c.39.23.69.53.92.91.23.38.35.8.35 1.26v29.08c0 .57-.21 1.06-.63 1.48-.43.41-.92.61-1.47.61zm27.99 0c-1.18 0-2.1-1.22-2.75-3.65-.18-.63-.37-.95-.55-.95-.22 0-.37.11-.46.32-.51.95-1.53 1.9-3.07 2.84-1.55.95-3.16 1.43-4.82 1.43-2.26 0-4.09-.84-5.49-2.52-1.43-1.69-2.15-4.17-2.15-7.43 0-2.8.55-5.36 1.66-7.68 1.11-2.32 2.51-4.24 4.2-5.75 1.69-1.49 3.55-2.24 5.58-2.24 1.42.02 2.65.65 3.69 1.89.14.15.3.23.49.23.23 0 .37-.15.42-.46.18-1.11.86-1.66 2.03-1.66.52 0 1.05.22 1.57.67.35.29.53.67.53 1.13v.21a71.92 71.92 0 0 0-.48 5.76c-.11 2.13-.16 4.48-.16 7.05.05 3.95.56 6.63 1.55 8.03.12.2.18.45.18.76 0 .71-.25 1.26-.76 1.66-.29.25-.69.36-1.21.36zm-11.45-4.5c2.22-.05 4.05-1.06 5.52-3.05 1.38-1.98 2.08-4.64 2.08-7.96 0-1.14-.26-2.2-.79-3.18-.82-1.49-1.87-2.24-3.16-2.24-1.08 0-2.16.46-3.25 1.38-.54.45-1.04.98-1.51 1.62-.47.63-.9 1.35-1.3 2.15-.8 1.63-1.21 3.51-1.22 5.63-.01 3.77 1.2 5.65 3.63 5.65zm23.01 15.07c-.55 0-1.05-.2-1.48-.6-.43-.42-.65-.94-.65-1.57V90.26c0-.65.21-1.16.62-1.55.4-.38.9-.58 1.5-.58 1.17 0 1.8.55 1.89 1.66.08.83.24 1.25.51 1.25.2 0 .37-.08.51-.25 1.45-1.77 3.32-2.65 5.63-2.65 6.23 0 9.35 3.99 9.35 11.98 0 4.35-.92 7.77-2.77 10.25-1.68 2.26-3.88 3.39-6.62 3.39-1.96 0-3.59-.53-4.92-1.59-.31-.26-.59-.39-.85-.39-.46 0-.69.29-.69.88v9.51c0 .63-.21 1.15-.62 1.57-.43.38-.9.58-1.41.58zm7.87-14.9c1.71 0 3.11-.7 4.2-2.1 1.19-1.54 1.78-3.85 1.78-6.95 0-5.03-1.98-7.58-5.93-7.66-1.51 0-2.86.55-4.06 1.66-1.21 1.11-1.82 2.56-1.82 4.36v4.87c0 1.45.59 2.81 1.78 4.08 1.08 1.16 2.44 1.74 4.05 1.74zm33.05 4.33c-6.02 0-9.04-3.32-9.07-9.97V84.54c0-.63-.25-1.22-.74-1.75-.49-.52-1.08-.78-1.75-.78h-3.3c-.57 0-1.05-.19-1.45-.58-.42-.37-.62-.87-.62-1.5 0-.68.21-1.21.62-1.59.43-.38.92-.58 1.45-.58h5.24c1.18 0 2.26.5 3.23 1.5.98.98 1.48 2.08 1.48 3.28v20.42c0 4.43 1.78 6.65 5.35 6.65.82 0 1.61-.22 2.38-.67.26-.15.51-.23.74-.23.12 0 .25.01.38.03.13.02.27.07.43.15.29.11.55.32.78.65.21.28.32.66.32 1.15 0 .55-.15 1.02-.46 1.38-.9 1.11-2.57 1.67-5.01 1.68zm22.86 0c-2.4 0-4.53-.62-6.39-1.85-3.23-2.2-4.85-5.88-4.85-11.03 0-1.42.13-2.7.39-3.87s.65-2.2 1.18-3.1c.52-.92 1.11-1.74 1.77-2.45.65-.71 1.37-1.32 2.13-1.82 1.55-1 3.3-1.5 5.24-1.5 2.08 0 3.86.49 5.35 1.48 1.51 1 2.65 2.35 3.44 4.06.38.85.68 1.83.88 2.97.2 1.13.31 2.4.32 3.82 0 .57-.18 1.06-.53 1.48-.34.43-.81.65-1.41.65l-13.48-.05c-.69 0-1.04.28-1.04.85 0 1.88.77 3.38 2.31 4.5 1.51 1.12 3.13 1.69 4.87 1.69 2.28 0 4.31-.71 6.09-2.12.26-.21.55-.32.88-.32.6 0 1.07.22 1.41.67.34.46.51.9.51 1.32 0 .49-.2.92-.6 1.29-2.46 2.22-5.28 3.33-8.47 3.33zm4.18-15.27c.72 0 1.08-.26 1.08-.78 0-1.37-.5-2.62-1.5-3.74-1.01-1.11-2.45-1.66-4.29-1.66-1.37 0-2.53.35-3.48 1.06-.48.34-.9.71-1.28 1.11-.38.4-.7.82-.96 1.27-.4.72-.6 1.41-.6 2.05 0 .46.39.69 1.18.69h9.85zM389.07 203.78c-.46 0-.87-.13-1.22-.38s-.61-.58-.77-.99c-.16-.41-.2-.84-.1-1.3l4.08-19.22c.01-.01.04 0 .07.04.03.04.03.06 0 .06.09-.06.14-.08.14-.07l-4.73 8.01c-.35.57-.87 1.04-1.55 1.42-.68.38-1.33.57-1.96.57-.58 0-1.13-.18-1.64-.53-.51-.35-.82-.84-.95-1.45l-1.34-8.01c0-.02.04.01.12.07-.02 0 0-.02.06-.06s.08-.05.08-.04l-4.08 19.22c-.09.48-.31.92-.66 1.32-.35.4-.75.73-1.21.98s-.92.38-1.36.38c-.46 0-.87-.13-1.21-.38-.35-.25-.6-.58-.76-.99-.16-.41-.2-.84-.1-1.3l6.18-29.08c.11-.54.35-1.04.74-1.51.38-.47.84-.85 1.37-1.14.53-.29 1.07-.44 1.6-.44.58 0 1.11.18 1.58.53.47.35.75.81.84 1.36l2.19 12.69c.03.22.06.34.08.38.02.04.09.06.2.06.09 0 .16-.02.2-.06.04-.04.12-.17.24-.38l7.59-12.69c.34-.55.82-1.01 1.44-1.36.62-.35 1.22-.53 1.79-.53.54 0 1.01.15 1.42.44.41.29.71.67.91 1.14.2.47.24.97.12 1.51l-6.18 29.08c-.09.48-.31.92-.66 1.32-.35.4-.75.73-1.2.98-.46.23-.91.35-1.36.35zm19.53-.02c-4.35 0-7.08-2.08-8.19-6.23-.12-.45-.22-.92-.28-1.43s-.09-1.04-.09-1.59c0-.63.04-1.3.13-2.02.08-.72.21-1.47.38-2.25.6-2.85 1.57-5.24 2.91-7.18 1.35-1.92 2.9-3.41 4.64-4.45 1.74-1.05 3.72-1.57 5.95-1.57 4.37 0 7.11 2.07 8.22 6.21.25.89.37 1.91.37 3.05 0 1.26-.16 2.65-.48 4.18-.6 2.86-1.58 5.28-2.93 7.25-1.37 1.94-2.91 3.43-4.62 4.48-1.75 1.03-3.75 1.55-6.01 1.55zm.92-5.4c3.68 0 6.09-2.69 7.25-8.08.26-1.26.39-2.35.39-3.28 0-1.11-.24-2.15-.72-3.12-.46-.97-1.56-1.45-3.3-1.45-1.83 0-3.35.68-4.57 2.03-1.23 1.37-2.13 3.38-2.7 6.05-.12.62-.22 1.2-.29 1.75s-.1 1.08-.1 1.57c0 1.11.24 2.14.72 3.09.46.96 1.57 1.44 3.32 1.44zm37.39 5.4c-.59 0-1.09-.01-1.52-.03-.43-.02-.79-.07-1.09-.13-.55-.09-1.05-.34-1.5-.74-.45-.4-.67-1.07-.67-2.01 0-.25.04-.63.13-1.14.08-.52.21-1.17.38-1.95l2.08-9.97c.14-.68.21-1.28.21-1.8 0-2.18-1.18-3.28-3.55-3.28-1.31.03-2.71.47-4.2 1.32-1.77 1.08-2.86 2.57-3.28 4.48l-2.7 12.65c-.15.75-.49 1.38-1.02 1.87-.54.49-1.21.74-2.01.74-.81 0-1.43-.27-1.84-.81-.29-.38-.44-.83-.44-1.34 0-.25 1.53-7.55 4.59-21.92.15-.74.54-1.37 1.15-1.89.63-.51 1.29-.76 1.98-.76.75 0 1.35.28 1.78.83.32.43.48.92.48 1.45 0 .18-.05.5-.14.95l-.09.51c0-.17-.11-.25-.32-.25l.19-.14c2.58-2.21 5.05-3.33 7.41-3.35 3.15 0 5.31.84 6.46 2.52.74 1.03 1.11 2.44 1.11 4.22 0 1.17-.16 2.49-.48 3.97-.77 3.62-1.35 6.35-1.73 8.2-.38 1.85-.58 2.83-.58 2.94 0 .75.22 1.13.67 1.13.18 0 .42-.12.71-.35.31-.23.65-.35 1.02-.35.48 0 .87.15 1.18.44.32.28.48.67.48 1.18 0 .69-.59 1.38-1.78 2.05-.93.51-1.95.76-3.07.76zm17.07 0c-4.35 0-7.08-2.08-8.19-6.23-.12-.45-.21-.92-.28-1.43s-.09-1.04-.09-1.59c0-.63.04-1.3.13-2.02.08-.72.21-1.47.38-2.25.6-2.85 1.57-5.24 2.91-7.18 1.35-1.92 2.9-3.41 4.64-4.45 1.74-1.05 3.72-1.57 5.95-1.57 4.37 0 7.11 2.07 8.22 6.21.25.89.37 1.91.37 3.05 0 1.26-.16 2.65-.48 4.18-.6 2.86-1.58 5.28-2.93 7.25-1.37 1.94-2.91 3.43-4.62 4.48-1.75 1.03-3.75 1.55-6.01 1.55zm.92-5.4c3.68 0 6.09-2.69 7.25-8.08.26-1.26.39-2.35.39-3.28 0-1.11-.24-2.15-.71-3.12-.46-.97-1.56-1.45-3.3-1.45-1.83 0-3.35.68-4.57 2.03-1.23 1.37-2.13 3.38-2.7 6.05-.12.62-.22 1.2-.29 1.75-.07.55-.1 1.08-.1 1.57 0 1.11.24 2.14.72 3.09.45.96 1.56 1.44 3.31 1.44zM144.19 203.21c-.57 0-1.01-.21-1.33-.62-.32-.42-.42-.91-.31-1.48l4.08-19.22c.03-.17.01-.29-.07-.37a.407.407 0 0 0-.3-.12c-.2 0-.36.09-.48.28l-4.75 8.03c-.29.48-.71.87-1.25 1.17-.54.3-1.08.45-1.62.45-.52 0-.99-.14-1.4-.42s-.66-.68-.75-1.2l-1.34-8.03c-.05-.18-.16-.28-.35-.28-.11 0-.22.04-.33.12-.12.08-.19.2-.22.37l-4.08 19.22c-.08.38-.25.73-.51 1.05-.26.32-.57.57-.92.76-.35.19-.71.29-1.08.29-.57 0-1.02-.21-1.34-.62s-.42-.91-.3-1.48l6.18-29.08c.09-.46.29-.88.59-1.26s.67-.68 1.1-.91c.43-.23.87-.35 1.32-.35.51 0 .95.14 1.32.42.37.28.59.65.67 1.11l2.19 12.69c.03.23.09.42.18.58.09.15.27.23.53.23s.47-.08.63-.23c.16-.15.31-.35.45-.58l7.57-12.69c.29-.46.68-.83 1.17-1.11.48-.28.97-.42 1.46-.42.68 0 1.21.25 1.62.75s.52 1.09.37 1.77l-6.18 29.08c-.08.38-.25.73-.51 1.05s-.57.57-.92.76-.72.29-1.09.29zm28.36 0c-.71 0-1.28-.22-1.73-.67-.62-.58-.95-1.68-1.02-3.3-.02-.43-.17-.65-.46-.65-.18 0-.36.11-.53.32-.71.94-1.93 1.88-3.67 2.84-1.74.95-3.45 1.43-5.15 1.43-2.23 0-3.88-.84-4.96-2.52-.65-1.05-.97-2.36-.97-3.95 0-1.03.14-2.19.42-3.48.6-2.82 1.71-5.38 3.32-7.71.8-1.17 1.65-2.23 2.56-3.17.91-.95 1.86-1.8 2.86-2.55 2-1.49 4.01-2.24 6.05-2.24 1.38.02 2.48.65 3.3 1.89.09.15.23.23.42.23.22 0 .38-.15.51-.46.45-1.11 1.25-1.66 2.4-1.66.54 0 1.01.22 1.41.67.23.2.35.46.35.78 0 .11-.02.25-.07.44-1.17 3.48-2.3 7.79-3.39 12.92-.2 1.03-.36 2.03-.47 2.99-.12.96-.17 1.87-.17 2.73.03 1.51.38 2.26 1.06 2.26.2 0 .45-.08.76-.23.22-.09.42-.14.62-.14.26 0 .49.11.67.32.17.25.25.49.25.72 0 .31-.1.57-.3.78-.84.95-2.19 1.41-4.07 1.41zm-11.38-4.53c2.25-.05 4.3-1.06 6.16-3.05 1.8-1.97 3.06-4.62 3.78-7.96.09-.49.14-.96.14-1.41 0-.31-.02-.61-.07-.9s-.11-.58-.18-.88c-.48-1.49-1.38-2.24-2.7-2.24-1.08 0-2.25.45-3.53 1.36-1.26.91-2.46 2.17-3.6 3.78-1.15 1.62-1.97 3.49-2.45 5.63-.11.48-.19.92-.23 1.32s-.07.78-.07 1.13c.01 2.16.92 3.22 2.75 3.22zm20.45 15.1c-.54 0-.99-.2-1.34-.6-.26-.29-.39-.65-.39-1.06 0-.17 2.28-10.97 6.85-32.4.14-.63.45-1.15.95-1.55.48-.38 1.02-.58 1.62-.58 1.05 0 1.57.45 1.57 1.34l-.07.88c0 .46.1.69.3.69.17 0 .35-.08.55-.25 1.82-1.77 3.88-2.65 6.21-2.65 4.89 0 7.34 2.47 7.34 7.41 0 1.34-.18 2.86-.55 4.57-.92 4.37-2.57 7.79-4.94 10.25-2.14 2.26-4.58 3.39-7.34 3.39-1.96 0-3.48-.53-4.59-1.59-.23-.26-.48-.39-.76-.39-.46 0-.75.29-.88.88l-2.03 9.51c-.14.65-.46 1.17-.95 1.57-.53.38-1.04.58-1.55.58zm11.05-14.91c1.71 0 3.25-.7 4.64-2.1 1.51-1.52 2.59-3.84 3.25-6.95.23-1.06.35-2.01.35-2.86 0-3.12-1.55-4.72-4.66-4.8-1.48 0-2.95.55-4.41 1.66-1.43 1.09-2.35 2.55-2.75 4.36l-1.04 4.87c-.03.18-.06.37-.08.54s-.04.35-.04.52c0 1.03.34 2.04 1.02 3.02.87 1.16 2.11 1.74 3.72 1.74zm26.52 4.34c-3.46 0-5.23-1.55-5.31-4.64 0-.58.01-1.12.05-1.6s.08-.92.14-1.3c.17-1 .52-2.65 1.04-4.96-2.37 1.2-3.76 1.8-4.18 1.8-.42 0-.8-.15-1.15-.44-.38-.29-.58-.71-.58-1.25.03-.77.39-1.28 1.08-1.52.52-.17 1.25-.45 2.19-.83.94-.38 2.08-.87 3.44-1.45l2.12-8.31c.97-3.85 2.36-6.72 4.18-8.63 1.81-1.91 4.13-2.86 6.95-2.86 1.8 0 3.24.49 4.31 1.48 1.17 1.08 1.75 2.41 1.75 3.99 0 3.72-1.51 6.99-4.55 9.81-1.8 1.58-5.33 3.78-10.59 6.58-.58 2.55-1.02 4.57-1.32 6.05-.29 1.48-.44 2.42-.44 2.82 0 1 .63 1.5 1.89 1.5.98 0 1.85-.26 2.61-.79.77-.54 1.61-1.43 2.51-2.68.45-.51.92-.76 1.41-.76s.92.17 1.27.51c.37.37.56.79.58 1.25 0 .4-.12.75-.37 1.06-1.82 2.37-3.62 3.87-5.4 4.5-1.02.44-2.23.67-3.63.67zm2.17-18.7c4.06-2.01 6.93-3.93 8.61-5.75 1.34-1.46 2.01-3.28 2.01-5.45-.03-1.66-.95-2.5-2.77-2.51-1.08 0-2.2.45-3.37 1.34-1.15.88-2.09 2.72-2.82 5.52l-1.66 6.85zm25.84 18.7c-5.77 0-8.69-2.97-8.77-8.91 0-.58.04-1.21.1-1.87.07-.66.18-1.37.33-2.12.15-.77.34-1.5.55-2.19s.45-1.36.72-2.01c2.72-5.52 7.13-8.29 13.22-8.29 1.91 0 3.55.52 4.92 1.57 1.35 1.08 2.03 2.37 2.03 3.88 0 2.63-.57 4.62-1.71 5.98-1.14 1.35-3.12 2.28-5.95 2.79-.94.15-2.18.28-3.72.38s-3.38.17-5.52.2c-.48 0-.77.26-.88.78-.05.25-.08.49-.12.73-.03.24-.05.47-.05.7 0 1.62.59 2.79 1.78 3.53 1.2.74 2.7 1.11 4.5 1.11 2.15 0 4.25-.99 6.3-2.98.31-.35.72-.53 1.25-.53.49 0 .92.17 1.27.51.35.35.53.77.53 1.25 0 .42-.08.72-.23.92-.06.09-.15.2-.27.31s-.25.24-.4.38c-1.34 1.38-2.72 2.38-4.15 2.98-1.41.6-3.33.9-5.73.9zm-2.03-14.24c3.98-.02 6.88-.34 8.68-.97 1.78-.65 2.68-2.03 2.68-4.15 0-.52-.31-.98-.92-1.36-.62-.42-1.55-.62-2.81-.62-1.54 0-3.19.55-4.94 1.66-1.77 1.14-3.01 2.4-3.72 3.79-.18.34-.28.65-.28.95 0 .12.05.25.14.37.09.09.48.21 1.17.33z"/><path class="c" d="M323.04 113.04c-.58 0-1.08-.2-1.48-.6-.4-.4-.6-.89-.6-1.48 0-.55.2-1.04.6-1.45l2.61-2.61c.14-.12.21-.29.21-.51 0-.18-.07-.35-.21-.51l-2.63-2.7c-.2-.2-.48-.37-.83-.52-.35-.15-.68-.22-.97-.22h-27.23c-.57 0-1.06-.2-1.47-.61-.41-.41-.61-.9-.61-1.47s.2-1.06.61-1.47c.41-.41.9-.61 1.47-.61h27.23c.29 0 .62-.07.97-.22s.63-.32.83-.52l2.63-2.63c.14-.12.21-.29.21-.51 0-.18-.07-.35-.21-.48l-2.61-2.61c-.4-.43-.6-.92-.6-1.48 0-.62.21-1.12.63-1.51.42-.39.9-.59 1.44-.59.54 0 1.02.2 1.45.6l10.55 10.59c.42.43.62.92.62 1.48 0 .26-.05.52-.15.78-.1.26-.26.5-.47.72l-10.55 10.55c-.23.22-.46.37-.7.45-.23.1-.48.14-.74.14zm4.57-9.86c.2 0 .37-.07.51-.21l2.03-2.03c.15-.14.23-.31.23-.51 0-.17-.08-.33-.23-.48l-2.03-2.05a.694.694 0 0 0-.51-.21c-.2 0-.37.07-.51.21l-2.05 2.05a.66.66 0 0 0-.21.48c0 .22.07.38.21.51l2.05 2.03c.14.15.31.21.51.21zM324.06 202.49c-.57 0-1.06-.2-1.47-.61-.41-.41-.61-.9-.61-1.46 0-.54.2-1.02.6-1.45l1.34-1.34c.12-.12.18-.27.18-.44 0-.19-.07-.35-.21-.49a.635.635 0 0 0-.46-.21h-29.91c-.54 0-1.02-.2-1.44-.61-.42-.41-.63-.9-.63-1.46a2 2 0 0 1 .62-1.48c.42-.4.9-.6 1.45-.6h31.02c.58 0 1.08.21 1.5.62l.74.76c.14.14.31.21.51.21s.37-.07.51-.21l3.39-3.37c.14-.14.21-.31.21-.51 0-.18-.07-.35-.21-.48l-3.44-3.44a.694.694 0 0 0-.51-.21c-.18 0-.35.07-.49.21l-.76.76c-.4.4-.89.6-1.48.6h-30.99c-.54 0-1.02-.2-1.44-.61-.42-.41-.63-.9-.63-1.47a2 2 0 0 1 .62-1.48c.42-.4.9-.6 1.45-.6h29.86c.17 0 .32-.06.45-.2s.2-.28.2-.45c0-.09-.01-.18-.03-.25a.506.506 0 0 0-.15-.23l-1.27-1.25c-.2-.2-.35-.43-.45-.7-.1-.27-.15-.53-.15-.77 0-.58.2-1.08.61-1.48.41-.4.9-.6 1.47-.6.55 0 1.04.2 1.45.6l10.55 10.57c.42.42.62.91.62 1.48 0 .55-.21 1.05-.62 1.5l-10.55 10.55c-.43.4-.91.6-1.45.6z"/></svg>